{
.appVersion = "1161";
classes = (
{
automatic = 1;

glyphs = (
{
glyphname = A;
layers = (
{
anchors = (
{
name = bottom;
position = "{279, 0}";
},
{
name = ogonek;
position = "{554, 0}";
},
{
name = top;
position = "{352, 700}";
}
);
color = -1;
guideLines = (
{
position = "{467, 1016}";
},
{
position = "{536, 974}";
},
{
position = "{533, 731}";
},
{
position = "{587, 764}";
}
);
layerId = UUID0;
paths = (
{
closed = 1;
nodes = (
"33 -2 LINE SMOOTH",
"53 -2 OFFCURVE",
"69 2 OFFCURVE",
"74 14 CURVE SMOOTH",
"148 178 LINE",
"442 178 LINE",
"484 14 LINE SMOOTH",
"487 2 OFFCURVE",
"503 -2 OFFCURVE",
"523 -2 CURVE SMOOTH",
"531 -2 LINE SMOOTH",
"565 -2 OFFCURVE",
"575 7 OFFCURVE",
"575 18 CURVE SMOOTH",
"575 21 OFFCURVE",
"575 24 OFFCURVE",
"574 28 CURVE SMOOTH",
"406 686 LINE SMOOTH",
"403 698 OFFCURVE",
"387 702 OFFCURVE",
"367 702 CURVE SMOOTH",
"338 702 LINE SMOOTH",
"317 702 OFFCURVE",
"302 698 OFFCURVE",
"297 686 CURVE SMOOTH",
"-8 29 LINE SMOOTH",
"-11 23 OFFCURVE",
"-13 18 OFFCURVE",
"-13 14 CURVE SMOOTH",
"-13 3 OFFCURVE",
"0 -2 OFFCURVE",
"28 -2 CURVE SMOOTH"
);
},
{
closed = 1;
nodes = (
"321 552 LINE SMOOTH",
"329 570 OFFCURVE",
"336 591 OFFCURVE",
"342 610 CURVE",
"344 610 LINE",
"344 591 OFFCURVE",
"345 571 OFFCURVE",
"350 552 CURVE SMOOTH",
"423 254 LINE",
"184 254 LINE"
);
}
);
width = 613;
},
{
anchors = (
{
name = bottom;
position = "{279, 0}";
},
{
name = ogonek;
position = "{563, 0}";
},
{
name = top;
position = "{352, 700}";
}
);
background = {
paths = (
{
closed = 1;
nodes = (
"326 702 LINE SMOOTH",
"297 702 OFFCURVE",
"274 697 OFFCURVE",
"267 681 CURVE SMOOTH",
"-24 38 LINE SMOOTH",
"-28 30 OFFCURVE",
"-30 24 OFFCURVE",
"-30 18 CURVE SMOOTH",
"-30 5 OFFCURVE",
"-11 -2 OFFCURVE",
"28 -2 CURVE SMOOTH",
"68 -2 LINE SMOOTH",
"92 -2 OFFCURVE",
"109 4 OFFCURVE",
"116 19 CURVE SMOOTH",
"171 141 LINE",
"413 141 LINE",
"442 19 LINE SMOOTH",
"446 3 OFFCURVE",
"466 -2 OFFCURVE",
"496 -2 CURVE SMOOTH",
"540 -2 LINE SMOOTH",
"575 -2 OFFCURVE",
"594 7 OFFCURVE",
"594 21 CURVE SMOOTH",
"594 24 OFFCURVE",
"592 35 OFFCURVE",
"591 38 CURVE SMOOTH",
"433 681 LINE SMOOTH",
"429 697 OFFCURVE",
"407 702 OFFCURVE",
"378 702 CURVE SMOOTH"
);
},
{
closed = 1;
nodes = (
"335 494 OFFCURVE",
"337 472 OFFCURVE",
"342 451 CURVE SMOOTH",
"382 273 LINE",
"228 273 LINE",
"308 451 LINE SMOOTH",
"317 471 OFFCURVE",
"324 494 OFFCURVE",
"330 515 CURVE",
"334 515 LINE"
);
}
);
};
color = -1;
layerId = "DE974D70-A5B4-43AB-B940-69E4F08CB641";
paths = (
{
closed = 1;
nodes = (
"73 -2 LINE SMOOTH",
"97 -2 OFFCURVE",
"114 4 OFFCURVE",
"121 19 CURVE SMOOTH",
"176 141 LINE",
"407 141 LINE",
"436 19 LINE SMOOTH",
"440 3 OFFCURVE",
"460 -2 OFFCURVE",
"490 -2 CURVE SMOOTH",
"534 -2 LINE SMOOTH",
"569 -2 OFFCURVE",
"588 7 OFFCURVE",
"588 21 CURVE SMOOTH",
"588 24 OFFCURVE",
"586 35 OFFCURVE",
"585 38 CURVE",
"433 681 LINE SMOOTH",
"429 697 OFFCURVE",
"407 702 OFFCURVE",
"378 702 CURVE SMOOTH",
"326 702 LINE SMOOTH",
"297 702 OFFCURVE",
"274 697 OFFCURVE",
"267 681 CURVE SMOOTH",
"-19 38 LINE",
"-23 30 OFFCURVE",
"-25 24 OFFCURVE",
"-25 18 CURVE SMOOTH",
"-25 5 OFFCURVE",
"-6 -2 OFFCURVE",
"33 -2 CURVE SMOOTH"
);
},
{
closed = 1;
nodes = (
"308 451 LINE SMOOTH",
"317 471 OFFCURVE",
"324 494 OFFCURVE",
"330 515 CURVE",
"334 515 LINE",
"335 494 OFFCURVE",
"337 472 OFFCURVE",
"342 451 CURVE",
"377 273 LINE",
"232 273 LINE"
);
}
);
width = 613;
}
);
leftKerningGroup = A;
rightKerningGroup = A;
unicode = 0041;
},
{
glyphname = Aringacute;
layers = (
{
color = -1;
components = (
{
name = ringcomb.case;
transform = "{1, 0, 0, 1, 226, 60}";
}
);
layerId = UUID0;
paths = (
{
closed = 1;
nodes = (
"33 -2 LINE SMOOTH",
"53 -2 OFFCURVE",
"69 2 OFFCURVE",
"74 14 CURVE SMOOTH",
"148 178 LINE",
"442 178 LINE",
"484 14 LINE SMOOTH",
"487 2 OFFCURVE",
"503 -2 OFFCURVE",
"523 -2 CURVE SMOOTH",
"531 -2 LINE SMOOTH",
"565 -2 OFFCURVE",
"575 7 OFFCURVE",
"575 18 CURVE SMOOTH",
"575 21 OFFCURVE",
"575 24 OFFCURVE",
"574 28 CURVE SMOOTH",
"406 686 LINE",
"365 642 LINE",
"336 642 LINE",
"297 686 LINE",
"-8 29 LINE SMOOTH",
"-11 23 OFFCURVE",
"-13 18 OFFCURVE",
"-13 14 CURVE SMOOTH",
"-13 3 OFFCURVE",
"0 -2 OFFCURVE",
"28 -2 CURVE SMOOTH"
);
},
{
closed = 1;
nodes = (
"321 552 LINE SMOOTH",
"329 570 OFFCURVE",
"336 591 OFFCURVE",
"342 610 CURVE",
"344 610 LINE",
"344 591 OFFCURVE",
"345 571 OFFCURVE",
"350 552 CURVE SMOOTH",
"423 254 LINE",
"184 254 LINE"
);
},
{
closed = 1;
nodes = (
"384 822 OFFCURVE",
"404 828 OFFCURVE",
"416 840 CURVE SMOOTH",
"487 904 OFFCURVE",
"497 909 OFFCURVE",
"497 916 CURVE SMOOTH",
"498 926 OFFCURVE",
"483 929 OFFCURVE",
"451 929 CURVE SMOOTH",
"419 929 OFFCURVE",
"399 923 OFFCURVE",
"386 903 CURVE SMOOTH",
"372 881 OFFCURVE",
"363 868 OFFCURVE",
"341 832 CURVE SMOOTH",
"341 825 OFFCURVE",
"347 822 OFFCURVE",
"363 822 CURVE SMOOTH"
);
}
);
width = 613;
},
{
color = -1;
components = (
{
name = ringcomb.case;
transform = "{1, 0, 0, 1, 217, 47}";
}
);
layerId = "DE974D70-A5B4-43AB-B940-69E4F08CB641";
paths = (
{
closed = 1;
nodes = (
"73 -2 LINE SMOOTH",
"97 -2 OFFCURVE",
"114 4 OFFCURVE",
"121 19 CURVE SMOOTH",
"176 141 LINE",
"418 141 LINE",
"447 19 LINE SMOOTH",
"451 3 OFFCURVE",
"471 -2 OFFCURVE",
"501 -2 CURVE SMOOTH",
"545 -2 LINE SMOOTH",
"580 -2 OFFCURVE",
"599 7 OFFCURVE",
"599 21 CURVE SMOOTH",
"599 24 OFFCURVE",
"597 35 OFFCURVE",
"596 38 CURVE SMOOTH",
"438 681 LINE",
"381 632 LINE",
"329 632 LINE",
"272 681 LINE",
"-19 38 LINE SMOOTH",
"-23 30 OFFCURVE",
"-25 24 OFFCURVE",
"-25 18 CURVE SMOOTH",
"-25 5 OFFCURVE",
"-6 -2 OFFCURVE",
"33 -2 CURVE SMOOTH"
);
},
{
closed = 1;
nodes = (
"313 451 LINE SMOOTH",
"322 471 OFFCURVE",
"329 494 OFFCURVE",
"335 515 CURVE",
"339 515 LINE",
"340 494 OFFCURVE",
"342 472 OFFCURVE",
"347 451 CURVE SMOOTH",
"387 273 LINE",
"233 273 LINE"
);
},
{
closed = 1;
nodes = (
"401 812 OFFCURVE",
"419 825 OFFCURVE",
"431 837 CURVE SMOOTH",
"514 907 OFFCURVE",
"519 909 OFFCURVE",
"520 917 CURVE SMOOTH",
"521 928 OFFCURVE",
"501 931 OFFCURVE",
"461 931 CURVE SMOOTH",
"421 931 OFFCURVE",
"388 925 OFFCURVE",
"373 904 CURVE SMOOTH",
"356 881 OFFCURVE",
"344 864 OFFCURVE",
"324 827 CURVE SMOOTH",
"323 816 OFFCURVE",
"330 812 OFFCURVE",
"354 812 CURVE SMOOTH"
);
}
);
width = 624;
}
);
leftKerningGroup = A;
leftMetricsKey = A;
rightKerningGroup = A;
rightMetricsKey = A;
unicode = 01FA;
},
{
glyphname = AE;
layers = (
{
anchors = (
{
name = top;
position = "{458, 700}";
}
);
background = {
paths = (
{
closed = 1;
nodes = (
"392 700 LINE SMOOTH",
"371 700 OFFCURVE",
"358 692 OFFCURVE",
"347 673 CURVE SMOOTH",
"-41 31 LINE SMOOTH",
"-45 24 OFFCURVE",
"-47 17 OFFCURVE",
"-47 13 CURVE SMOOTH",
"-47 3 OFFCURVE",
"-38 -2 OFFCURVE",
"-9 -2 CURVE SMOOTH",
"-4 -2 LINE SMOOTH",
"14 -2 OFFCURVE",
"30 3 OFFCURVE",
"37 14 CURVE SMOOTH",
"134 178 LINE",
"429 178 LINE",
"445 29 LINE SMOOTH",
"447 9 OFFCURVE",
"457 0 OFFCURVE",
"478 0 CURVE SMOOTH",
"770 0 LINE SMOOTH",
"795 0 OFFCURVE",
"795 31 OFFCURVE",
"795 54 CURVE SMOOTH",
"795 69 OFFCURVE",
"790 76 OFFCURVE",
"778 76 CURVE SMOOTH",
"530 76 LINE",
"502 320 LINE",
"771 320 LINE SMOOTH",
"796 320 OFFCURVE",
"796 351 OFFCURVE",
"796 374 CURVE SMOOTH",
"796 389 OFFCURVE",
"791 396 OFFCURVE",
"779 396 CURVE SMOOTH",
"494 396 LINE",
"468 624 LINE",
"834 624 LINE SMOOTH",
"859 624 OFFCURVE",
"859 655 OFFCURVE",
"859 678 CURVE SMOOTH",
"859 693 OFFCURVE",
"854 700 OFFCURVE",
"842 700 CURVE SMOOTH"
);
},
{
closed = 1;
nodes = (
"389 552 LINE",
"419 253 LINE",
"180 253 LINE",
"360 552 LINE",
"387 610 LINE",
"389 610 LINE"
);
},
{
closed = 1;
nodes = (
"845 624 LINE SMOOTH",
"859 624 OFFCURVE",
"866 630 OFFCURVE",
"868 654 CURVE SMOOTH",
"870 675 LINE SMOOTH",
"872 696 OFFCURVE",
"867 700 OFFCURVE",
"853 700 CURVE SMOOTH",
"836 700 LINE",
"828 624 LINE"
);
},
{
closed = 1;
nodes = (
"782 320 LINE SMOOTH",
"796 320 OFFCURVE",
"803 326 OFFCURVE",
"805 350 CURVE SMOOTH",
"807 371 LINE SMOOTH",
"809 392 OFFCURVE",
"804 396 OFFCURVE",
"790 396 CURVE SMOOTH",
"773 396 LINE",
"765 320 LINE"
);
},
{
closed = 1;
nodes = (
"781 0 LINE SMOOTH",
"795 0 OFFCURVE",
"802 6 OFFCURVE",
"804 30 CURVE SMOOTH",
"806 51 LINE SMOOTH",
"808 72 OFFCURVE",
"803 76 OFFCURVE",
"789 76 CURVE SMOOTH",
"772 76 LINE",
"764 0 LINE"
);
}
);
};
color = -1;
layerId = UUID0;
paths = (
{
closed = 1;
nodes = (
"-4 -2 LINE SMOOTH",
"14 -2 OFFCURVE",
"30 3 OFFCURVE",
"37 14 CURVE SMOOTH",
"134 178 LINE",
"429 178 LINE",
"445 29 LINE SMOOTH",
"447 9 OFFCURVE",
"457 0 OFFCURVE",
"478 0 CURVE SMOOTH",
"766 0 LINE SMOOTH",
"780 0 OFFCURVE",
"792 6 OFFCURVE",
"794 30 CURVE SMOOTH",
"796 51 LINE SMOOTH",
"798 72 OFFCURVE",
"788 76 OFFCURVE",
"774 76 CURVE SMOOTH",
"530 76 LINE",
"502 320 LINE",
"767 320 LINE SMOOTH",
"781 320 OFFCURVE",
"793 326 OFFCURVE",
"795 350 CURVE SMOOTH",
"797 371 LINE SMOOTH",
"799 392 OFFCURVE",
"789 396 OFFCURVE",
"775 396 CURVE SMOOTH",
"494 396 LINE",
"468 624 LINE",
"830 624 LINE SMOOTH",
"844 624 OFFCURVE",
"856 630 OFFCURVE",
"858 654 CURVE SMOOTH",
"860 675 LINE SMOOTH",
"862 696 OFFCURVE",
"852 700 OFFCURVE",
"838 700 CURVE SMOOTH",
"392 700 LINE SMOOTH",
"371 700 OFFCURVE",
"358 692 OFFCURVE",
"347 673 CURVE SMOOTH",
"-41 31 LINE SMOOTH",
"-45 24 OFFCURVE",
"-47 17 OFFCURVE",
"-47 13 CURVE SMOOTH",
"-47 3 OFFCURVE",
"-38 -2 OFFCURVE",
"-9 -2 CURVE SMOOTH"
);
},
{
closed = 1;
nodes = (
"360 552 LINE",
"387 610 LINE",
"389 610 LINE",
"389 552 LINE",
"419 253 LINE",
"180 253 LINE"
);
}
);
width = 915;
},
{
anchors = (
{
name = top;
position = "{578, 700}";
}
);
color = -1;
layerId = "DE974D70-A5B4-43AB-B940-69E4F08CB641";
paths = (
{
closed = 1;
nodes = (
"62 -2 LINE SMOOTH",
"86 -2 OFFCURVE",
"101 5 OFFCURVE",
"110 19 CURVE SMOOTH",
"183 141 LINE",
"426 141 LINE",
"435 30 LINE SMOOTH",
"437 9 OFFCURVE",
"445 0 OFFCURVE",
"467 0 CURVE SMOOTH",
"792 0 LINE SMOOTH",
"823 0 OFFCURVE",
"834 15 OFFCURVE",
"837 50 CURVE SMOOTH",
"840 81 LINE SMOOTH",
"843 116 OFFCURVE",
"837 131 OFFCURVE",
"806 131 CURVE SMOOTH",
"579 131 LINE",
"565 293 LINE",
"795 293 LINE SMOOTH",
"826 293 OFFCURVE",
"837 308 OFFCURVE",
"840 343 CURVE SMOOTH",
"843 374 LINE SMOOTH",
"846 409 OFFCURVE",
"840 424 OFFCURVE",
"809 424 CURVE SMOOTH",
"552 424 LINE",
"540 569 LINE",
"851 569 LINE SMOOTH",
"882 569 OFFCURVE",
"893 584 OFFCURVE",
"896 619 CURVE SMOOTH",
"899 650 LINE SMOOTH",
"902 685 OFFCURVE",
"896 700 OFFCURVE",
"865 700 CURVE SMOOTH",
"406 700 LINE SMOOTH",
"385 700 OFFCURVE",
"372 692 OFFCURVE",
"360 673 CURVE SMOOTH",
"-27 38 LINE",
"-32 31 OFFCURVE",
"-35 25 OFFCURVE",
"-35 20 CURVE SMOOTH",
"-35 0 OFFCURVE",
"1 -2 OFFCURVE",
"25 -2 CURVE SMOOTH"
);
},
{
closed = 1;
nodes = (
"370 455 LINE",
"406 537 LINE",
"410 537 LINE",
"402 454 LINE",
"416 273 LINE",
"262 273 LINE"
);
}
);
width = 915;
}
);
leftKerningGroup = AE;
rightKerningGroup = E;
unicode = 00C6;
},
{
glyphname = B;
layers = (
{
anchors = (
{
name = bottom;
position = "{270, 0}";
},
{
name = top;
position = "{343, 700}";
}
);
color = -1;
layerId = UUID0;
paths = (
{
closed = 1;
nodes = (
"263 0 LINE SMOOTH",
"442 0 OFFCURVE",
"549 67 OFFCURVE",
"549 219 CURVE SMOOTH",
"549 336 OFFCURVE",
"422 367 OFFCURVE",
"422 367 CURVE",
"423 371 LINE",
"491 389 OFFCURVE",
"553 459 OFFCURVE",
"553 544 CURVE SMOOTH",
"553 637 OFFCURVE",
"482 700 OFFCURVE",
"343 700 CURVE SMOOTH",
"159 700 LINE SMOOTH",
"138 700 OFFCURVE",
"128 691 OFFCURVE",
"126 670 CURVE SMOOTH",
"59 24 LINE SMOOTH",
"57 7 OFFCURVE",
"67 0 OFFCURVE",
"86 0 CURVE SMOOTH"
);
},
{
closed = 1;
nodes = (
"178 322 LINE",
"312 322 LINE SMOOTH",
"408 322 OFFCURVE",
"458 284 OFFCURVE",
"458 220 CURVE SMOOTH",
"458 132 OFFCURVE",
"406 76 OFFCURVE",
"303 76 CURVE SMOOTH",
"152 76 LINE"
);
},
{
closed = 1;
nodes = (
"209 624 LINE",
"326 624 LINE SMOOTH",
"418 624 OFFCURVE",
"461 594 OFFCURVE",
"461 532 CURVE SMOOTH",
"461 449 OFFCURVE",
"397 398 OFFCURVE",
"307 398 CURVE SMOOTH",
"186 398 LINE"
);
}
);
width = 593;
},
{
anchors = (
{
name = bottom;
position = "{270, 0}";
},
{
name = top;
position = "{343, 700}";
}
);
color = -1;
layerId = "DE974D70-A5B4-43AB-B940-69E4F08CB641";
paths = (
{
closed = 1;
nodes = (
"297 0 LINE SMOOTH",
"477 0 OFFCURVE",
"569 80 OFFCURVE",
"569 220 CURVE SMOOTH",
"569 290 OFFCURVE",
"523 352 OFFCURVE",
"450 367 CURVE",
"450 371 LINE",
"521 400 OFFCURVE",
"575 457 OFFCURVE",
"575 546 CURVE SMOOTH",
"575 638 OFFCURVE",
"512 700 OFFCURVE",
"356 700 CURVE SMOOTH",
"158 700 LINE SMOOTH",
"130 700 OFFCURVE",
"117 688 OFFCURVE",
"114 660 CURVE SMOOTH",
"49 32 LINE SMOOTH",
"47 8 OFFCURVE",
"58 0 OFFCURVE",
"85 0 CURVE SMOOTH"
);
},
{
closed = 1;
nodes = (
"229 290 LINE",
"311 290 LINE SMOOTH",
"376 290 OFFCURVE",
"411 267 OFFCURVE",
"411 221 CURVE SMOOTH",
"411 163 OFFCURVE",
"380 131 OFFCURVE",
"310 131 CURVE SMOOTH",
"212 131 LINE"
);
},
{
closed = 1;
nodes = (
"259 570 LINE",
"330 570 LINE SMOOTH",
"386 570 OFFCURVE",
"413 549 OFFCURVE",
"413 507 CURVE SMOOTH",
"413 450 OFFCURVE",
"377 421 OFFCURVE",
"312 421 CURVE SMOOTH",
"243 421 LINE"
);
}
);
width = 593;
}
);
leftKerningGroup = H;
rightKerningGroup = B;
unicode = 0042;
},
{
glyphname = C;
layers = (
{
anchors = (
{
name = bottom;
position = "{330, 0}";
},
{
name = top;
position = "{383, 700}";
}
);
background = {
paths = (
{
closed = 1;
nodes = (
"407 -6 OFFCURVE",
"522 14 OFFCURVE",
"522 62 CURVE SMOOTH",
"522 93 OFFCURVE",
"518 104 OFFCURVE",
"505 104 CURVE SMOOTH",
"485 104 OFFCURVE",
"433 70 OFFCURVE",
"334 70 CURVE SMOOTH",
"195 70 OFFCURVE",
"128 138 OFFCURVE",
"128 286 CURVE SMOOTH",
"128 481 OFFCURVE",
"200 630 OFFCURVE",
"392 630 CURVE SMOOTH",
"488 630 OFFCURVE",
"539 586 OFFCURVE",
"550 586 CURVE SMOOTH",
"563 586 OFFCURVE",
"590 629 OFFCURVE",
"590 645 CURVE SMOOTH",
"590 672 OFFCURVE",
"504 706 OFFCURVE",
"407 706 CURVE SMOOTH",
"125 706 OFFCURVE",
"38 501 OFFCURVE",
"38 274 CURVE SMOOTH",
"38 83 OFFCURVE",
"131 -6 OFFCURVE",
"326 -6 CURVE SMOOTH"
);
}
);
};
color = -1;
layerId = UUID0;
paths = (
{
closed = 1;
nodes = (
"401 -6 OFFCURVE",
"468 13 OFFCURVE",
"506 33 CURVE SMOOTH",
"527 44 OFFCURVE",
"541 57 OFFCURVE",
"541 67 CURVE SMOOTH",
"541 81 OFFCURVE",
"524 120 OFFCURVE",
"512 120 CURVE SMOOTH",
"499 120 OFFCURVE",
"438 70 OFFCURVE",
"335 70 CURVE SMOOTH",
"196 70 OFFCURVE",
"130 138 OFFCURVE",
"130 285 CURVE SMOOTH",
"130 514 OFFCURVE",
"222 630 OFFCURVE",
"398 630 CURVE SMOOTH",
"494 630 OFFCURVE",
"537 586 OFFCURVE",
"548 586 CURVE SMOOTH",
"560 586 OFFCURVE",
"588 629 OFFCURVE",
"588 645 CURVE SMOOTH",
"588 654 OFFCURVE",
"577 664 OFFCURVE",
"567 670 CURVE SMOOTH",
"535 689 OFFCURVE",
"471 706 OFFCURVE",
"404 706 CURVE SMOOTH",
"167 706 OFFCURVE",
"38 553 OFFCURVE",
"38 275 CURVE SMOOTH",
"38 83 OFFCURVE",
"132 -6 OFFCURVE",
"327 -6 CURVE SMOOTH"
);
}
);
width = 619;
},
{
anchors = (
{
name = bottom;
position = "{370, 0}";
},
{
name = top;
position = "{403, 700}";
}
);
background = {
paths = (
{
closed = 1;
nodes = (
"133 708 OFFCURVE",
"42 506 OFFCURVE",
"42 276 CURVE SMOOTH",
"42 82 OFFCURVE",
"137 -8 OFFCURVE",
"337 -8 CURVE SMOOTH",
"386 -8 OFFCURVE",
"542 6 OFFCURVE",
"554 68 CURVE SMOOTH",
"563 116 OFFCURVE",
"564 156 OFFCURVE",
"564 163 CURVE SMOOTH",
"564 176 OFFCURVE",
"558 178 OFFCURVE",
"552 178 CURVE SMOOTH",
"538 178 OFFCURVE",
"464 123 OFFCURVE",
"351 123 CURVE SMOOTH",
"250 123 OFFCURVE",
"201 183 OFFCURVE",
"201 298 CURVE SMOOTH",
"201 483 OFFCURVE",
"272 576 OFFCURVE",
"400 576 CURVE SMOOTH",
"495 576 OFFCURVE",
"532 544 OFFCURVE",
"544 544 CURVE SMOOTH",
"569 544 OFFCURVE",
"619 613 OFFCURVE",
"619 640 CURVE SMOOTH",
"619 681 OFFCURVE",
"503 708 OFFCURVE",
"417 708 CURVE SMOOTH"
);
}
);
};
color = -1;
layerId = "DE974D70-A5B4-43AB-B940-69E4F08CB641";
paths = (
{
closed = 1;
nodes = (
"396 -8 OFFCURVE",
"482 5 OFFCURVE",
"529 30 CURVE SMOOTH",
"550 41 OFFCURVE",
"568 60 OFFCURVE",
"568 78 CURVE SMOOTH",
"568 98 OFFCURVE",
"549 163 OFFCURVE",
"518 163 CURVE SMOOTH",
"503 163 OFFCURVE",
"445 123 OFFCURVE",
"350 123 CURVE SMOOTH",
"250 123 OFFCURVE",
"200 183 OFFCURVE",
"200 299 CURVE SMOOTH",
"200 477 OFFCURVE",
"272 576 OFFCURVE",
"400 576 CURVE SMOOTH",
"495 576 OFFCURVE",
"531 544 OFFCURVE",
"543 544 CURVE SMOOTH",
"566 544 OFFCURVE",
"618 611 OFFCURVE",
"618 640 CURVE SMOOTH",
"618 651 OFFCURVE",
"610 661 OFFCURVE",
"596 670 CURVE SMOOTH",
"558 694 OFFCURVE",
"479 708 OFFCURVE",
"417 708 CURVE SMOOTH",
"173 708 OFFCURVE",
"41 557 OFFCURVE",
"41 276 CURVE SMOOTH",
"41 82 OFFCURVE",
"137 -8 OFFCURVE",
"336 -8 CURVE SMOOTH"
);
}
);
width = 619;
}
);
leftKerningGroup = O;
rightKerningGroup = C;
unicode = 0043;
},
{
glyphname = D;
layers = (
{
anchors = (
{
name = bottom;
position = "{291, 0}";
},
{
name = center;
position = "{348, 350}";
},
{
name = top;
position = "{348, 700}";
}
);
color = -1;
layerId = UUID0;
paths = (
{
closed = 1;
nodes = (
"302 0 LINE SMOOTH",
"481 0 OFFCURVE",
"653 105 OFFCURVE",
"653 415 CURVE SMOOTH",
"653 624 OFFCURVE",
"532 700 OFFCURVE",
"375 700 CURVE SMOOTH",
"160 700 LINE SMOOTH",
"139 700 OFFCURVE",
"129 691 OFFCURVE",
"127 670 CURVE SMOOTH",
"60 24 LINE SMOOTH",
"58 7 OFFCURVE",
"68 0 OFFCURVE",
"87 0 CURVE SMOOTH"
);
},
{
closed = 1;
nodes = (
"210 624 LINE",
"360 624 LINE SMOOTH",
"474 624 OFFCURVE",
"562 567 OFFCURVE",
"562 401 CURVE SMOOTH",
"562 163 OFFCURVE",
"433 76 OFFCURVE",
"303 76 CURVE SMOOTH",
"153 76 LINE"
);
}
);
width = 695;
},
{
anchors = (
{
name = bottom;
position = "{306, 0}";
},
{
name = center;
position = "{363, 350}";
},
{
name = top;
position = "{363, 700}";
}
);
color = -1;
layerId = "DE974D70-A5B4-43AB-B940-69E4F08CB641";
paths = (
{
closed = 1;
nodes = (
"315 0 LINE SMOOTH",
"534 0 OFFCURVE",
"675 146 OFFCURVE",
"675 411 CURVE SMOOTH",
"675 598 OFFCURVE",
"575 700 OFFCURVE",
"388 700 CURVE SMOOTH",
"164 700 LINE SMOOTH",
"136 700 OFFCURVE",
"123 688 OFFCURVE",
"120 660 CURVE SMOOTH",
"56 43 LINE SMOOTH",
"53 9 OFFCURVE",
"64 0 OFFCURVE",
"91 0 CURVE SMOOTH"
);
},
{
closed = 1;
nodes = (
"266 569 LINE",
"375 569 LINE SMOOTH",
"469 569 OFFCURVE",
"516 509 OFFCURVE",
"516 397 CURVE SMOOTH",
"516 225 OFFCURVE",
"443 131 OFFCURVE",
"328 131 CURVE SMOOTH",
"219 131 LINE"
);
}
);
width = 695;
}
);
leftKerningGroup = H;
rightKerningGroup = O;
unicode = 0044;
},
{
glyphname = Eth;
layers = (
{
color = -1;
components = (
{
name = D;
}
);
layerId = UUID0;
paths = (
{
closed = 1;
nodes = (
"332 320 LINE SMOOTH",
"346 320 OFFCURVE",
"353 330 OFFCURVE",
"355 352 CURVE SMOOTH",
"356 364 LINE SMOOTH",
"358 386 OFFCURVE",
"352 396 OFFCURVE",
"336 396 CURVE SMOOTH",
"37 396 LINE SMOOTH",
"22 396 OFFCURVE",
"14 389 OFFCURVE",
"12 367 CURVE SMOOTH",
"10 349 LINE SMOOTH",
"8 330 OFFCURVE",
"15 320 OFFCURVE",
"29 320 CURVE SMOOTH"
);
}
);
width = 695;
},
{
color = -1;
components = (
{
name = D;
}
);
layerId = "DE974D70-A5B4-43AB-B940-69E4F08CB641";
paths = (
{
closed = 1;
nodes = (
"334 290 LINE SMOOTH",
"357 290 OFFCURVE",
"366 307 OFFCURVE",
"371 347 CURVE SMOOTH",
"373 364 LINE SMOOTH",
"378 404 OFFCURVE",
"369 421 OFFCURVE",
"346 421 CURVE SMOOTH",
"59 421 LINE SMOOTH",
"35 421 OFFCURVE",
"25 405 OFFCURVE",
"21 365 CURVE SMOOTH",
"19 347 LINE SMOOTH",
"15 307 OFFCURVE",
"23 290 OFFCURVE",
"47 290 CURVE SMOOTH"
);
}
);
width = 695;
}
);
leftKerningGroup = H;
rightKerningGroup = O;
rightMetricsKey = "=D";
unicode = 00D0;
},
{
glyphname = E;
layers = (
{
anchors = (
{
name = bottom;
position = "{254, 0}";
},
{
name = ogonek;
position = "{443, 0}";
},
{
name = top;
position = "{320, 700}";
}
);
background = {
paths = (
{
closed = 1;
nodes = (
"352 0 LINE",
"425 0 LINE SMOOTH",
"439 0 OFFCURVE",
"449 9 OFFCURVE",
"451 33 CURVE SMOOTH",
"452 48 LINE SMOOTH",
"453 67 OFFCURVE",
"447 76 OFFCURVE",
"433 76 CURVE SMOOTH",
"359 76 LINE"
);
},
{
closed = 1;
nodes = (
"382 320 LINE",
"425 320 LINE SMOOTH",
"439 320 OFFCURVE",
"449 329 OFFCURVE",
"451 353 CURVE SMOOTH",
"452 368 LINE SMOOTH",
"453 387 OFFCURVE",
"447 396 OFFCURVE",
"433 396 CURVE SMOOTH",
"389 396 LINE"
);
},
{
closed = 1;
nodes = (
"409 624 LINE",
"489 624 LINE SMOOTH",
"503 624 OFFCURVE",
"513 633 OFFCURVE",
"515 657 CURVE SMOOTH",
"516 672 LINE SMOOTH",
"517 691 OFFCURVE",
"511 700 OFFCURVE",
"497 700 CURVE SMOOTH",
"416 700 LINE"
);
},
{
closed = 1;
nodes = (
"416 700 LINE",
"145 700 LINE SMOOTH",
"124 700 OFFCURVE",
"114 691 OFFCURVE",
"112 669 CURVE SMOOTH",
"45 29 LINE SMOOTH",
"43 7 OFFCURVE",
"53 0 OFFCURVE",
"72 0 CURVE SMOOTH",
"352 0 LINE",
"359 76 LINE",
"138 76 LINE",
"163 320 LINE",
"382 320 LINE",
"389 396 LINE",
"171 396 LINE",
"195 624 LINE",
"409 624 LINE"
);
}
);
};
color = -1;
layerId = UUID0;
paths = (
{
closed = 1;
nodes = (
"425 0 LINE SMOOTH",
"439 0 OFFCURVE",
"449 9 OFFCURVE",
"451 33 CURVE SMOOTH",
"452 48 LINE SMOOTH",
"453 67 OFFCURVE",
"447 76 OFFCURVE",
"433 76 CURVE SMOOTH",
"138 76 LINE",
"163 320 LINE",
"425 320 LINE SMOOTH",
"439 320 OFFCURVE",
"449 329 OFFCURVE",
"451 353 CURVE SMOOTH",
"452 368 LINE SMOOTH",
"453 387 OFFCURVE",
"447 396 OFFCURVE",
"433 396 CURVE SMOOTH",
"171 396 LINE",
"195 624 LINE",
"489 624 LINE SMOOTH",
"503 624 OFFCURVE",
"513 633 OFFCURVE",
"515 657 CURVE SMOOTH",
"516 672 LINE SMOOTH",
"517 691 OFFCURVE",
"511 700 OFFCURVE",
"497 700 CURVE SMOOTH",
"145 700 LINE SMOOTH",
"124 700 OFFCURVE",
"114 691 OFFCURVE",
"112 669 CURVE SMOOTH",
"45 29 LINE SMOOTH",
"43 7 OFFCURVE",
"53 0 OFFCURVE",
"72 0 CURVE SMOOTH"
);
}
);
width = 546;
},
{
anchors = (
{
name = bottom;
position = "{262, 0}";
},
{
name = ogonek;
position = "{473, 0}";
},
{
name = top;
position = "{327, 700}";
}
);
background = {
paths = (
{
closed = 1;
nodes = (
"338 0 LINE",
"442 0 LINE SMOOTH",
"463 0 OFFCURVE",
"477 15 OFFCURVE",
"481 60 CURVE SMOOTH",
"482 71 LINE SMOOTH",
"486 116 OFFCURVE",
"477 131 OFFCURVE",
"456 131 CURVE SMOOTH",
"352 131 LINE"
);
},
{
closed = 1;
nodes = (
"370 293 LINE",
"444 293 LINE SMOOTH",
"465 293 OFFCURVE",
"479 308 OFFCURVE",
"483 353 CURVE SMOOTH",
"484 364 LINE SMOOTH",
"488 409 OFFCURVE",
"479 424 OFFCURVE",
"458 424 CURVE SMOOTH",
"384 424 LINE"
);
},
{
closed = 1;
nodes = (
"399 569 LINE",
"500 569 LINE SMOOTH",
"521 569 OFFCURVE",
"535 584 OFFCURVE",
"539 629 CURVE SMOOTH",
"540 640 LINE SMOOTH",
"544 685 OFFCURVE",
"535 700 OFFCURVE",
"514 700 CURVE SMOOTH",
"413 700 LINE"
);
},
{
closed = 1;
nodes = (
"413 700 LINE",
"149 700 LINE SMOOTH",
"121 700 OFFCURVE",
"108 688 OFFCURVE",
"105 660 CURVE SMOOTH",
"41 37 LINE SMOOTH",
"38 8 OFFCURVE",
"49 0 OFFCURVE",
"76 0 CURVE SMOOTH",
"338 0 LINE",
"352 131 LINE",
"204 131 LINE",
"222 293 LINE",
"370 293 LINE",
"384 424 LINE",
"235 424 LINE",
"251 569 LINE",
"399 569 LINE"
);
}
);
};
color = -1;
layerId = "DE974D70-A5B4-43AB-B940-69E4F08CB641";
paths = (
{
closed = 1;
nodes = (
"442 0 LINE SMOOTH",
"463 0 OFFCURVE",
"477 15 OFFCURVE",
"481 60 CURVE SMOOTH",
"482 71 LINE SMOOTH",
"486 116 OFFCURVE",
"477 131 OFFCURVE",
"456 131 CURVE SMOOTH",
"204 131 LINE",
"222 293 LINE",
"444 293 LINE SMOOTH",
"465 293 OFFCURVE",
"479 308 OFFCURVE",
"483 353 CURVE SMOOTH",
"484 364 LINE SMOOTH",
"488 409 OFFCURVE",
"479 424 OFFCURVE",
"458 424 CURVE SMOOTH",
"235 424 LINE",
"251 569 LINE",
"500 569 LINE SMOOTH",
"521 569 OFFCURVE",
"535 584 OFFCURVE",
"539 629 CURVE SMOOTH",
"540 640 LINE SMOOTH",
"544 685 OFFCURVE",
"535 700 OFFCURVE",
"514 700 CURVE SMOOTH",
"149 700 LINE SMOOTH",
"121 700 OFFCURVE",
"108 688 OFFCURVE",
"105 660 CURVE SMOOTH",
"41 37 LINE SMOOTH",
"38 8 OFFCURVE",
"49 0 OFFCURVE",
"76 0 CURVE SMOOTH"
);
}
);
width = 546;
}
);
leftKerningGroup = H;
rightKerningGroup = E;
unicode = 0045;
},
{
glyphname = F;
layers = (
{
anchors = (
{
name = bottom;
position = "{91, -2}";
},
{
name = top;
position = "{298, 700}";
}
);
background = {
paths = (
{
closed = 1;
nodes = (
"95 -2 LINE SMOOTH",
"120 -2 OFFCURVE",
"135 6 OFFCURVE",
"137 20 CURVE SMOOTH",
"168 320 LINE",
"418 320 LINE SMOOTH",
"432 320 OFFCURVE",
"442 329 OFFCURVE",
"444 353 CURVE SMOOTH",
"445 368 LINE SMOOTH",
"446 387 OFFCURVE",
"440 396 OFFCURVE",
"426 396 CURVE SMOOTH",
"176 396 LINE",
"200 624 LINE",
"457 624 LINE SMOOTH",
"471 624 OFFCURVE",
"481 633 OFFCURVE",
"483 657 CURVE SMOOTH",
"484 672 LINE SMOOTH",
"485 691 OFFCURVE",
"479 700 OFFCURVE",
"465 700 CURVE SMOOTH",
"150 700 LINE SMOOTH",
"129 700 OFFCURVE",
"119 691 OFFCURVE",
"117 670 CURVE SMOOTH",
"49 20 LINE SMOOTH",
"48 6 OFFCURVE",
"57 -2 OFFCURVE",
"87 -2 CURVE SMOOTH"
);
}
);
};
color = -1;
layerId = UUID0;
paths = (
{
closed = 1;
nodes = (
"95 -2 LINE SMOOTH",
"120 -2 OFFCURVE",
"136 6 OFFCURVE",
"137 20 CURVE SMOOTH",
"166 300 LINE",
"416 300 LINE SMOOTH",
"430 300 OFFCURVE",
"440 309 OFFCURVE",
"442 333 CURVE SMOOTH",
"443 348 LINE SMOOTH",
"444 367 OFFCURVE",
"438 376 OFFCURVE",
"424 376 CURVE SMOOTH",
"174 376 LINE",
"200 624 LINE",
"457 624 LINE SMOOTH",
"471 624 OFFCURVE",
"481 633 OFFCURVE",
"483 657 CURVE SMOOTH",
"484 672 LINE SMOOTH",
"485 691 OFFCURVE",
"479 700 OFFCURVE",
"465 700 CURVE SMOOTH",
"150 700 LINE SMOOTH",
"129 700 OFFCURVE",
"119 691 OFFCURVE",
"117 670 CURVE SMOOTH",
"49 20 LINE SMOOTH",
"48 6 OFFCURVE",
"57 -2 OFFCURVE",
"87 -2 CURVE SMOOTH"
);
}
);
width = 503;
},
{
anchors = (
{
name = bottom;
position = "{115, 0}";
},
{
name = top;
position = "{298, 700}";
}
);
background = {
paths = (
{
closed = 1;
nodes = (
"134 -2 LINE SMOOTH",
"173 -2 OFFCURVE",
"195 9 OFFCURVE",
"197 30 CURVE SMOOTH",
"225 292 LINE",
"437 292 LINE SMOOTH",
"458 292 OFFCURVE",
"472 307 OFFCURVE",
"476 352 CURVE SMOOTH",
"477 363 LINE SMOOTH",
"481 408 OFFCURVE",
"472 423 OFFCURVE",
"451 423 CURVE SMOOTH",
"238 423 LINE",
"254 569 LINE",
"473 569 LINE SMOOTH",
"494 569 OFFCURVE",
"508 584 OFFCURVE",
"512 629 CURVE SMOOTH",
"513 640 LINE SMOOTH",
"517 685 OFFCURVE",
"508 700 OFFCURVE",
"487 700 CURVE SMOOTH",
"152 700 LINE SMOOTH",
"124 700 OFFCURVE",
"111 688 OFFCURVE",
"108 660 CURVE SMOOTH",
"42 32 LINE SMOOTH",
"39 0 OFFCURVE",
"82 -2 OFFCURVE",
"99 -2 CURVE SMOOTH"
);
}
);
};
color = -1;
layerId = "DE974D70-A5B4-43AB-B940-69E4F08CB641";
paths = (
{
closed = 1;
nodes = (
"134 -2 LINE SMOOTH",
"173 -2 OFFCURVE",
"195 9 OFFCURVE",
"197 30 CURVE SMOOTH",
"223 272 LINE",
"435 272 LINE SMOOTH",
"456 272 OFFCURVE",
"470 287 OFFCURVE",
"474 332 CURVE SMOOTH",
"475 343 LINE SMOOTH",
"479 388 OFFCURVE",
"470 403 OFFCURVE",
"449 403 CURVE SMOOTH",
"236 403 LINE",
"254 569 LINE",
"473 569 LINE SMOOTH",
"494 569 OFFCURVE",
"508 584 OFFCURVE",
"512 629 CURVE SMOOTH",
"513 640 LINE SMOOTH",
"517 685 OFFCURVE",
"508 700 OFFCURVE",
"487 700 CURVE SMOOTH",
"152 700 LINE SMOOTH",
"124 700 OFFCURVE",
"111 688 OFFCURVE",
"108 660 CURVE SMOOTH",
"42 32 LINE SMOOTH",
"39 0 OFFCURVE",
"82 -2 OFFCURVE",
"99 -2 CURVE SMOOTH"
);
}
);
width = 503;
}
);
leftKerningGroup = H;
rightKerningGroup = F;
unicode = 0046;
},
{
glyphname = G;
layers = (
{
anchors = (
{
name = bottom;
position = "{336, 0}";
},
{
name = top;
position = "{396, 700}";
}
);
color = -1;
layerId = UUID0;
paths = (
{
closed = 1;
nodes = (
"442 -6 OFFCURVE",
"553 10 OFFCURVE",
"559 66 CURVE SMOOTH",
"587 334 LINE SMOOTH",
"589 353 OFFCURVE",
"579 361 OFFCURVE",
"560 361 CURVE SMOOTH",
"385 361 LINE SMOOTH",
"371 361 OFFCURVE",
"361 352 OFFCURVE",
"359 328 CURVE SMOOTH",
"358 313 LINE SMOOTH",
"357 294 OFFCURVE",
"363 285 OFFCURVE",
"377 285 CURVE SMOOTH",
"494 285 LINE",
"472 83 LINE",
"445 76 OFFCURVE",
"394 70 OFFCURVE",
"342 70 CURVE SMOOTH",
"190 70 OFFCURVE",
"144 165 OFFCURVE",
"144 288 CURVE SMOOTH",
"144 501 OFFCURVE",
"228 630 OFFCURVE",
"404 630 CURVE SMOOTH",
"506 630 OFFCURVE",
"551 586 OFFCURVE",
"562 586 CURVE SMOOTH",
"575 586 OFFCURVE",
"602 629 OFFCURVE",
"602 645 CURVE SMOOTH",
"602 672 OFFCURVE",
"515 706 OFFCURVE",
"418 706 CURVE SMOOTH",
"196 706 OFFCURVE",
"52 572 OFFCURVE",
"52 275 CURVE SMOOTH",
"52 84 OFFCURVE",
"149 -6 OFFCURVE",
"328 -6 CURVE SMOOTH"
);
}
);
width = 672;
},
{
anchors = (
{
name = bottom;
position = "{336, 0}";
},
{
name = top;
position = "{397, 700}";
}
);
color = -1;
layerId = "DE974D70-A5B4-43AB-B940-69E4F08CB641";
paths = (
{
closed = 1;
nodes = (
"406 -8 OFFCURVE",
"570 2 OFFCURVE",
"577 71 CURVE SMOOTH",
"607 353 LINE SMOOTH",
"610 381 OFFCURVE",
"598 389 OFFCURVE",
"571 389 CURVE SMOOTH",
"369 389 LINE SMOOTH",
"348 389 OFFCURVE",
"334 374 OFFCURVE",
"330 329 CURVE SMOOTH",
"329 318 LINE SMOOTH",
"325 273 OFFCURVE",
"334 258 OFFCURVE",
"355 258 CURVE SMOOTH",
"442 258 LINE",
"428 130 LINE",
"401 125 OFFCURVE",
"378 123 OFFCURVE",
"350 123 CURVE SMOOTH",
"249 123 OFFCURVE",
"200 183 OFFCURVE",
"200 298 CURVE SMOOTH",
"200 483 OFFCURVE",
"271 576 OFFCURVE",
"399 576 CURVE SMOOTH",
"495 576 OFFCURVE",
"532 544 OFFCURVE",
"544 544 CURVE SMOOTH",
"569 544 OFFCURVE",
"619 613 OFFCURVE",
"619 640 CURVE SMOOTH",
"619 681 OFFCURVE",
"502 708 OFFCURVE",
"416 708 CURVE SMOOTH",
"175 708 OFFCURVE",
"41 565 OFFCURVE",
"41 276 CURVE SMOOTH",
"41 82 OFFCURVE",
"136 -8 OFFCURVE",
"336 -8 CURVE SMOOTH"
);
}
);
width = 672;
}
);
leftKerningGroup = O;
rightKerningGroup = G;
unicode = 0047;
},
{
glyphname = H;
layers = (
{
anchors = (
{
name = bottom;
position = "{340, 2}";
},
{
name = center;
position = "{394, 522}";
},
{
name = top;
position = "{412, 700}";
}
);
color = -1;
layerId = UUID0;
paths = (
{
closed = 1;
nodes = (
"119 -2 LINE SMOOTH",
"145 -2 OFFCURVE",
"160 6 OFFCURVE",
"161 20 CURVE SMOOTH",
"192 321 LINE",
"554 321 LINE",
"523 20 LINE SMOOTH",
"522 6 OFFCURVE",
"531 -2 OFFCURVE",
"561 -2 CURVE SMOOTH",
"569 -2 LINE SMOOTH",
"595 -2 OFFCURVE",
"610 6 OFFCURVE",
"611 20 CURVE SMOOTH",
"680 680 LINE SMOOTH",
"681 694 OFFCURVE",
"671 702 OFFCURVE",
"642 702 CURVE SMOOTH",
"634 702 LINE SMOOTH",
"605 702 OFFCURVE",
"593 694 OFFCURVE",
"592 680 CURVE SMOOTH",
"562 397 LINE",
"200 397 LINE",
"230 680 LINE SMOOTH",
"231 694 OFFCURVE",
"221 702 OFFCURVE",
"192 702 CURVE SMOOTH",
"184 702 LINE SMOOTH",
"156 702 OFFCURVE",
"143 694 OFFCURVE",
"142 680 CURVE SMOOTH",
"73 20 LINE SMOOTH",
"72 6 OFFCURVE",
"81 -2 OFFCURVE",
"111 -2 CURVE SMOOTH"
);
}
);
width = 733;
},
{
anchors = (
{
name = bottom;
position = "{352, 0}";
},
{
name = center;
position = "{393, 523}";
},
{
name = top;
position = "{410, 700}";
}
);
color = -1;
layerId = "DE974D70-A5B4-43AB-B940-69E4F08CB641";
paths = (
{
closed = 1;
nodes = (
"145 -2 LINE SMOOTH",
"184 -2 OFFCURVE",
"206 9 OFFCURVE",
"208 30 CURVE SMOOTH",
"235 291 LINE",
"505 291 LINE",
"478 34 LINE SMOOTH",
"475 0 OFFCURVE",
"518 -2 OFFCURVE",
"535 -2 CURVE SMOOTH",
"570 -2 LINE SMOOTH",
"609 -2 OFFCURVE",
"631 9 OFFCURVE",
"633 30 CURVE SMOOTH",
"700 671 LINE SMOOTH",
"703 700 OFFCURVE",
"660 702 OFFCURVE",
"643 702 CURVE SMOOTH",
"608 702 LINE SMOOTH",
"569 702 OFFCURVE",
"547 691 OFFCURVE",
"545 670 CURVE SMOOTH",
"519 423 LINE",
"249 423 LINE",
"275 671 LINE SMOOTH",
"278 700 OFFCURVE",
"235 702 OFFCURVE",
"218 702 CURVE SMOOTH",
"183 702 LINE SMOOTH",
"144 702 OFFCURVE",
"122 691 OFFCURVE",
"120 670 CURVE SMOOTH",
"54 34 LINE SMOOTH",
"50 0 OFFCURVE",
"93 -2 OFFCURVE",
"110 -2 CURVE SMOOTH"
);
}
);
width = 733;
}
);
leftKerningGroup = H;
rightKerningGroup = H;
unicode = 0048;
},
{
glyphname = I;
layers = (
{
anchors = (
{
name = bottom;
position = "{101, 0}";
},
{
name = ogonek;
position = "{158, 0}";
},
{
name = top;
position = "{180, 700}";
}
);
color = -1;
layerId = UUID0;
paths = (
{
closed = 1;
nodes = (
"119 -2 LINE SMOOTH",
"145 -2 OFFCURVE",
"160 6 OFFCURVE",
"161 20 CURVE SMOOTH",
"230 680 LINE",
"230 694 OFFCURVE",
"221 702 OFFCURVE",
"192 702 CURVE SMOOTH",
"184 702 LINE SMOOTH",
"156 702 OFFCURVE",
"143 694 OFFCURVE",
"142 680 CURVE SMOOTH",
"74 21 LINE SMOOTH",
"72 6 OFFCURVE",
"81 -2 OFFCURVE",
"111 -2 CURVE SMOOTH"
);
}
);
width = 283;
},
{
anchors = (
{
name = bottom;
position = "{113, 0}";
},
{
name = ogonek;
position = "{179, 0}";
},
{
name = top;
position = "{191, 700}";
}
);
color = -1;
layerId = "DE974D70-A5B4-43AB-B940-69E4F08CB641";
paths = (
{
closed = 1;
nodes = (
"132 -2 LINE SMOOTH",
"171 -2 OFFCURVE",
"193 9 OFFCURVE",
"195 30 CURVE SMOOTH",
"262 671 LINE",
"262 700 OFFCURVE",
"222 702 OFFCURVE",
"205 702 CURVE SMOOTH",
"170 702 LINE SMOOTH",
"131 702 OFFCURVE",
"109 691 OFFCURVE",
"107 670 CURVE SMOOTH",
"40 29 LINE",
"40 0 OFFCURVE",
"80 -2 OFFCURVE",
"97 -2 CURVE SMOOTH"
);
}
);
width = 283;
}
);
leftKerningGroup = H;
rightKerningGroup = H;
unicode = 0049;
},
{
glyphname = J;
layers = (
{
anchors = (
{
name = top;
position = "{308, 702}";
}
);
color = -1;
layerId = UUID0;
paths = (
{
closed = 1;
nodes = (
"224 -6 OFFCURVE",
"291 79 OFFCURVE",
"304 205 CURVE SMOOTH",
"354 680 LINE",
"354 694 OFFCURVE",
"345 702 OFFCURVE",
"316 702 CURVE SMOOTH",
"308 702 LINE SMOOTH",
"279 702 OFFCURVE",
"267 694 OFFCURVE",
"266 680 CURVE SMOOTH",
"215 201 LINE SMOOTH",
"206 115 OFFCURVE",
"163 76 OFFCURVE",
"70 76 CURVE SMOOTH",
"30 76 OFFCURVE",
"13 85 OFFCURVE",
"4 85 CURVE SMOOTH",
"-5 85 OFFCURVE",
"-11 70 OFFCURVE",
"-11 26 CURVE SMOOTH",
"-11 1 OFFCURVE",
"34 -6 OFFCURVE",
"77 -6 CURVE SMOOTH"
);
}
);
width = 402;
},
{
anchors = (
{
name = top;
position = "{290, 700}";
}
);
color = -1;
layerId = "DE974D70-A5B4-43AB-B940-69E4F08CB641";
paths = (
{
closed = 1;
nodes = (
"228 -8 OFFCURVE",
"299 75 OFFCURVE",
"313 202 CURVE SMOOTH",
"363 671 LINE SMOOTH",
"366 700 OFFCURVE",
"323 702 OFFCURVE",
"306 702 CURVE SMOOTH",
"271 702 LINE SMOOTH",
"232 702 OFFCURVE",
"210 691 OFFCURVE",
"208 670 CURVE SMOOTH",
"161 227 LINE SMOOTH",
"153 154 OFFCURVE",
"126 123 OFFCURVE",
"66 123 CURVE SMOOTH",
"22 123 OFFCURVE",
"17 132 OFFCURVE",
"3 132 CURVE SMOOTH",
"-4 132 OFFCURVE",
"-17 121 OFFCURVE",
"-17 35 CURVE SMOOTH",
"-17 -2 OFFCURVE",
"39 -8 OFFCURVE",
"79 -8 CURVE SMOOTH"
);
}
);
width = 402;
}
);
leftKerningGroup = J;
rightKerningGroup = J;
unicode = 004A;
},
{
glyphname = K;
layers = (
{
anchors = (
{
name = bottom;
position = "{260, 0}";
},
{
name = top;
position = "{315, 700}";
}
);
color = -1;
layerId = UUID0;
paths = (
{
closed = 1;
nodes = (
"90 -2 LINE SMOOTH",
"115 -2 OFFCURVE",
"130 6 OFFCURVE",
"132 20 CURVE SMOOTH",
"165 333 LINE",
"169 333 LINE",
"421 11 LINE SMOOTH",
"430 0 OFFCURVE",
"446 -2 OFFCURVE",
"475 -2 CURVE SMOOTH",
"482 -2 LINE SMOOTH",
"513 -2 OFFCURVE",
"526 1 OFFCURVE",
"527 12 CURVE SMOOTH",
"527 16 OFFCURVE",
"526 20 OFFCURVE",
"520 28 CURVE SMOOTH",
"259 360 LINE",
"537 669 LINE SMOOTH",
"545 677 OFFCURVE",
"549 684 OFFCURVE",
"549 690 CURVE SMOOTH",
"549 696 OFFCURVE",
"538 702 OFFCURVE",
"515 702 CURVE SMOOTH",
"505 702 LINE SMOOTH",
"483 702 OFFCURVE",
"460 699 OFFCURVE",
"450 688 CURVE SMOOTH",
"173 374 LINE",
"169 374 LINE",
"201 680 LINE",
"201 694 OFFCURVE",
"192 702 OFFCURVE",
"163 702 CURVE SMOOTH",
"155 702 LINE SMOOTH",
"127 702 OFFCURVE",
"114 694 OFFCURVE",
"113 680 CURVE SMOOTH",
"44 20 LINE",
"44 6 OFFCURVE",
"52 -2 OFFCURVE",
"82 -2 CURVE SMOOTH"
);
}
);
width = 576;
},
{
anchors = (
{
name = bottom;
position = "{270, 0}";
},
{
name = top;
position = "{340, 700}";
}
);
color = -1;
layerId = "DE974D70-A5B4-43AB-B940-69E4F08CB641";
paths = (
{
closed = 1;
nodes = (
"127 -2 LINE SMOOTH",
"169 -2 OFFCURVE",
"188 9 OFFCURVE",
"190 30 CURVE SMOOTH",
"220 320 LINE",
"224 321 LINE",
"381 17 LINE SMOOTH",
"388 2 OFFCURVE",
"408 -2 OFFCURVE",
"440 -2 CURVE SMOOTH",
"498 -2 LINE SMOOTH",
"542 -2 OFFCURVE",
"555 5 OFFCURVE",
"555 16 CURVE SMOOTH",
"555 20 OFFCURVE",
"553 26 OFFCURVE",
"549 34 CURVE SMOOTH",
"366 370 LINE",
"590 666 LINE SMOOTH",
"597 675 OFFCURVE",
"600 683 OFFCURVE",
"600 688 CURVE SMOOTH",
"600 696 OFFCURVE",
"583 702 OFFCURVE",
"545 702 CURVE SMOOTH",
"498 702 LINE SMOOTH",
"469 702 OFFCURVE",
"447 698 OFFCURVE",
"436 683 CURVE SMOOTH",
"233 401 LINE",
"229 402 LINE",
"257 670 LINE",
"257 691 OFFCURVE",
"243 702 OFFCURVE",
"200 702 CURVE SMOOTH",
"165 702 LINE SMOOTH",
"123 702 OFFCURVE",
"104 691 OFFCURVE",
"102 670 CURVE SMOOTH",
"35 30 LINE",
"35 9 OFFCURVE",
"49 -2 OFFCURVE",
"92 -2 CURVE SMOOTH"
);
}
);
width = 576;
}
);
leftKerningGroup = H;
rightKerningGroup = K;
unicode = 004B;
},
{
glyphname = L;
layers = (
{
anchors = (
{
name = bottom;
position = "{242, 0}";
},
{
name = center;
position = "{366, 335}";
},
{
name = top;
position = "{168, 702}";
},
{
name = topright;
position = "{356, 700}";
}
);
color = -1;
layerId = UUID0;
paths = (
{
closed = 1;
nodes = (
"424 0 LINE SMOOTH",
"438 0 OFFCURVE",
"448 9 OFFCURVE",
"450 33 CURVE SMOOTH",
"451 48 LINE SMOOTH",
"452 67 OFFCURVE",
"446 76 OFFCURVE",
"432 76 CURVE SMOOTH",
"143 76 LINE",
"206 680 LINE SMOOTH",
"207 694 OFFCURVE",
"197 702 OFFCURVE",
"168 702 CURVE SMOOTH",
"160 702 LINE SMOOTH",
"132 702 OFFCURVE",
"119 694 OFFCURVE",
"118 680 CURVE SMOOTH",
"50 30 LINE SMOOTH",
"48 9 OFFCURVE",
"55 0 OFFCURVE",
"77 0 CURVE SMOOTH"
);
}
);
width = 484;
},
{
anchors = (
{
name = bottom;
position = "{218, 0}";
},
{
name = center;
position = "{379, 335}";
},
{
name = top;
position = "{184, 700}";
},
{
name = topright;
position = "{366, 702}";
}
);
color = -1;
layerId = "DE974D70-A5B4-43AB-B940-69E4F08CB641";
paths = (
{
closed = 1;
nodes = (
"410 0 LINE SMOOTH",
"431 0 OFFCURVE",
"445 15 OFFCURVE",
"449 60 CURVE SMOOTH",
"450 71 LINE SMOOTH",
"454 116 OFFCURVE",
"445 131 OFFCURVE",
"424 131 CURVE SMOOTH",
"201 131 LINE",
"258 671 LINE SMOOTH",
"261 700 OFFCURVE",
"218 702 OFFCURVE",
"201 702 CURVE SMOOTH",
"166 702 LINE SMOOTH",
"127 702 OFFCURVE",
"105 691 OFFCURVE",
"103 670 CURVE SMOOTH",
"36 34 LINE SMOOTH",
"33 8 OFFCURVE",
"45 0 OFFCURVE",
"72 0 CURVE SMOOTH"
);
}
);
width = 484;
}
);
leftKerningGroup = H;
rightKerningGroup = L;
unicode = 004C;
},
{
glyphname = LJ;
layers = (
{
background = {
paths = (
{
closed = 1;
nodes = (
"162 702 LINE SMOOTH",
"134 702 OFFCURVE",
"121 694 OFFCURVE",
"120 680 CURVE SMOOTH",
"51 30 LINE SMOOTH",
"49 9 OFFCURVE",
"57 0 OFFCURVE",
"78 0 CURVE SMOOTH",
"341 0 LINE SMOOTH",
"355 0 OFFCURVE",
"362 9 OFFCURVE",
"364 30 CURVE SMOOTH",
"366 46 LINE SMOOTH",
"368 67 OFFCURVE",
"363 76 OFFCURVE",
"349 76 CURVE SMOOTH",
"144 76 LINE",
"208 680 LINE SMOOTH",
"209 694 OFFCURVE",
"198 702 OFFCURVE",
"170 702 CURVE SMOOTH"
);
},
{
closed = 1;
nodes = (
"610 702 LINE SMOOTH",
"582 702 OFFCURVE",
"569 694 OFFCURVE",
"568 680 CURVE SMOOTH",
"501 45 LINE SMOOTH",
"492 -41 OFFCURVE",
"447 -78 OFFCURVE",
"348 -78 CURVE SMOOTH",
"316 -78 OFFCURVE",
"294 -69 OFFCURVE",
"286 -69 CURVE SMOOTH",
"270 -69 OFFCURVE",
"259 -120 OFFCURVE",
"258 -124 CURVE SMOOTH",
"255 -151 OFFCURVE",
"318 -156 OFFCURVE",
"356 -156 CURVE SMOOTH",
"510 -156 OFFCURVE",
"577 -71 OFFCURVE",
"590 55 CURVE SMOOTH",
"656 680 LINE SMOOTH",
"657 694 OFFCURVE",
"646 702 OFFCURVE",
"618 702 CURVE SMOOTH"
);
}
);
};
color = -1;
layerId = UUID0;
paths = (
{
closed = 1;
nodes = (
"160 702 LINE SMOOTH",
"132 702 OFFCURVE",
"119 694 OFFCURVE",
"118 680 CURVE SMOOTH",
"50 30 LINE",
"50 9 OFFCURVE",
"55 0 OFFCURVE",
"77 0 CURVE SMOOTH",
"342 0 LINE SMOOTH",
"367 0 OFFCURVE",
"367 31 OFFCURVE",
"367 54 CURVE SMOOTH",
"367 69 OFFCURVE",
"362 76 OFFCURVE",
"350 76 CURVE SMOOTH",
"143 76 LINE",
"206 680 LINE",
"206 694 OFFCURVE",
"197 702 OFFCURVE",
"168 702 CURVE SMOOTH"
);
},
{
closed = 1;
nodes = (
"611 702 LINE SMOOTH",
"582 702 OFFCURVE",
"570 694 OFFCURVE",
"569 680 CURVE SMOOTH",
"502 48 LINE SMOOTH",
"493 -38 OFFCURVE",
"450 -77 OFFCURVE",
"357 -77 CURVE SMOOTH",
"317 -77 OFFCURVE",
"300 -68 OFFCURVE",
"291 -68 CURVE SMOOTH",
"282 -68 OFFCURVE",
"276 -83 OFFCURVE",
"276 -127 CURVE SMOOTH",
"276 -152 OFFCURVE",
"321 -159 OFFCURVE",
"364 -159 CURVE SMOOTH",
"511 -159 OFFCURVE",
"578 -74 OFFCURVE",
"591 52 CURVE SMOOTH",
"657 680 LINE",
"657 694 OFFCURVE",
"648 702 OFFCURVE",
"619 702 CURVE SMOOTH"
);
}
);
width = 718;
},
{
background = {
paths = (
{
closed = 1;
nodes = (
"166 702 LINE SMOOTH",
"124 702 OFFCURVE",
"105 691 OFFCURVE",
"103 670 CURVE SMOOTH",
"37 40 LINE SMOOTH",
"34 12 OFFCURVE",
"45 0 OFFCURVE",
"73 0 CURVE SMOOTH",
"340 0 LINE SMOOTH",
"361 0 OFFCURVE",
"371 15 OFFCURVE",
"375 50 CURVE SMOOTH",
"378 81 LINE SMOOTH",
"382 116 OFFCURVE",
"374 131 OFFCURVE",
"353 131 CURVE SMOOTH",
"200 131 LINE",
"257 670 LINE SMOOTH",
"259 691 OFFCURVE",
"242 702 OFFCURVE",
"200 702 CURVE SMOOTH"
);
},
{
closed = 1;
nodes = (
"602 703 LINE SMOOTH",
"560 703 OFFCURVE",
"541 691 OFFCURVE",
"539 670 CURVE SMOOTH",
"474 54 LINE SMOOTH",
"467 -19 OFFCURVE",
"439 -50 OFFCURVE",
"379 -50 CURVE SMOOTH",
"347 -50 OFFCURVE",
"334 -42 OFFCURVE",
"324 -42 CURVE",
"293 -45 OFFCURVE",
"275 -117 OFFCURVE",
"273 -135 CURVE SMOOTH",
"269 -178 OFFCURVE",
"369 -181 OFFCURVE",
"393 -181 CURVE SMOOTH",
"542 -181 OFFCURVE",
"615 -85 OFFCURVE",
"628 42 CURVE SMOOTH",
"694 670 LINE SMOOTH",
"696 691 OFFCURVE",
"679 703 OFFCURVE",
"637 703 CURVE SMOOTH"
);
}
);
};
color = -1;
layerId = "DE974D70-A5B4-43AB-B940-69E4F08CB641";
paths = (
{
closed = 1;
nodes = (
"166 702 LINE SMOOTH",
"127 702 OFFCURVE",
"105 691 OFFCURVE",
"103 670 CURVE SMOOTH",
"36 32 LINE",
"36 8 OFFCURVE",
"45 0 OFFCURVE",
"72 0 CURVE SMOOTH",
"342 0 LINE SMOOTH",
"371 0 OFFCURVE",
"380 39 OFFCURVE",
"380 91 CURVE SMOOTH",
"380 119 OFFCURVE",
"372 131 OFFCURVE",
"354 131 CURVE SMOOTH",
"201 131 LINE",
"258 671 LINE",
"258 700 OFFCURVE",
"218 702 OFFCURVE",
"201 702 CURVE SMOOTH"
);
},
{
closed = 1;
nodes = (
"604 702 LINE SMOOTH",
"565 702 OFFCURVE",
"543 691 OFFCURVE",
"541 670 CURVE SMOOTH",
"474 53 LINE SMOOTH",
"466 -20 OFFCURVE",
"439 -51 OFFCURVE",
"379 -51 CURVE SMOOTH",
"335 -51 OFFCURVE",
"324 -42 OFFCURVE",
"316 -42 CURVE SMOOTH",
"309 -42 OFFCURVE",
"296 -53 OFFCURVE",
"296 -139 CURVE SMOOTH",
"296 -176 OFFCURVE",
"352 -182 OFFCURVE",
"392 -182 CURVE SMOOTH",
"541 -182 OFFCURVE",
"612 -99 OFFCURVE",
"626 28 CURVE SMOOTH",
"696 671 LINE",
"696 700 OFFCURVE",
"656 702 OFFCURVE",
"639 702 CURVE SMOOTH"
);
}
);
width = 718;
}
);
leftKerningGroup = H;
rightKerningGroup = J;
unicode = 01C7;
},
{
glyphname = Lslash;
layers = (
{
background = {
paths = (
{
closed = 1;
nodes = (
"3 304 OFFCURVE",
"8 306 OFFCURVE",
"12 308 CURVE SMOOTH",
"307 474 LINE SMOOTH",
"313 478 OFFCURVE",
"314 482 OFFCURVE",
"315 492 CURVE SMOOTH",
"316 502 LINE SMOOTH",
"317 511 OFFCURVE",
"316 517 OFFCURVE",
"311 517 CURVE SMOOTH",
"308 517 OFFCURVE",
"302 514 OFFCURVE",
"298 512 CURVE SMOOTH",
"17 354 LINE SMOOTH",
"3 346 OFFCURVE",
"-3 342 OFFCURVE",
"-4 330 CURVE SMOOTH",
"-5 318 LINE SMOOTH",
"-6 309 OFFCURVE",
"-4 304 OFFCURVE",
"1 304 CURVE SMOOTH"
);
}
);
};
color = -1;
components = (
{
name = L;
}
);
layerId = UUID0;
paths = (
{
closed = 1;
nodes = (
"-4 232 OFFCURVE",
"1 234 OFFCURVE",
"5 236 CURVE SMOOTH",
"300 402 LINE SMOOTH",
"306 406 OFFCURVE",
"307 410 OFFCURVE",
"308 420 CURVE SMOOTH",
"309 430 LINE SMOOTH",
"310 439 OFFCURVE",
"309 445 OFFCURVE",
"304 445 CURVE SMOOTH",
"301 445 OFFCURVE",
"295 442 OFFCURVE",
"291 440 CURVE SMOOTH",
"10 282 LINE SMOOTH",
"-4 274 OFFCURVE",
"-10 270 OFFCURVE",
"-11 258 CURVE SMOOTH",
"-12 246 LINE SMOOTH",
"-13 237 OFFCURVE",
"-11 232 OFFCURVE",
"-6 232 CURVE SMOOTH"
);
}
);
width = 486;
},
{
color = -1;
components = (
{
name = L;
}
);
layerId = "DE974D70-A5B4-43AB-B940-69E4F08CB641";
paths = (
{
closed = 1;
nodes = (
"23 202 OFFCURVE",
"29 204 OFFCURVE",
"36 208 CURVE SMOOTH",
"321 371 LINE SMOOTH",
"334 378 OFFCURVE",
"342 388 OFFCURVE",
"346 423 CURVE SMOOTH",
"347 433 LINE SMOOTH",
"348 445 OFFCURVE",
"347 453 OFFCURVE",
"339 453 CURVE SMOOTH",
"335 453 OFFCURVE",
"327 450 OFFCURVE",
"306 438 CURVE SMOOTH",
"44 288 LINE SMOOTH",
"21 275 OFFCURVE",
"15 265 OFFCURVE",
"13 245 CURVE SMOOTH",
"12 232 LINE SMOOTH",
"10 210 OFFCURVE",
"12 202 OFFCURVE",
"19 202 CURVE SMOOTH"
);
}
);
width = 486;
}
);
leftKerningGroup = H;
rightKerningGroup = L;
unicode = 0141;
},
{
glyphname = M;
layers = (
{
color = -1;
layerId = UUID0;
paths = (
{
closed = 1;
nodes = (
"110 -2 LINE SMOOTH",
"136 -2 OFFCURVE",
"151 6 OFFCURVE",
"152 20 CURVE SMOOTH",
"201 492 LINE SMOOTH",
"204 521 OFFCURVE",
"205 552 OFFCURVE",
"204 565 CURVE",
"208 567 LINE",
"215 550 OFFCURVE",
"226 526 OFFCURVE",
"233 513 CURVE SMOOTH",
"375 210 LINE SMOOTH",
"380 199 OFFCURVE",
"386 195 OFFCURVE",
"396 195 CURVE SMOOTH",
"436 195 LINE SMOOTH",
"447 195 OFFCURVE",
"454 199 OFFCURVE",
"460 208 CURVE SMOOTH",
"670 518 LINE SMOOTH",
"679 532 OFFCURVE",
"689 547 OFFCURVE",
"696 562 CURVE",
"699 561 LINE",
"697 545 OFFCURVE",
"694 525 OFFCURVE",
"692 509 CURVE SMOOTH",
"641 20 LINE",
"641 6 OFFCURVE",
"649 -2 OFFCURVE",
"679 -2 CURVE SMOOTH",
"686 -2 LINE SMOOTH",
"712 -2 OFFCURVE",
"727 6 OFFCURVE",
"728 20 CURVE SMOOTH",
"797 680 LINE",
"797 694 OFFCURVE",
"788 702 OFFCURVE",
"759 702 CURVE SMOOTH",
"724 702 LINE SMOOTH",
"700 702 OFFCURVE",
"688 695 OFFCURVE",
"681 684 CURVE SMOOTH",
"457 350 LINE SMOOTH",
"447 335 OFFCURVE",
"433 310 OFFCURVE",
"425 293 CURVE",
"421 314 OFFCURVE",
"412 341 OFFCURVE",
"405 356 CURVE SMOOTH",
"251 684 LINE SMOOTH",
"246 695 OFFCURVE",
"234 702 OFFCURVE",
"210 702 CURVE SMOOTH",
"176 702 LINE SMOOTH",
"148 702 OFFCURVE",
"135 694 OFFCURVE",
"134 680 CURVE SMOOTH",
"65 20 LINE",
"65 6 OFFCURVE",
"73 -2 OFFCURVE",
"103 -2 CURVE SMOOTH"
);
}
);
width = 843;
},
{
color = -1;
layerId = "DE974D70-A5B4-43AB-B940-69E4F08CB641";
paths = (
{
closed = 1;
nodes = (
"131 -2 LINE SMOOTH",
"173 -2 OFFCURVE",
"192 9 OFFCURVE",
"194 30 CURVE SMOOTH",
"233 404 LINE SMOOTH",
"235 419 OFFCURVE",
"235 436 OFFCURVE",
"236 451 CURVE",
"240 452 LINE",
"246 438 OFFCURVE",
"252 422 OFFCURVE",
"258 408 CURVE SMOOTH",
"357 190 LINE SMOOTH",
"365 173 OFFCURVE",
"378 167 OFFCURVE",
"397 167 CURVE SMOOTH",
"426 167 LINE SMOOTH",
"445 167 OFFCURVE",
"460 173 OFFCURVE",
"468 186 CURVE SMOOTH",
"617 411 LINE SMOOTH",
"625 422 OFFCURVE",
"632 434 OFFCURVE",
"640 445 CURVE",
"644 444 LINE",
"642 428 OFFCURVE",
"641 413 OFFCURVE",
"639 397 CURVE SMOOTH",
"602 35 LINE SMOOTH",
"599 9 OFFCURVE",
"615 -2 OFFCURVE",
"658 -2 CURVE SMOOTH",
"687 -2 LINE SMOOTH",
"729 -2 OFFCURVE",
"748 9 OFFCURVE",
"750 30 CURVE SMOOTH",
"817 670 LINE SMOOTH",
"819 691 OFFCURVE",
"803 702 OFFCURVE",
"760 702 CURVE SMOOTH",
"707 702 LINE SMOOTH",
"678 702 OFFCURVE",
"655 695 OFFCURVE",
"642 675 CURVE SMOOTH",
"452 394 LINE SMOOTH",
"443 381 OFFCURVE",
"434 363 OFFCURVE",
"431 352 CURVE",
"429 362 OFFCURVE",
"423 381 OFFCURVE",
"416 395 CURVE SMOOTH",
"288 675 LINE SMOOTH",
"279 695 OFFCURVE",
"256 702 OFFCURVE",
"227 702 CURVE SMOOTH",
"175 702 LINE SMOOTH",
"133 702 OFFCURVE",
"114 691 OFFCURVE",
"112 670 CURVE SMOOTH",
"46 35 LINE SMOOTH",
"43 9 OFFCURVE",
"59 -2 OFFCURVE",
"102 -2 CURVE SMOOTH"
);
}
);
width = 843;
}
);
leftKerningGroup = H;
rightKerningGroup = H;
unicode = 004D;
},
{
glyphname = N;
layers = (
{
anchors = (
{
name = bottom;
position = "{336, 0}";
},
{
name = top;
position = "{391, 700}";
}
);
color = -1;
layerId = UUID0;
paths = (
{
closed = 1;
nodes = (
"107 -2 LINE SMOOTH",
"133 -2 OFFCURVE",
"148 6 OFFCURVE",
"149 20 CURVE SMOOTH",
"198 484 LINE SMOOTH",
"201 509 OFFCURVE",
"203 542 OFFCURVE",
"202 564 CURVE",
"206 565 LINE",
"211 545 OFFCURVE",
"220 523 OFFCURVE",
"249 472 CURVE SMOOTH",
"511 12 LINE SMOOTH",
"516 3 OFFCURVE",
"526 -2 OFFCURVE",
"545 -2 CURVE SMOOTH",
"565 -2 LINE SMOOTH",
"591 -2 OFFCURVE",
"606 6 OFFCURVE",
"607 20 CURVE SMOOTH",
"676 680 LINE",
"676 694 OFFCURVE",
"667 702 OFFCURVE",
"638 702 CURVE SMOOTH",
"631 702 LINE SMOOTH",
"603 702 OFFCURVE",
"590 694 OFFCURVE",
"589 680 CURVE SMOOTH",
"542 232 LINE SMOOTH",
"538 190 OFFCURVE",
"537 169 OFFCURVE",
"537 146 CURVE",
"533 145 LINE",
"525 164 OFFCURVE",
"519 183 OFFCURVE",
"481 250 CURVE SMOOTH",
"234 683 LINE SMOOTH",
"226 697 OFFCURVE",
"216 702 OFFCURVE",
"194 702 CURVE SMOOTH",
"173 702 LINE SMOOTH",
"145 702 OFFCURVE",
"132 694 OFFCURVE",
"131 680 CURVE SMOOTH",
"62 20 LINE",
"62 6 OFFCURVE",
"70 -2 OFFCURVE",
"100 -2 CURVE SMOOTH"
);
}
);
width = 719;
},
{
anchors = (
{
name = bottom;
position = "{341, 0}";
},
{
name = top;
position = "{396, 700}";
}
);
color = -1;
layerId = "DE974D70-A5B4-43AB-B940-69E4F08CB641";
paths = (
{
closed = 1;
nodes = (
"131 -2 LINE SMOOTH",
"173 -2 OFFCURVE",
"192 9 OFFCURVE",
"194 30 CURVE SMOOTH",
"227 355 LINE SMOOTH",
"231 390 OFFCURVE",
"231 417 OFFCURVE",
"229 438 CURVE",
"236 441 LINE",
"240 431 OFFCURVE",
"244 422 OFFCURVE",
"262 388 CURVE SMOOTH",
"461 25 LINE SMOOTH",
"474 2 OFFCURVE",
"496 -2 OFFCURVE",
"525 -2 CURVE SMOOTH",
"563 -2 LINE SMOOTH",
"605 -2 OFFCURVE",
"624 9 OFFCURVE",
"626 30 CURVE SMOOTH",
"693 670 LINE",
"693 691 OFFCURVE",
"679 702 OFFCURVE",
"636 702 CURVE SMOOTH",
"607 702 LINE SMOOTH",
"565 702 OFFCURVE",
"546 691 OFFCURVE",
"544 670 CURVE SMOOTH",
"513 378 LINE SMOOTH",
"508 332 OFFCURVE",
"507 293 OFFCURVE",
"508 267 CURVE",
"501 265 LINE",
"500 271 OFFCURVE",
"493 286 OFFCURVE",
"473 323 CURVE SMOOTH",
"282 675 LINE SMOOTH",
"269 698 OFFCURVE",
"247 702 OFFCURVE",
"218 702 CURVE SMOOTH",
"175 702 LINE SMOOTH",
"133 702 OFFCURVE",
"114 691 OFFCURVE",
"112 670 CURVE SMOOTH",
"45 30 LINE",
"45 9 OFFCURVE",
"59 -2 OFFCURVE",
"102 -2 CURVE SMOOTH"
);
}
);
width = 719;
}
);
leftKerningGroup = H;
rightKerningGroup = H;
unicode = 004E;
},
{
glyphname = Eng;
layers = (
{
background = {
paths = (
{
closed = 1;
nodes = (
"631 702 LINE SMOOTH",
"603 702 OFFCURVE",
"590 694 OFFCURVE",
"589 680 CURVE SMOOTH",
"533 145 LINE",
"509 201 LINE",
"234 683 LINE SMOOTH",
"226 697 OFFCURVE",
"216 702 OFFCURVE",
"194 702 CURVE SMOOTH",
"173 702 LINE SMOOTH",
"145 702 OFFCURVE",
"132 694 OFFCURVE",
"131 680 CURVE SMOOTH",
"62 20 LINE",
"62 6 OFFCURVE",
"70 -2 OFFCURVE",
"100 -2 CURVE SMOOTH",
"107 -2 LINE SMOOTH",
"133 -2 OFFCURVE",
"148 6 OFFCURVE",
"149 20 CURVE SMOOTH",
"206 561 LINE",
"227 510 LINE",
"537 -33 LINE",
"607 20 LINE",
"676 680 LINE",
"676 694 OFFCURVE",
"667 702 OFFCURVE",
"638 702 CURVE SMOOTH"
);
},
{
closed = 1;
nodes = (
"107 -2 LINE SMOOTH",
"133 -2 OFFCURVE",
"148 6 OFFCURVE",
"149 20 CURVE SMOOTH",
"198 484 LINE SMOOTH",
"201 509 OFFCURVE",
"203 542 OFFCURVE",
"202 564 CURVE",
"206 565 LINE",
"211 545 OFFCURVE",
"220 523 OFFCURVE",
"249 472 CURVE SMOOTH",
"511 12 LINE SMOOTH",
"516 3 OFFCURVE",
"526 -2 OFFCURVE",
"545 -2 CURVE SMOOTH",
"565 -2 LINE SMOOTH",
"591 -2 OFFCURVE",
"606 6 OFFCURVE",
"607 20 CURVE SMOOTH",
"676 680 LINE",
"676 694 OFFCURVE",
"667 702 OFFCURVE",
"638 702 CURVE SMOOTH",
"631 702 LINE SMOOTH",
"603 702 OFFCURVE",
"590 694 OFFCURVE",
"589 680 CURVE SMOOTH",
"542 232 LINE SMOOTH",
"538 190 OFFCURVE",
"537 169 OFFCURVE",
"537 146 CURVE",
"533 145 LINE",
"525 164 OFFCURVE",
"519 183 OFFCURVE",
"481 250 CURVE SMOOTH",
"234 683 LINE SMOOTH",
"226 697 OFFCURVE",
"216 702 OFFCURVE",
"194 702 CURVE SMOOTH",
"173 702 LINE SMOOTH",
"145 702 OFFCURVE",
"132 694 OFFCURVE",
"131 680 CURVE SMOOTH",
"62 20 LINE",
"62 6 OFFCURVE",
"70 -2 OFFCURVE",
"100 -2 CURVE SMOOTH"
);
}
);
};
color = -1;
layerId = UUID0;
paths = (
{
closed = 1;
nodes = (
"516 -212 OFFCURVE",
"585 -191 OFFCURVE",
"597 -74 CURVE SMOOTH",
"675 677 LINE SMOOTH",
"677 694 OFFCURVE",
"667 702 OFFCURVE",
"638 702 CURVE SMOOTH",
"631 702 LINE SMOOTH",
"603 702 OFFCURVE",
"590 694 OFFCURVE",
"589 680 CURVE SMOOTH",
"542 232 LINE SMOOTH",
"538 190 OFFCURVE",
"537 169 OFFCURVE",
"537 146 CURVE",
"533 145 LINE",
"525 164 OFFCURVE",
"519 183 OFFCURVE",
"481 250 CURVE SMOOTH",
"234 683 LINE SMOOTH",
"226 697 OFFCURVE",
"216 702 OFFCURVE",
"194 702 CURVE SMOOTH",
"173 702 LINE SMOOTH",
"145 702 OFFCURVE",
"132 694 OFFCURVE",
"131 680 CURVE SMOOTH",
"63 25 LINE SMOOTH",
"61 6 OFFCURVE",
"70 -2 OFFCURVE",
"100 -2 CURVE SMOOTH",
"107 -2 LINE SMOOTH",
"133 -2 OFFCURVE",
"148 6 OFFCURVE",
"149 20 CURVE SMOOTH",
"198 484 LINE SMOOTH",
"201 509 OFFCURVE",
"203 542 OFFCURVE",
"202 564 CURVE",
"206 565 LINE",
"211 545 OFFCURVE",
"220 523 OFFCURVE",
"249 472 CURVE SMOOTH",
"521 -4 LINE",
"514 -66 LINE SMOOTH",
"507 -127 OFFCURVE",
"485 -140 OFFCURVE",
"454 -140 CURVE SMOOTH",
"419 -140 OFFCURVE",
"406 -123 OFFCURVE",
"398 -123 CURVE SMOOTH",
"393 -123 OFFCURVE",
"387 -129 OFFCURVE",
"387 -171 CURVE SMOOTH",
"387 -195 OFFCURVE",
"419 -212 OFFCURVE",
"465 -212 CURVE SMOOTH"
);
}
);
width = 719;
},
{
background = {
paths = (
{
closed = 1;
nodes = (
"131 -2 LINE SMOOTH",
"173 -2 OFFCURVE",
"192 9 OFFCURVE",
"194 30 CURVE SMOOTH",
"227 355 LINE SMOOTH",
"231 390 OFFCURVE",
"231 417 OFFCURVE",
"229 438 CURVE",
"236 441 LINE",
"240 431 OFFCURVE",
"244 422 OFFCURVE",
"262 388 CURVE SMOOTH",
"461 25 LINE",
"626 30 LINE",
"693 670 LINE",
"693 691 OFFCURVE",
"679 702 OFFCURVE",
"636 702 CURVE SMOOTH",
"607 702 LINE SMOOTH",
"565 702 OFFCURVE",
"546 691 OFFCURVE",
"544 670 CURVE SMOOTH",
"513 378 LINE SMOOTH",
"508 332 OFFCURVE",
"507 293 OFFCURVE",
"508 267 CURVE",
"501 265 LINE",
"500 271 OFFCURVE",
"493 286 OFFCURVE",
"473 323 CURVE SMOOTH",
"282 675 LINE SMOOTH",
"269 698 OFFCURVE",
"247 702 OFFCURVE",
"218 702 CURVE SMOOTH",
"175 702 LINE SMOOTH",
"133 702 OFFCURVE",
"114 691 OFFCURVE",
"112 670 CURVE SMOOTH",
"45 30 LINE",
"45 9 OFFCURVE",
"59 -2 OFFCURVE",
"102 -2 CURVE SMOOTH"
);
}
);
};
color = -1;
layerId = "DE974D70-A5B4-43AB-B940-69E4F08CB641";
paths = (
{
closed = 1;
nodes = (
"551 -212 OFFCURVE",
"608 -150 OFFCURVE",
"618 -50 CURVE SMOOTH",
"693 670 LINE",
"693 691 OFFCURVE",
"679 702 OFFCURVE",
"636 702 CURVE SMOOTH",
"607 702 LINE SMOOTH",
"565 702 OFFCURVE",
"546 691 OFFCURVE",
"544 670 CURVE SMOOTH",
"513 378 LINE SMOOTH",
"508 332 OFFCURVE",
"507 293 OFFCURVE",
"508 267 CURVE",
"501 265 LINE",
"500 271 OFFCURVE",
"493 286 OFFCURVE",
"473 323 CURVE SMOOTH",
"282 675 LINE SMOOTH",
"269 698 OFFCURVE",
"247 702 OFFCURVE",
"218 702 CURVE SMOOTH",
"175 702 LINE SMOOTH",
"133 702 OFFCURVE",
"114 691 OFFCURVE",
"112 670 CURVE SMOOTH",
"45 30 LINE",
"45 9 OFFCURVE",
"59 -2 OFFCURVE",
"102 -2 CURVE SMOOTH",
"131 -2 LINE SMOOTH",
"173 -2 OFFCURVE",
"192 9 OFFCURVE",
"194 30 CURVE SMOOTH",
"227 355 LINE SMOOTH",
"231 390 OFFCURVE",
"231 417 OFFCURVE",
"229 438 CURVE",
"236 441 LINE",
"240 431 OFFCURVE",
"244 421 OFFCURVE",
"262 388 CURVE SMOOTH",
"480 -11 LINE",
"475 -52 LINE SMOOTH",
"471 -82 OFFCURVE",
"458 -95 OFFCURVE",
"430 -95 CURVE SMOOTH",
"410 -95 OFFCURVE",
"400 -90 OFFCURVE",
"395 -90 CURVE SMOOTH",
"386 -90 OFFCURVE",
"377 -110 OFFCURVE",
"377 -173 CURVE SMOOTH",
"377 -211 OFFCURVE",
"425 -212 OFFCURVE",
"455 -212 CURVE SMOOTH"
);
}
);
width = 719;
}
);
leftKerningGroup = H;
rightKerningGroup = H;
unicode = 014A;
},
{
glyphname = Nhookleft;
layers = (
{
layerId = "DE974D70-A5B4-43AB-B940-69E4F08CB641";
paths = (
{
closed = 1;
nodes = (
"111 -212 OFFCURVE",
"180 -129 OFFCURVE",
"191 -2 CURVE SMOOTH",
"227 355 LINE SMOOTH",
"231 390 OFFCURVE",
"231 417 OFFCURVE",
"229 438 CURVE",
"236 441 LINE",
"240 431 OFFCURVE",
"244 422 OFFCURVE",
"262 388 CURVE SMOOTH",
"461 25 LINE SMOOTH",
"474 2 OFFCURVE",
"496 -2 OFFCURVE",
"525 -2 CURVE SMOOTH",
"563 -2 LINE SMOOTH",
"605 -2 OFFCURVE",
"624 9 OFFCURVE",
"626 30 CURVE SMOOTH",
"693 670 LINE",
"693 691 OFFCURVE",
"679 702 OFFCURVE",
"636 702 CURVE SMOOTH",
"607 702 LINE SMOOTH",
"565 702 OFFCURVE",
"546 691 OFFCURVE",
"544 670 CURVE SMOOTH",
"513 378 LINE SMOOTH",
"508 332 OFFCURVE",
"507 293 OFFCURVE",
"508 267 CURVE",
"501 265 LINE",
"500 271 OFFCURVE",
"493 286 OFFCURVE",
"473 323 CURVE SMOOTH",
"282 675 LINE SMOOTH",
"269 698 OFFCURVE",
"247 702 OFFCURVE",
"218 702 CURVE SMOOTH",
"175 702 LINE SMOOTH",
"133 702 OFFCURVE",
"114 691 OFFCURVE",
"112 670 CURVE SMOOTH",
"44 23 LINE SMOOTH",
"37 -50 OFFCURVE",
"13 -81 OFFCURVE",
"-41 -81 CURVE SMOOTH",
"-75 -81 OFFCURVE",
"-80 -72 OFFCURVE",
"-94 -72 CURVE SMOOTH",
"-101 -72 OFFCURVE",
"-114 -83 OFFCURVE",
"-114 -169 CURVE SMOOTH",
"-114 -206 OFFCURVE",
"-58 -212 OFFCURVE",
"-28 -212 CURVE SMOOTH"
);
}
);
width = 719;
},
{
layerId = UUID0;
paths = (
{
closed = 1;
nodes = (
"75 -212 OFFCURVE",
"136 -127 OFFCURVE",
"148 -1 CURVE SMOOTH",
"198 484 LINE SMOOTH",
"201 509 OFFCURVE",
"203 542 OFFCURVE",
"202 564 CURVE",
"206 565 LINE",
"211 545 OFFCURVE",
"220 523 OFFCURVE",
"249 472 CURVE SMOOTH",
"511 12 LINE SMOOTH",
"516 3 OFFCURVE",
"526 -2 OFFCURVE",
"545 -2 CURVE SMOOTH",
"565 -2 LINE SMOOTH",
"591 -2 OFFCURVE",
"606 6 OFFCURVE",
"607 20 CURVE SMOOTH",
"676 680 LINE",
"676 694 OFFCURVE",
"667 702 OFFCURVE",
"638 702 CURVE SMOOTH",
"631 702 LINE SMOOTH",
"603 702 OFFCURVE",
"590 694 OFFCURVE",
"589 680 CURVE SMOOTH",
"542 232 LINE SMOOTH",
"538 190 OFFCURVE",
"537 169 OFFCURVE",
"537 146 CURVE",
"533 145 LINE",
"525 164 OFFCURVE",
"519 183 OFFCURVE",
"481 250 CURVE SMOOTH",
"234 683 LINE SMOOTH",
"226 697 OFFCURVE",
"216 702 OFFCURVE",
"194 702 CURVE SMOOTH",
"173 702 LINE SMOOTH",
"145 702 OFFCURVE",
"132 694 OFFCURVE",
"131 680 CURVE SMOOTH",
"59 -5 LINE SMOOTH",
"51 -91 OFFCURVE",
"14 -130 OFFCURVE",
"-66 -130 CURVE SMOOTH",
"-96 -130 OFFCURVE",
"-113 -121 OFFCURVE",
"-122 -121 CURVE SMOOTH",
"-131 -121 OFFCURVE",
"-137 -136 OFFCURVE",
"-137 -180 CURVE SMOOTH",
"-137 -205 OFFCURVE",
"-92 -212 OFFCURVE",
"-59 -212 CURVE SMOOTH"
);
}
);
width = 719;
}
);
leftKerningGroup = H;
rightKerningGroup = H;
unicode = 019D;
},
{
glyphname = O;
layers = (
{
anchors = (
{
name = bottom;
position = "{347, 0}";
},
{
name = horn;
position = "{503, 682}";
},
{
name = ogonek;
position = "{404, 0}";
},
{
name = top;
position = "{393, 700}";
}
);
color = -1;
layerId = UUID0;
paths = (
{
closed = 1;
nodes = (
"560 -6 OFFCURVE",
"687 142 OFFCURVE",
"687 386 CURVE SMOOTH",
"687 609 OFFCURVE",
"573 706 OFFCURVE",
"402 706 CURVE SMOOTH",
"138 706 OFFCURVE",
"62 516 OFFCURVE",
"62 312 CURVE SMOOTH",
"62 95 OFFCURVE",
"167 -6 OFFCURVE",
"345 -6 CURVE SMOOTH"
);
},
{
closed = 1;
nodes = (
"229 70 OFFCURVE",
"153 147 OFFCURVE",
"153 324 CURVE SMOOTH",
"153 515 OFFCURVE",
"233 630 OFFCURVE",
"394 630 CURVE SMOOTH",
"518 630 OFFCURVE",
"595 555 OFFCURVE",
"595 379 CURVE SMOOTH",
"595 187 OFFCURVE",
"504 70 OFFCURVE",
"352 70 CURVE SMOOTH"
);
}
);
width = 731;
},
{
anchors = (
{
name = bottom;
position = "{352, 0}";
},
{
name = horn;
position = "{517, 682}";
},
{
name = ogonek;
position = "{423, 0}";
},
{
name = top;
position = "{407, 720}";
}
);
color = -1;
guideLines = (
{
angle = 82.9328;
position = "{444.714, 637.354}";
showMeasurement = 1;
}
);
layerId = "DE974D70-A5B4-43AB-B940-69E4F08CB641";
paths = (
{
closed = 1;
nodes = (
"580 -8 OFFCURVE",
"699 143 OFFCURVE",
"699 378 CURVE SMOOTH",
"699 604 OFFCURVE",
"580 708 OFFCURVE",
"403 708 CURVE SMOOTH",
"125 708 OFFCURVE",
"51 505 OFFCURVE",
"51 311 CURVE SMOOTH",
"51 97 OFFCURVE",
"162 -8 OFFCURVE",
"352 -8 CURVE SMOOTH"
);
},
{
closed = 1;
nodes = (
"268 123 OFFCURVE",
"210 186 OFFCURVE",
"210 329 CURVE SMOOTH",
"210 479 OFFCURVE",
"273 576 OFFCURVE",
"389 576 CURVE SMOOTH",
"485 576 OFFCURVE",
"541 510 OFFCURVE",
"541 370 CURVE SMOOTH",
"541 219 OFFCURVE",
"476 123 OFFCURVE",
"361 123 CURVE SMOOTH"
);
}
);
width = 731;
}
);
leftKerningGroup = O;
rightKerningGroup = O;
unicode = 004F;
},
{
glyphname = Ohorn;
layers = (
{
anchors = (
{
name = bottom;
position = "{347, 0}";
},
{
name = ogonek;
position = "{403, 0}";
},
{
name = top;
position = "{393, 700}";
}
);
background = {
paths = (
{
closed = 1;
nodes = (
"560 -6 OFFCURVE",
"687 142 OFFCURVE",
"687 386 CURVE SMOOTH",
"687 609 OFFCURVE",
"581 706 OFFCURVE",
"402 706 CURVE SMOOTH",
"138 706 OFFCURVE",
"62 496 OFFCURVE",
"62 312 CURVE SMOOTH",
"62 95 OFFCURVE",
"167 -6 OFFCURVE",
"345 -6 CURVE SMOOTH"
);
},
{
closed = 1;
nodes = (
"229 70 OFFCURVE",
"153 147 OFFCURVE",
"153 324 CURVE SMOOTH",
"153 515 OFFCURVE",
"241 630 OFFCURVE",
"394 630 CURVE SMOOTH",
"518 630 OFFCURVE",
"595 555 OFFCURVE",
"595 379 CURVE SMOOTH",
"595 187 OFFCURVE",
"504 70 OFFCURVE",
"352 70 CURVE SMOOTH"
);
}
);
};
color = -1;
layerId = UUID0;
paths = (
{
closed = 1;
nodes = (
"560 -6 OFFCURVE",
"687 142 OFFCURVE",
"687 386 CURVE SMOOTH",
"687 527 OFFCURVE",
"643 606 OFFCURVE",
"590 650 CURVE",
"651 650 OFFCURVE",
"690 687 OFFCURVE",
"690 746 CURVE SMOOTH",
"690 774 OFFCURVE",
"678 813 OFFCURVE",
"655 813 CURVE SMOOTH",
"647 813 OFFCURVE",
"640 808 OFFCURVE",
"635 805 CURVE SMOOTH",
"624 798 LINE SMOOTH",
"616 793 OFFCURVE",
"606 786 OFFCURVE",
"606 777 CURVE SMOOTH",
"606 764 OFFCURVE",
"627 746 OFFCURVE",
"627 721 CURVE SMOOTH",
"627 695 OFFCURVE",
"605 682 OFFCURVE",
"573 682 CURVE SMOOTH",
"556 682 OFFCURVE",
"535 686 OFFCURVE",
"513 691 CURVE SMOOTH",
"473 700 OFFCURVE",
"443 706 OFFCURVE",
"402 706 CURVE SMOOTH",
"138 706 OFFCURVE",
"62 496 OFFCURVE",
"62 312 CURVE SMOOTH",
"62 95 OFFCURVE",
"167 -6 OFFCURVE",
"345 -6 CURVE SMOOTH"
);
},
{
closed = 1;
nodes = (
"229 70 OFFCURVE",
"153 147 OFFCURVE",
"153 324 CURVE SMOOTH",
"153 515 OFFCURVE",
"241 630 OFFCURVE",
"394 630 CURVE SMOOTH",
"521 630 OFFCURVE",
"595 555 OFFCURVE",
"595 379 CURVE SMOOTH",
"595 187 OFFCURVE",
"503 70 OFFCURVE",
"352 70 CURVE SMOOTH"
);
}
);
width = 731;
},
{
anchors = (
{
name = bottom;
position = "{352, 0}";
},
{
name = ogonek;
position = "{423, 0}";
},
{
name = top;
position = "{397, 700}";
}
);
background = {
paths = (
{
closed = 1;
nodes = (
"580 -8 OFFCURVE",
"699 143 OFFCURVE",
"699 378 CURVE SMOOTH",
"699 604 OFFCURVE",
"589 708 OFFCURVE",
"403 708 CURVE SMOOTH",
"143 708 OFFCURVE",
"51 505 OFFCURVE",
"51 311 CURVE SMOOTH",
"51 97 OFFCURVE",
"162 -8 OFFCURVE",
"352 -8 CURVE SMOOTH"
);
},
{
closed = 1;
nodes = (
"268 123 OFFCURVE",
"210 186 OFFCURVE",
"210 329 CURVE SMOOTH",
"210 479 OFFCURVE",
"273 576 OFFCURVE",
"389 576 CURVE SMOOTH",
"485 576 OFFCURVE",
"541 510 OFFCURVE",
"541 370 CURVE SMOOTH",
"541 219 OFFCURVE",
"476 123 OFFCURVE",
"361 123 CURVE SMOOTH"
);
}
);
};
color = -1;
layerId = "DE974D70-A5B4-43AB-B940-69E4F08CB641";
paths = (
{
closed = 1;
nodes = (
"580 -8 OFFCURVE",
"699 143 OFFCURVE",
"699 378 CURVE SMOOTH",
"699 509 OFFCURVE",
"661 594 OFFCURVE",
"607 641 CURVE",
"674 641 OFFCURVE",
"717 678 OFFCURVE",
"717 737 CURVE SMOOTH",
"717 763 OFFCURVE",
"705 816 OFFCURVE",
"678 816 CURVE SMOOTH",
"667 816 OFFCURVE",
"657 808 OFFCURVE",
"655 807 CURVE SMOOTH",
"635 794 LINE SMOOTH",
"627 789 OFFCURVE",
"615 780 OFFCURVE",
"615 770 CURVE SMOOTH",
"615 756 OFFCURVE",
"636 743 OFFCURVE",
"636 719 CURVE SMOOTH",
"636 694 OFFCURVE",
"612 682 OFFCURVE",
"581 682 CURVE SMOOTH",
"559 682 OFFCURVE",
"536 688 OFFCURVE",
"513 693 CURVE SMOOTH",
"475 702 OFFCURVE",
"444 708 OFFCURVE",
"403 708 CURVE SMOOTH",
"143 708 OFFCURVE",
"51 505 OFFCURVE",
"51 311 CURVE SMOOTH",
"51 97 OFFCURVE",
"162 -8 OFFCURVE",
"352 -8 CURVE SMOOTH"
);
},
{
closed = 1;
nodes = (
"268 123 OFFCURVE",
"210 186 OFFCURVE",
"210 327 CURVE SMOOTH",
"210 480 OFFCURVE",
"279 576 OFFCURVE",
"391 576 CURVE SMOOTH",
"483 576 OFFCURVE",
"541 510 OFFCURVE",
"541 370 CURVE SMOOTH",
"541 219 OFFCURVE",
"475 123 OFFCURVE",
"361 123 CURVE SMOOTH"
);
}
);
width = 731;
}
);
leftKerningGroup = O;
rightKerningGroup = Ohorn;
unicode = 01A0;
},
{
glyphname = Oslash;
layers = (
{
anchors = (
{
name = top;
position = "{406, 700}";
}
);
color = -1;
components = (
{
name = O;
}
);
layerId = UUID0;
paths = (
{
closed = 1;
nodes = (
"23 1 OFFCURVE",
"28 4 OFFCURVE",
"33 9 CURVE SMOOTH",
"696 669 LINE SMOOTH",
"701 674 OFFCURVE",
"703 678 OFFCURVE",
"703 683 CURVE SMOOTH",
"703 692 OFFCURVE",
"692 702 OFFCURVE",
"683 702 CURVE SMOOTH",
"678 702 OFFCURVE",
"674 700 OFFCURVE",
"669 695 CURVE SMOOTH",
"7 35 LINE SMOOTH",
"2 30 OFFCURVE",
"-1 25 OFFCURVE",
"-1 21 CURVE SMOOTH",
"-1 13 OFFCURVE",
"12 1 OFFCURVE",
"19 1 CURVE SMOOTH"
);
}
);
width = 731;
},
{
anchors = (
{
name = top;
position = "{396, 700}";
}
);
color = -1;
components = (
{
name = O;
}
);
layerId = "DE974D70-A5B4-43AB-B940-69E4F08CB641";
paths = (
{
closed = 1;
nodes = (
"74 -12 OFFCURVE",
"82 -8 OFFCURVE",
"89 0 CURVE SMOOTH",
"672 658 LINE SMOOTH",
"679 666 OFFCURVE",
"682 672 OFFCURVE",
"682 678 CURVE SMOOTH",
"682 695 OFFCURVE",
"647 724 OFFCURVE",
"634 724 CURVE SMOOTH",
"626 724 OFFCURVE",
"620 720 OFFCURVE",
"612 712 CURVE SMOOTH",
"29 54 LINE SMOOTH",
"22 46 OFFCURVE",
"19 40 OFFCURVE",
"19 34 CURVE SMOOTH",
"19 17 OFFCURVE",
"54 -12 OFFCURVE",
"67 -12 CURVE SMOOTH"
);
}
);
width = 731;
}
);
leftKerningGroup = O;
rightKerningGroup = O;
unicode = 00D8;
},
{
glyphname = OE;
layers = (
{
anchors = (
{
name = bottom;
position = "{520, 0}";
},
{
name = top;
position = "{511, 700}";
}
);
background = {
paths = (
{
closed = 1;
nodes = (
"560 -6 OFFCURVE",
"687 142 OFFCURVE",
"687 386 CURVE SMOOTH",
"687 609 OFFCURVE",
"581 706 OFFCURVE",
"402 706 CURVE SMOOTH",
"138 706 OFFCURVE",
"62 496 OFFCURVE",
"62 312 CURVE SMOOTH",
"62 95 OFFCURVE",
"167 -6 OFFCURVE",
"345 -6 CURVE SMOOTH"
);
},
{
closed = 1;
nodes = (
"229 70 OFFCURVE",
"153 147 OFFCURVE",
"153 324 CURVE SMOOTH",
"153 515 OFFCURVE",
"241 630 OFFCURVE",
"394 630 CURVE SMOOTH",
"518 630 OFFCURVE",
"595 555 OFFCURVE",
"595 379 CURVE SMOOTH",
"595 187 OFFCURVE",
"504 70 OFFCURVE",
"352 70 CURVE SMOOTH"
);
}
);
};
color = -1;
layerId = UUID0;
paths = (
{
closed = 1;
nodes = (
"449 -6 OFFCURVE",
"518 33 OFFCURVE",
"574 104 CURVE",
"561 125 LINE",
"551 27 LINE SMOOTH",
"549 7 OFFCURVE",
"559 0 OFFCURVE",
"578 0 CURVE SMOOTH",
"931 0 LINE SMOOTH",
"945 0 OFFCURVE",
"955 9 OFFCURVE",
"957 33 CURVE SMOOTH",
"958 48 LINE SMOOTH",
"959 67 OFFCURVE",
"953 76 OFFCURVE",
"939 76 CURVE SMOOTH",
"644 76 LINE",
"669 320 LINE",
"931 320 LINE SMOOTH",
"945 320 OFFCURVE",
"955 329 OFFCURVE",
"957 353 CURVE SMOOTH",
"958 368 LINE SMOOTH",
"959 387 OFFCURVE",
"953 396 OFFCURVE",
"939 396 CURVE SMOOTH",
"677 396 LINE",
"701 624 LINE",
"995 624 LINE SMOOTH",
"1009 624 OFFCURVE",
"1019 633 OFFCURVE",
"1021 657 CURVE SMOOTH",
"1022 672 LINE SMOOTH",
"1023 691 OFFCURVE",
"1017 700 OFFCURVE",
"1003 700 CURVE SMOOTH",
"651 700 LINE SMOOTH",
"630 700 OFFCURVE",
"621 691 OFFCURVE",
"618 670 CURVE SMOOTH",
"606 573 LINE",
"621 591 LINE",
"591 662 OFFCURVE",
"505 706 OFFCURVE",
"402 706 CURVE SMOOTH",
"138 706 OFFCURVE",
"62 496 OFFCURVE",
"62 312 CURVE SMOOTH",
"62 95 OFFCURVE",
"167 -6 OFFCURVE",
"345 -6 CURVE SMOOTH"
);
},
{
closed = 1;
nodes = (
"229 70 OFFCURVE",
"153 147 OFFCURVE",
"153 324 CURVE SMOOTH",
"153 515 OFFCURVE",
"241 630 OFFCURVE",
"394 630 CURVE SMOOTH",
"512 630 OFFCURVE",
"585 555 OFFCURVE",
"585 379 CURVE SMOOTH",
"585 187 OFFCURVE",
"498 70 OFFCURVE",
"352 70 CURVE SMOOTH"
);
}
);
width = 1015;
},
{
anchors = (
{
name = bottom;
position = "{490, 0}";
},
{
name = top;
position = "{571, 700}";
}
);
background = {
paths = (
{
closed = 1;
nodes = (
"580 -8 OFFCURVE",
"699 143 OFFCURVE",
"699 378 CURVE SMOOTH",
"699 604 OFFCURVE",
"589 708 OFFCURVE",
"403 708 CURVE SMOOTH",
"143 708 OFFCURVE",
"51 505 OFFCURVE",
"51 311 CURVE SMOOTH",
"51 97 OFFCURVE",
"162 -8 OFFCURVE",
"352 -8 CURVE SMOOTH"
);
},
{
closed = 1;
nodes = (
"268 123 OFFCURVE",
"210 186 OFFCURVE",
"210 329 CURVE SMOOTH",
"210 479 OFFCURVE",
"273 576 OFFCURVE",
"389 576 CURVE SMOOTH",
"485 576 OFFCURVE",
"541 510 OFFCURVE",
"541 370 CURVE SMOOTH",
"541 219 OFFCURVE",
"476 123 OFFCURVE",
"361 123 CURVE SMOOTH"
);
}
);
};
color = -1;
layerId = "DE974D70-A5B4-43AB-B940-69E4F08CB641";
paths = (
{
closed = 1;
nodes = (
"427 -8 OFFCURVE",
"473 18 OFFCURVE",
"534 72 CURVE",
"503 108 LINE",
"496 35 LINE SMOOTH",
"493 8 OFFCURVE",
"506 0 OFFCURVE",
"532 0 CURVE SMOOTH",
"899 0 LINE SMOOTH",
"919 0 OFFCURVE",
"934 15 OFFCURVE",
"938 60 CURVE SMOOTH",
"939 71 LINE SMOOTH",
"943 116 OFFCURVE",
"935 131 OFFCURVE",
"913 131 CURVE SMOOTH",
"660 131 LINE",
"678 293 LINE",
"901 293 LINE SMOOTH",
"921 293 OFFCURVE",
"936 308 OFFCURVE",
"940 353 CURVE SMOOTH",
"941 364 LINE SMOOTH",
"945 409 OFFCURVE",
"937 424 OFFCURVE",
"915 424 CURVE SMOOTH",
"691 424 LINE",
"707 569 LINE",
"957 569 LINE SMOOTH",
"977 569 OFFCURVE",
"992 584 OFFCURVE",
"996 629 CURVE SMOOTH",
"997 640 LINE SMOOTH",
"1001 685 OFFCURVE",
"993 700 OFFCURVE",
"971 700 CURVE SMOOTH",
"605 700 LINE SMOOTH",
"576 700 OFFCURVE",
"564 687 OFFCURVE",
"561 658 CURVE SMOOTH",
"553 577 LINE",
"593 628 LINE",
"541 681 OFFCURVE",
"484 708 OFFCURVE",
"393 708 CURVE SMOOTH",
"143 708 OFFCURVE",
"51 525 OFFCURVE",
"51 308 CURVE SMOOTH",
"51 97 OFFCURVE",
"155 -8 OFFCURVE",
"337 -8 CURVE SMOOTH"
);
},
{
closed = 1;
nodes = (
"267 123 OFFCURVE",
"210 186 OFFCURVE",
"210 329 CURVE SMOOTH",
"210 479 OFFCURVE",
"274 576 OFFCURVE",
"386 576 CURVE SMOOTH",
"484 576 OFFCURVE",
"541 502 OFFCURVE",
"541 366 CURVE SMOOTH",
"541 220 OFFCURVE",
"475 123 OFFCURVE",
"360 123 CURVE SMOOTH"
);
}
);
width = 1015;
}
);
leftKerningGroup = O;
rightKerningGroup = E;
unicode = 0152;
},
{
glyphname = P;
layers = (
{
anchors = (
{
name = bottom;
position = "{92, -2}";
},
{
name = top;
position = "{331, 700}";
}
);
color = -1;
layerId = UUID0;
paths = (
{
closed = 1;
nodes = (
"96 -2 LINE SMOOTH",
"125 -2 OFFCURVE",
"137 8 OFFCURVE",
"138 20 CURVE SMOOTH",
"167 298 LINE",
"322 298 LINE SMOOTH",
"471 298 OFFCURVE",
"559 386 OFFCURVE",
"559 519 CURVE SMOOTH",
"559 639 OFFCURVE",
"487 700 OFFCURVE",
"334 700 CURVE SMOOTH",
"151 700 LINE SMOOTH",
"131 700 OFFCURVE",
"120 692 OFFCURVE",
"118 670 CURVE SMOOTH",
"51 25 LINE SMOOTH",
"49 6 OFFCURVE",
"58 -2 OFFCURVE",
"88 -2 CURVE SMOOTH"
);
},
{
closed = 1;
nodes = (
"201 624 LINE",
"323 624 LINE SMOOTH",
"422 624 OFFCURVE",
"467 585 OFFCURVE",
"467 508 CURVE SMOOTH",
"467 428 OFFCURVE",
"418 374 OFFCURVE",
"331 374 CURVE SMOOTH",
"175 374 LINE"
);
}
);
width = 570;
},
{
anchors = (
{
name = bottom;
position = "{110, 0}";
},
{
name = top;
position = "{331, 700}";
}
);
color = -1;
layerId = "DE974D70-A5B4-43AB-B940-69E4F08CB641";
paths = (
{
closed = 1;
nodes = (
"125 -2 LINE SMOOTH",
"167 -2 OFFCURVE",
"186 9 OFFCURVE",
"188 30 CURVE SMOOTH",
"212 262 LINE",
"335 262 LINE SMOOTH",
"494 262 OFFCURVE",
"578 354 OFFCURVE",
"578 501 CURVE SMOOTH",
"578 632 OFFCURVE",
"490 700 OFFCURVE",
"341 700 CURVE SMOOTH",
"144 700 LINE SMOOTH",
"116 700 OFFCURVE",
"103 688 OFFCURVE",
"100 660 CURVE SMOOTH",
"35 33 LINE SMOOTH",
"32 9 OFFCURVE",
"48 -2 OFFCURVE",
"91 -2 CURVE SMOOTH"
);
},
{
closed = 1;
nodes = (
"245 569 LINE",
"321 569 LINE SMOOTH",
"385 569 OFFCURVE",
"419 540 OFFCURVE",
"419 486 CURVE SMOOTH",
"419 433 OFFCURVE",
"389 394 OFFCURVE",
"332 394 CURVE SMOOTH",
"226 394 LINE"
);
}
);
width = 570;
}
);
leftKerningGroup = H;
rightKerningGroup = P;
unicode = 0050;
},
{
glyphname = Thorn;
layers = (
{
background = {
paths = (
{
closed = 1;
nodes = (
"83 -124 LINE SMOOTH",
"112 -124 OFFCURVE",
"124 -114 OFFCURVE",
"125 -102 CURVE SMOOTH",
"154 176 LINE",
"309 176 LINE SMOOTH",
"458 176 OFFCURVE",
"546 264 OFFCURVE",
"546 397 CURVE SMOOTH",
"546 517 OFFCURVE",
"474 578 OFFCURVE",
"321 578 CURVE SMOOTH",
"138 578 LINE SMOOTH",
"118 578 OFFCURVE",
"107 570 OFFCURVE",
"105 548 CURVE SMOOTH",
"38 -97 LINE SMOOTH",
"36 -116 OFFCURVE",
"45 -124 OFFCURVE",
"75 -124 CURVE SMOOTH"
);
},
{
closed = 1;
nodes = (
"188 502 LINE",
"310 502 LINE SMOOTH",
"409 502 OFFCURVE",
"454 463 OFFCURVE",
"454 386 CURVE SMOOTH",
"454 306 OFFCURVE",
"405 252 OFFCURVE",
"318 252 CURVE SMOOTH",
"162 252 LINE"
);
}
);
};
color = -1;
layerId = UUID0;
paths = (
{
closed = 1;
nodes = (
"96 -2 LINE SMOOTH",
"120 -2 OFFCURVE",
"137 6 OFFCURVE",
"138 20 CURVE SMOOTH",
"154 176 LINE",
"309 176 LINE SMOOTH",
"458 176 OFFCURVE",
"546 264 OFFCURVE",
"546 397 CURVE SMOOTH",
"546 517 OFFCURVE",
"474 578 OFFCURVE",
"321 578 CURVE SMOOTH",
"196 578 LINE",
"207 680 LINE",
"207 694 OFFCURVE",
"198 702 OFFCURVE",
"169 702 CURVE SMOOTH",
"161 702 LINE SMOOTH",
"134 702 OFFCURVE",
"120 693 OFFCURVE",
"119 680 CURVE SMOOTH",
"50 20 LINE",
"50 6 OFFCURVE",
"58 -2 OFFCURVE",
"88 -2 CURVE SMOOTH"
);
},
{
closed = 1;
nodes = (
"188 502 LINE",
"310 502 LINE SMOOTH",
"409 502 OFFCURVE",
"454 463 OFFCURVE",
"454 386 CURVE SMOOTH",
"454 306 OFFCURVE",
"405 252 OFFCURVE",
"318 252 CURVE SMOOTH",
"162 252 LINE"
);
}
);
width = 567;
},
{
background = {
anchors = (
{
name = bottom;
position = "{99, -107}";
},
{
name = top;
position = "{320, 593}";
}
);
paths = (
{
closed = 1;
nodes = (
"114 -109 LINE SMOOTH",
"156 -109 OFFCURVE",
"175 -98 OFFCURVE",
"177 -77 CURVE SMOOTH",
"201 155 LINE",
"324 155 LINE SMOOTH",
"483 155 OFFCURVE",
"567 247 OFFCURVE",
"567 394 CURVE SMOOTH",
"567 525 OFFCURVE",
"479 593 OFFCURVE",
"330 593 CURVE SMOOTH",
"133 593 LINE SMOOTH",
"105 593 OFFCURVE",
"92 581 OFFCURVE",
"89 553 CURVE SMOOTH",
"24 -74 LINE SMOOTH",
"22 -98 OFFCURVE",
"37 -109 OFFCURVE",
"80 -109 CURVE SMOOTH"
);
},
{
closed = 1;
nodes = (
"234 462 LINE",
"310 462 LINE SMOOTH",
"336 462 OFFCURVE",
"408 462 OFFCURVE",
"408 379 CURVE SMOOTH",
"408 326 OFFCURVE",
"378 287 OFFCURVE",
"321 287 CURVE SMOOTH",
"215 287 LINE"
);
}
);
};
color = -1;
layerId = "DE974D70-A5B4-43AB-B940-69E4F08CB641";
paths = (
{
closed = 1;
nodes = (
"125 -2 LINE SMOOTH",
"167 -2 OFFCURVE",
"186 9 OFFCURVE",
"188 30 CURVE SMOOTH",
"201 155 LINE",
"324 155 LINE SMOOTH",
"483 155 OFFCURVE",
"567 247 OFFCURVE",
"567 394 CURVE SMOOTH",
"567 524 OFFCURVE",
"479 593 OFFCURVE",
"330 593 CURVE SMOOTH",
"247 593 LINE",
"255 670 LINE",
"255 691 OFFCURVE",
"241 702 OFFCURVE",
"198 702 CURVE SMOOTH",
"164 702 LINE SMOOTH",
"116 702 OFFCURVE",
"103 688 OFFCURVE",
"101 670 CURVE SMOOTH",
"34 30 LINE",
"34 9 OFFCURVE",
"48 -2 OFFCURVE",
"91 -2 CURVE SMOOTH"
);
},
{
closed = 1;
nodes = (
"233 462 LINE",
"310 462 LINE SMOOTH",
"374 462 OFFCURVE",
"408 434 OFFCURVE",
"408 381 CURVE SMOOTH",
"408 326 OFFCURVE",
"377 287 OFFCURVE",
"321 287 CURVE SMOOTH",
"215 287 LINE"
);
}
);
width = 567;
}
);
leftKerningGroup = H;
rightKerningGroup = Thorn;
unicode = 00DE;
},
{
glyphname = Q;
layers = (
{
background = {
paths = (
{
closed = 1;
nodes = (
"138 706 OFFCURVE",
"62 496 OFFCURVE",
"62 312 CURVE SMOOTH",
"62 154 OFFCURVE",
"118 64 OFFCURVE",
"219 15 CURVE SMOOTH",
"323 -35 OFFCURVE",
"614 -157 OFFCURVE",
"631 -157 CURVE SMOOTH",
"642 -157 OFFCURVE",
"652 -147 OFFCURVE",
"652 -82 CURVE SMOOTH",
"652 -71 OFFCURVE",
"650 -66 OFFCURVE",
"640 -62 CURVE",
"446 1 LINE",
"446 5 LINE",
"592 47 OFFCURVE",
"687 172 OFFCURVE",
"687 386 CURVE SMOOTH",
"687 609 OFFCURVE",
"582 706 OFFCURVE",
"402 706 CURVE SMOOTH"
);
},
{
closed = 1;
nodes = (
"518 630 OFFCURVE",
"595 555 OFFCURVE",
"595 379 CURVE SMOOTH",
"595 187 OFFCURVE",
"504 70 OFFCURVE",
"352 70 CURVE SMOOTH",
"229 70 OFFCURVE",
"153 128 OFFCURVE",
"153 314 CURVE SMOOTH",
"153 515 OFFCURVE",
"241 630 OFFCURVE",
"394 630 CURVE SMOOTH"
);
}
);
};
color = -1;
layerId = UUID0;
paths = (
{
closed = 1;
nodes = (
"642 -157 OFFCURVE",
"652 -147 OFFCURVE",
"652 -82 CURVE SMOOTH",
"652 -71 OFFCURVE",
"650 -66 OFFCURVE",
"640 -62 CURVE",
"446 1 LINE",
"446 5 LINE",
"592 47 OFFCURVE",
"687 172 OFFCURVE",
"687 386 CURVE SMOOTH",
"687 609 OFFCURVE",
"582 706 OFFCURVE",
"402 706 CURVE SMOOTH",
"138 706 OFFCURVE",
"62 496 OFFCURVE",
"62 312 CURVE SMOOTH",
"62 154 OFFCURVE",
"118 64 OFFCURVE",
"219 15 CURVE SMOOTH",
"323 -35 OFFCURVE",
"614 -157 OFFCURVE",
"631 -157 CURVE SMOOTH"
);
},
{
closed = 1;
nodes = (
"229 70 OFFCURVE",
"153 128 OFFCURVE",
"153 314 CURVE SMOOTH",
"153 515 OFFCURVE",
"241 630 OFFCURVE",
"394 630 CURVE SMOOTH",
"518 630 OFFCURVE",
"595 555 OFFCURVE",
"595 379 CURVE SMOOTH",
"595 187 OFFCURVE",
"504 70 OFFCURVE",
"352 70 CURVE SMOOTH"
);
}
);
width = 731;
},
{
background = {
paths = (
{
closed = 1;
nodes = (
"143 708 OFFCURVE",
"51 505 OFFCURVE",
"51 311 CURVE SMOOTH",
"51 163 OFFCURVE",
"103 67 OFFCURVE",
"235 7 CURVE SMOOTH",
"406 -70 OFFCURVE",
"625 -162 OFFCURVE",
"635 -162 CURVE SMOOTH",
"646 -162 OFFCURVE",
"664 -155 OFFCURVE",
"664 -54 CURVE SMOOTH",
"664 -40 OFFCURVE",
"660 -31 OFFCURVE",
"647 -27 CURVE SMOOTH",
"496 23 LINE",
"497 27 LINE",
"627 65 OFFCURVE",
"699 193 OFFCURVE",
"699 378 CURVE SMOOTH",
"699 604 OFFCURVE",
"589 708 OFFCURVE",
"403 708 CURVE SMOOTH"
);
},
{
closed = 1;
nodes = (
"485 576 OFFCURVE",
"541 510 OFFCURVE",
"541 370 CURVE SMOOTH",
"541 219 OFFCURVE",
"476 123 OFFCURVE",
"361 123 CURVE SMOOTH",
"267 123 OFFCURVE",
"210 186 OFFCURVE",
"210 329 CURVE SMOOTH",
"210 479 OFFCURVE",
"273 576 OFFCURVE",
"389 576 CURVE SMOOTH"
);
}
);
};
color = -1;
layerId = "DE974D70-A5B4-43AB-B940-69E4F08CB641";
paths = (
{
closed = 1;
nodes = (
"646 -162 OFFCURVE",
"664 -155 OFFCURVE",
"664 -54 CURVE SMOOTH",
"664 -40 OFFCURVE",
"660 -31 OFFCURVE",
"647 -27 CURVE SMOOTH",
"496 23 LINE",
"497 27 LINE",
"627 65 OFFCURVE",
"699 193 OFFCURVE",
"699 378 CURVE SMOOTH",
"699 604 OFFCURVE",
"589 708 OFFCURVE",
"403 708 CURVE SMOOTH",
"143 708 OFFCURVE",
"51 505 OFFCURVE",
"51 311 CURVE SMOOTH",
"51 163 OFFCURVE",
"103 67 OFFCURVE",
"235 7 CURVE SMOOTH",
"406 -70 OFFCURVE",
"625 -162 OFFCURVE",
"635 -162 CURVE SMOOTH"
);
},
{
closed = 1;
nodes = (
"267 123 OFFCURVE",
"210 186 OFFCURVE",
"210 329 CURVE SMOOTH",
"210 479 OFFCURVE",
"273 576 OFFCURVE",
"389 576 CURVE SMOOTH",
"485 576 OFFCURVE",
"541 510 OFFCURVE",
"541 370 CURVE SMOOTH",
"541 219 OFFCURVE",
"476 123 OFFCURVE",
"361 123 CURVE SMOOTH"
);
}
);
width = 731;
}
);
leftKerningGroup = O;
rightKerningGroup = O;
unicode = 0051;
},
{
glyphname = R;
layers = (
{
anchors = (
{
name = bottom;
position = "{300, 0}";
},
{
name = top;
position = "{305, 700}";
}
);
background = {
paths = (
{
closed = 1;
nodes = (
"113 -2 LINE SMOOTH",
"142 -2 OFFCURVE",
"154 8 OFFCURVE",
"155 20 CURVE SMOOTH",
"184 308 LINE",
"319 308 LINE SMOOTH",
"468 308 OFFCURVE",
"556 392 OFFCURVE",
"556 519 CURVE SMOOTH",
"556 639 OFFCURVE",
"484 700 OFFCURVE",
"331 700 CURVE SMOOTH",
"168 700 LINE SMOOTH",
"148 700 OFFCURVE",
"137 692 OFFCURVE",
"135 670 CURVE SMOOTH",
"68 25 LINE SMOOTH",
"66 6 OFFCURVE",
"75 -2 OFFCURVE",
"105 -2 CURVE SMOOTH"
);
},
{
closed = 1;
nodes = (
"218 624 LINE",
"320 624 LINE SMOOTH",
"419 624 OFFCURVE",
"464 585 OFFCURVE",
"464 508 CURVE SMOOTH",
"464 434 OFFCURVE",
"415 384 OFFCURVE",
"328 384 CURVE SMOOTH",
"192 384 LINE"
);
}
);
};
color = -1;
layerId = UUID0;
paths = (
{
closed = 1;
nodes = (
"113 -2 LINE SMOOTH",
"138 -2 OFFCURVE",
"154 6 OFFCURVE",
"155 20 CURVE SMOOTH",
"185 308 LINE",
"275 308 LINE SMOOTH",
"362 308 OFFCURVE",
"392 286 OFFCURVE",
"414 210 CURVE SMOOTH",
"469 14 LINE SMOOTH",
"472 2 OFFCURVE",
"488 -2 OFFCURVE",
"508 -2 CURVE SMOOTH",
"518 -2 LINE SMOOTH",
"551 -2 OFFCURVE",
"562 5 OFFCURVE",
"562 17 CURVE SMOOTH",
"562 20 OFFCURVE",
"561 24 OFFCURVE",
"560 28 CURVE SMOOTH",
"489 260 LINE SMOOTH",
"477 299 OFFCURVE",
"451 329 OFFCURVE",
"423 339 CURVE",
"423 343 LINE",
"504 364 OFFCURVE",
"556 427 OFFCURVE",
"556 519 CURVE SMOOTH",
"556 639 OFFCURVE",
"484 700 OFFCURVE",
"331 700 CURVE SMOOTH",
"168 700 LINE SMOOTH",
"147 700 OFFCURVE",
"137 691 OFFCURVE",
"135 670 CURVE SMOOTH",
"68 24 LINE SMOOTH",
"66 6 OFFCURVE",
"75 -2 OFFCURVE",
"105 -2 CURVE SMOOTH"
);
},
{
closed = 1;
nodes = (
"218 624 LINE",
"320 624 LINE SMOOTH",
"420 624 OFFCURVE",
"464 589 OFFCURVE",
"464 508 CURVE SMOOTH",
"464 434 OFFCURVE",
"415 384 OFFCURVE",
"325 384 CURVE SMOOTH",
"193 384 LINE"
);
}
);
width = 610;
},
{
anchors = (
{
name = bottom;
position = "{303, 0}";
},
{
name = top;
position = "{346, 700}";
}
);
background = {
paths = (
{
closed = 1;
nodes = (
"139 -2 LINE SMOOTH",
"181 -2 OFFCURVE",
"200 9 OFFCURVE",
"202 30 CURVE SMOOTH",
"228 274 LINE",
"351 274 LINE SMOOTH",
"509 274 OFFCURVE",
"592 361 OFFCURVE",
"592 501 CURVE SMOOTH",
"592 632 OFFCURVE",
"504 700 OFFCURVE",
"355 700 CURVE SMOOTH",
"158 700 LINE SMOOTH",
"130 700 OFFCURVE",
"117 688 OFFCURVE",
"114 660 CURVE SMOOTH",
"49 33 LINE SMOOTH",
"47 9 OFFCURVE",
"62 -2 OFFCURVE",
"105 -2 CURVE SMOOTH"
);
},
{
closed = 1;
nodes = (
"259 569 LINE",
"335 569 LINE SMOOTH",
"399 569 OFFCURVE",
"433 540 OFFCURVE",
"433 486 CURVE SMOOTH",
"433 440 OFFCURVE",
"404 406 OFFCURVE",
"348 406 CURVE SMOOTH",
"242 406 LINE"
);
}
);
};
color = -1;
layerId = "DE974D70-A5B4-43AB-B940-69E4F08CB641";
paths = (
{
closed = 1;
nodes = (
"140 -2 LINE SMOOTH",
"182 -2 OFFCURVE",
"201 9 OFFCURVE",
"203 30 CURVE SMOOTH",
"229 274 LINE",
"278 274 LINE SMOOTH",
"330 274 OFFCURVE",
"348 261 OFFCURVE",
"362 214 CURVE SMOOTH",
"421 19 LINE SMOOTH",
"426 3 OFFCURVE",
"447 -2 OFFCURVE",
"477 -2 CURVE SMOOTH",
"518 -2 LINE SMOOTH",
"559 -2 OFFCURVE",
"578 6 OFFCURVE",
"580 18 CURVE",
"580 23 OFFCURVE",
"579 29 OFFCURVE",
"577 37 CURVE SMOOTH",
"519 230 LINE SMOOTH",
"503 285 OFFCURVE",
"479 319 OFFCURVE",
"450 329 CURVE",
"450 333 LINE",
"526 345 OFFCURVE",
"583 420 OFFCURVE",
"583 511 CURVE SMOOTH",
"583 632 OFFCURVE",
"498 700 OFFCURVE",
"355 700 CURVE SMOOTH",
"159 700 LINE SMOOTH",
"131 700 OFFCURVE",
"118 688 OFFCURVE",
"115 660 CURVE SMOOTH",
"50 33 LINE SMOOTH",
"47 9 OFFCURVE",
"63 -2 OFFCURVE",
"106 -2 CURVE SMOOTH"
);
},
{
closed = 1;
nodes = (
"260 569 LINE",
"348 569 LINE SMOOTH",
"397 569 OFFCURVE",
"430 540 OFFCURVE",
"430 486 CURVE SMOOTH",
"430 440 OFFCURVE",
"401 405 OFFCURVE",
"345 406 CURVE SMOOTH",
"243 407 LINE"
);
}
);
width = 610;
}
);
leftKerningGroup = H;
rightKerningGroup = R;
unicode = 0052;
},
{
glyphname = S;
layers = (
{
anchors = (
{
name = bottom;
position = "{233, 0}";
},
{
name = top;
position = "{296, 700}";
}
);
background = {
paths = (
{
closed = 1;
nodes = (
"165 706 OFFCURVE",
"67 622 OFFCURVE",
"67 501 CURVE SMOOTH",
"67 387 OFFCURVE",
"150 353 OFFCURVE",
"227 322 CURVE SMOOTH",
"295 294 OFFCURVE",
"359 269 OFFCURVE",
"359 201 CURVE SMOOTH",
"359 123 OFFCURVE",
"293 70 OFFCURVE",
"214 70 CURVE SMOOTH",
"144 70 OFFCURVE",
"98 94 OFFCURVE",
"73 110 CURVE SMOOTH",
"62 116 OFFCURVE",
"55 121 OFFCURVE",
"52 121 CURVE SMOOTH",
"45 121 OFFCURVE",
"36 111 OFFCURVE",
"36 56 CURVE SMOOTH",
"36 42 OFFCURVE",
"46 31 OFFCURVE",
"63 22 CURVE SMOOTH",
"102 1 OFFCURVE",
"173 -6 OFFCURVE",
"206 -6 CURVE SMOOTH",
"349 -6 OFFCURVE",
"450 79 OFFCURVE",
"450 215 CURVE SMOOTH",
"450 329 OFFCURVE",
"362 366 OFFCURVE",
"283 398 CURVE SMOOTH",
"217 423 OFFCURVE",
"157 445 OFFCURVE",
"157 511 CURVE SMOOTH",
"157 591 OFFCURVE",
"224 630 OFFCURVE",
"299 630 CURVE SMOOTH",
"344 630 OFFCURVE",
"374 618 OFFCURVE",
"394 607 CURVE SMOOTH",
"410 599 OFFCURVE",
"420 592 OFFCURVE",
"426 592 CURVE SMOOTH",
"436 592 OFFCURVE",
"464 633 OFFCURVE",
"464 646 CURVE SMOOTH",
"464 656 OFFCURVE",
"456 666 OFFCURVE",
"443 674 CURVE SMOOTH",
"411 694 OFFCURVE",
"349 706 OFFCURVE",
"309 706 CURVE SMOOTH"
);
}
);
};
color = -1;
layerId = UUID0;
paths = (
{
closed = 1;
nodes = (
"349 -6 OFFCURVE",
"450 79 OFFCURVE",
"450 215 CURVE SMOOTH",
"450 329 OFFCURVE",
"362 366 OFFCURVE",
"283 398 CURVE SMOOTH",
"217 423 OFFCURVE",
"157 445 OFFCURVE",
"157 511 CURVE SMOOTH",
"157 591 OFFCURVE",
"224 630 OFFCURVE",
"299 630 CURVE SMOOTH",
"344 630 OFFCURVE",
"374 618 OFFCURVE",
"394 607 CURVE SMOOTH",
"410 599 OFFCURVE",
"419 592 OFFCURVE",
"426 592 CURVE SMOOTH",
"442 592 OFFCURVE",
"464 633 OFFCURVE",
"464 646 CURVE SMOOTH",
"464 656 OFFCURVE",
"456 666 OFFCURVE",
"443 674 CURVE SMOOTH",
"411 694 OFFCURVE",
"349 706 OFFCURVE",
"309 706 CURVE SMOOTH",
"165 706 OFFCURVE",
"67 622 OFFCURVE",
"67 501 CURVE SMOOTH",
"67 387 OFFCURVE",
"150 353 OFFCURVE",
"227 322 CURVE SMOOTH",
"295 294 OFFCURVE",
"359 269 OFFCURVE",
"359 201 CURVE SMOOTH",
"359 123 OFFCURVE",
"293 70 OFFCURVE",
"214 70 CURVE SMOOTH",
"156 70 OFFCURVE",
"113 86 OFFCURVE",
"85 97 CURVE SMOOTH",
"69 104 OFFCURVE",
"58 109 OFFCURVE",
"52 109 CURVE SMOOTH",
"42 109 OFFCURVE",
"36 106 OFFCURVE",
"36 76 CURVE SMOOTH",
"36 42 OFFCURVE",
"46 31 OFFCURVE",
"63 22 CURVE SMOOTH",
"102 1 OFFCURVE",
"173 -6 OFFCURVE",
"206 -6 CURVE SMOOTH"
);
}
);
width = 500;
},
{
anchors = (
{
name = bottom;
position = "{233, 0}";
},
{
name = top;
position = "{289, 700}";
}
);
background = {
paths = (
{
closed = 1;
nodes = (
"329 -8 OFFCURVE",
"468 41 OFFCURVE",
"468 228 CURVE SMOOTH",
"468 319 OFFCURVE",
"402 379 OFFCURVE",
"313 420 CURVE SMOOTH",
"256 446 OFFCURVE",
"210 464 OFFCURVE",
"210 513 CURVE SMOOTH",
"210 535 OFFCURVE",
"222 576 OFFCURVE",
"309 576 CURVE SMOOTH",
"348 576 OFFCURVE",
"373 568 OFFCURVE",
"391 561 CURVE SMOOTH",
"404 556 OFFCURVE",
"412 551 OFFCURVE",
"418 551 CURVE SMOOTH",
"442 551 OFFCURVE",
"482 614 OFFCURVE",
"482 640 CURVE SMOOTH",
"482 649 OFFCURVE",
"476 659 OFFCURVE",
"465 668 CURVE SMOOTH",
"439 690 OFFCURVE",
"383 708 OFFCURVE",
"309 708 CURVE SMOOTH",
"186 708 OFFCURVE",
"49 654 OFFCURVE",
"49 478 CURVE SMOOTH",
"49 412 OFFCURVE",
"100 337 OFFCURVE",
"167 304 CURVE SMOOTH",
"234 271 OFFCURVE",
"307 254 OFFCURVE",
"307 200 CURVE SMOOTH",
"307 137 OFFCURVE",
"249 123 OFFCURVE",
"206 123 CURVE SMOOTH",
"162 123 OFFCURVE",
"127 136 OFFCURVE",
"101 149 CURVE SMOOTH",
"77 161 OFFCURVE",
"60 173 OFFCURVE",
"52 173 CURVE SMOOTH",
"41 173 OFFCURVE",
"26 164 OFFCURVE",
"26 90 CURVE SMOOTH",
"26 55 OFFCURVE",
"34 43 OFFCURVE",
"47 33 CURVE SMOOTH",
"87 3 OFFCURVE",
"170 -8 OFFCURVE",
"218 -8 CURVE SMOOTH"
);
}
);
};
color = -1;
layerId = "DE974D70-A5B4-43AB-B940-69E4F08CB641";
paths = (
{
closed = 1;
nodes = (
"329 -8 OFFCURVE",
"468 41 OFFCURVE",
"468 228 CURVE SMOOTH",
"468 319 OFFCURVE",
"402 379 OFFCURVE",
"313 420 CURVE SMOOTH",
"256 446 OFFCURVE",
"210 464 OFFCURVE",
"210 513 CURVE SMOOTH",
"210 535 OFFCURVE",
"222 576 OFFCURVE",
"309 576 CURVE SMOOTH",
"348 576 OFFCURVE",
"373 568 OFFCURVE",
"391 561 CURVE SMOOTH",
"404 556 OFFCURVE",
"412 551 OFFCURVE",
"418 551 CURVE SMOOTH",
"442 551 OFFCURVE",
"482 614 OFFCURVE",
"482 640 CURVE SMOOTH",
"482 649 OFFCURVE",
"476 659 OFFCURVE",
"465 668 CURVE SMOOTH",
"439 690 OFFCURVE",
"383 708 OFFCURVE",
"309 708 CURVE SMOOTH",
"186 708 OFFCURVE",
"49 654 OFFCURVE",
"49 478 CURVE SMOOTH",
"49 372 OFFCURVE",
"132 331 OFFCURVE",
"204 296 CURVE SMOOTH",
"259 270 OFFCURVE",
"307 246 OFFCURVE",
"307 200 CURVE SMOOTH",
"307 137 OFFCURVE",
"249 123 OFFCURVE",
"206 123 CURVE SMOOTH",
"162 123 OFFCURVE",
"127 136 OFFCURVE",
"101 149 CURVE SMOOTH",
"77 161 OFFCURVE",
"60 173 OFFCURVE",
"52 173 CURVE SMOOTH",
"41 173 OFFCURVE",
"26 164 OFFCURVE",
"26 90 CURVE SMOOTH",
"26 55 OFFCURVE",
"34 43 OFFCURVE",
"47 33 CURVE SMOOTH",
"87 3 OFFCURVE",
"170 -8 OFFCURVE",
"218 -8 CURVE SMOOTH"
);
}
);
width = 500;
}
);
leftKerningGroup = S;
rightKerningGroup = S;
unicode = 0053;
},
{
glyphname = Germandbls;
layers = (
{
color = -1;
layerId = "DE974D70-A5B4-43AB-B940-69E4F08CB641";
paths = (
{
closed = 1;
nodes = (
"585 -8 OFFCURVE",
"671 59 OFFCURVE",
"671 205 CURVE SMOOTH",
"671 305 OFFCURVE",
"631 369 OFFCURVE",
"527 397 CURVE",
"658 581 LINE",
"660 583 OFFCURVE",
"661 588 OFFCURVE",
"661 596 CURVE SMOOTH",
"661 624 OFFCURVE",
"648 678 OFFCURVE",
"629 683 CURVE SMOOTH",
"576 696 OFFCURVE",
"496 708 OFFCURVE",
"420 708 CURVE SMOOTH",
"115 708 OFFCURVE",
"91 512 OFFCURVE",
"82 422 CURVE SMOOTH",
"42 29 LINE",
"42 0 OFFCURVE",
"82 -2 OFFCURVE",
"99 -2 CURVE SMOOTH",
"134 -2 LINE SMOOTH",
"172 -2 OFFCURVE",
"195 9 OFFCURVE",
"197 30 CURVE SMOOTH",
"238 427 LINE SMOOTH",
"243 480 OFFCURVE",
"260 576 OFFCURVE",
"391 576 CURVE SMOOTH",
"418 576 OFFCURVE",
"458 572 OFFCURVE",
"474 570 CURVE",
"360 410 LINE",
"358 408 OFFCURVE",
"357 403 OFFCURVE",
"357 395 CURVE SMOOTH",
"357 367 OFFCURVE",
"370 308 OFFCURVE",
"389 308 CURVE SMOOTH",
"428 308 LINE",
"494 302 OFFCURVE",
"521 263 OFFCURVE",
"521 210 CURVE SMOOTH",
"521 147 OFFCURVE",
"483 109 OFFCURVE",
"413 109 CURVE SMOOTH",
"342 109 OFFCURVE",
"303 149 OFFCURVE",
"292 149 CURVE SMOOTH",
"281 149 OFFCURVE",
"268 113 OFFCURVE",
"268 80 CURVE SMOOTH",
"268 -7 OFFCURVE",
"360 -8 OFFCURVE",
"384 -8 CURVE SMOOTH"
);
}
);
width = 700;
},
{
color = -1;
layerId = UUID0;
paths = (
{
closed = 1;
nodes = (
"558 -6 OFFCURVE",
"651 72 OFFCURVE",
"651 215 CURVE SMOOTH",
"651 310 OFFCURVE",
"610 372 OFFCURVE",
"485 397 CURVE",
"655 609 LINE SMOOTH",
"657 612 OFFCURVE",
"660 618 OFFCURVE",
"660 625 CURVE SMOOTH",
"660 639 OFFCURVE",
"646 670 OFFCURVE",
"640 674 CURVE",
"606 688 OFFCURVE",
"518 706 OFFCURVE",
"430 706 CURVE SMOOTH",
"139 706 OFFCURVE",
"113 511 OFFCURVE",
"105 430 CURVE SMOOTH",
"62 20 LINE",
"62 6 OFFCURVE",
"70 -2 OFFCURVE",
"100 -2 CURVE SMOOTH",
"108 -2 LINE SMOOTH",
"135 -2 OFFCURVE",
"149 7 OFFCURVE",
"150 20 CURVE SMOOTH",
"193 434 LINE SMOOTH",
"198 482 OFFCURVE",
"212 630 OFFCURVE",
"412 630 CURVE SMOOTH",
"461 630 OFFCURVE",
"524 622 OFFCURVE",
"552 616 CURVE",
"377 399 LINE",
"374 395 OFFCURVE",
"372 387 OFFCURVE",
"372 382 CURVE SMOOTH",
"372 372 OFFCURVE",
"382 334 OFFCURVE",
"391 334 CURVE SMOOTH",
"417 334 LINE SMOOTH",
"504 334 OFFCURVE",
"564 303 OFFCURVE",
"564 210 CURVE SMOOTH",
"564 119 OFFCURVE",
"506 66 OFFCURVE",
"419 66 CURVE SMOOTH",
"346 66 OFFCURVE",
"274 103 OFFCURVE",
"272 103 CURVE SMOOTH",
"267 103 OFFCURVE",
"256 98 OFFCURVE",
"257 44 CURVE SMOOTH",
"258 0 OFFCURVE",
"399 -6 OFFCURVE",
"434 -6 CURVE SMOOTH"
);
}
);
width = 700;
}
);
leftKerningGroup = H;
unicode = 1E9E;
},
{
glyphname = Schwa;
layers = (
{
background = {
paths = (
{
closed = 1;
nodes = (
"517 -8 OFFCURVE",
"636 143 OFFCURVE",
"636 378 CURVE SMOOTH",
"636 604 OFFCURVE",
"517 708 OFFCURVE",
"340 708 CURVE SMOOTH",
"62 708 OFFCURVE",
"-12 505 OFFCURVE",
"-12 311 CURVE SMOOTH",
"-12 97 OFFCURVE",
"99 -8 OFFCURVE",
"289 -8 CURVE SMOOTH"
);
},
{
closed = 1;
nodes = (
"205 123 OFFCURVE",
"147 186 OFFCURVE",
"147 329 CURVE SMOOTH",
"147 479 OFFCURVE",
"210 576 OFFCURVE",
"326 576 CURVE SMOOTH",
"422 576 OFFCURVE",
"478 510 OFFCURVE",
"478 370 CURVE SMOOTH",
"478 219 OFFCURVE",
"413 123 OFFCURVE",
"298 123 CURVE SMOOTH"
);
}
);
};
color = -1;
layerId = "DE974D70-A5B4-43AB-B940-69E4F08CB641";
paths = (
{
closed = 1;
nodes = (
"520 -6 OFFCURVE",
"632 164 OFFCURVE",
"632 386 CURVE SMOOTH",
"632 613 OFFCURVE",
"514 708 OFFCURVE",
"341 708 CURVE SMOOTH",
"227 708 OFFCURVE",
"122 667 OFFCURVE",
"122 626 CURVE SMOOTH",
"122 608 OFFCURVE",
"143 544 OFFCURVE",
"163 544 CURVE SMOOTH",
"180 544 OFFCURVE",
"224 591 OFFCURVE",
"323 591 CURVE SMOOTH",
"432 591 OFFCURVE",
"482 533 OFFCURVE",
"482 386 CURVE SMOOTH",
"482 228 OFFCURVE",
"425 111 OFFCURVE",
"313 111 CURVE SMOOTH",
"252 111 OFFCURVE",
"207 146 OFFCURVE",
"207 213 CURVE SMOOTH",
"207 273 OFFCURVE",
"243 343 OFFCURVE",
"379 343 CURVE SMOOTH",
"411 343 OFFCURVE",
"460 339 OFFCURVE",
"491 333 CURVE",
"515 414 LINE",
"475 430 OFFCURVE",
"392 442 OFFCURVE",
"334 442 CURVE SMOOTH",
"174 442 OFFCURVE",
"63 349 OFFCURVE",
"63 206 CURVE SMOOTH",
"63 86 OFFCURVE",
"140 -6 OFFCURVE",
"301 -6 CURVE SMOOTH"
);
}
);
width = 672;
},
{
background = {
paths = (
{
closed = 1;
nodes = (
"486 -6 OFFCURVE",
"613 142 OFFCURVE",
"613 386 CURVE SMOOTH",
"613 609 OFFCURVE",
"507 706 OFFCURVE",
"328 706 CURVE SMOOTH",
"64 706 OFFCURVE",
"-12 496 OFFCURVE",
"-12 312 CURVE SMOOTH",
"-12 95 OFFCURVE",
"93 -6 OFFCURVE",
"271 -6 CURVE SMOOTH"
);
},
{
closed = 1;
nodes = (
"155 70 OFFCURVE",
"79 147 OFFCURVE",
"79 324 CURVE SMOOTH",
"79 515 OFFCURVE",
"167 630 OFFCURVE",
"320 630 CURVE SMOOTH",
"444 630 OFFCURVE",
"521 555 OFFCURVE",
"521 379 CURVE SMOOTH",
"521 187 OFFCURVE",
"430 70 OFFCURVE",
"278 70 CURVE SMOOTH"
);
}
);
};
color = -1;
layerId = UUID0;
paths = (
{
closed = 1;
nodes = (
"516 -4 OFFCURVE",
"610 205 OFFCURVE",
"610 403 CURVE SMOOTH",
"610 664 OFFCURVE",
"447 706 OFFCURVE",
"333 706 CURVE SMOOTH",
"213 706 OFFCURVE",
"120 659 OFFCURVE",
"120 628 CURVE SMOOTH",
"120 617 OFFCURVE",
"131 579 OFFCURVE",
"146 579 CURVE SMOOTH",
"163 579 OFFCURVE",
"211 632 OFFCURVE",
"325 632 CURVE SMOOTH",
"432 632 OFFCURVE",
"523 585 OFFCURVE",
"523 397 CURVE SMOOTH",
"523 234 OFFCURVE",
"455 68 OFFCURVE",
"299 68 CURVE SMOOTH",
"207 68 OFFCURVE",
"154 126 OFFCURVE",
"154 204 CURVE SMOOTH",
"154 303 OFFCURVE",
"238 365 OFFCURVE",
"393 365 CURVE SMOOTH",
"445 365 OFFCURVE",
"507 358 OFFCURVE",
"532 350 CURVE",
"543 423 LINE",
"511 428 OFFCURVE",
"454 437 OFFCURVE",
"389 437 CURVE SMOOTH",
"178 437 OFFCURVE",
"67 344 OFFCURVE",
"67 205 CURVE SMOOTH",
"67 106 OFFCURVE",
"123 -4 OFFCURVE",
"288 -4 CURVE SMOOTH"
);
}
);
width = 672;
}
);
leftKerningGroup = O;
rightKerningGroup = O;
unicode = 018F;
},
{
glyphname = T;
layers = (
{
anchors = (
{
name = bottom;
position = "{247, 0}";
},
{
name = center;
position = "{287, 350}";
},
{
name = top;
position = "{321, 700}";
}
);
color = -1;
layerId = UUID0;
paths = (
{
closed = 1;
nodes = (
"254 -2 LINE SMOOTH",
"279 -2 OFFCURVE",
"295 6 OFFCURVE",
"296 20 CURVE SMOOTH",
"359 624 LINE",
"547 624 LINE SMOOTH",
"561 624 OFFCURVE",
"571 633 OFFCURVE",
"573 657 CURVE SMOOTH",
"574 672 LINE SMOOTH",
"575 691 OFFCURVE",
"569 700 OFFCURVE",
"555 700 CURVE SMOOTH",
"87 700 LINE SMOOTH",
"73 700 OFFCURVE",
"63 691 OFFCURVE",
"61 667 CURVE SMOOTH",
"60 652 LINE SMOOTH",
"59 633 OFFCURVE",
"65 624 OFFCURVE",
"79 624 CURVE SMOOTH",
"271 624 LINE",
"209 22 LINE SMOOTH",
"207 6 OFFCURVE",
"216 -2 OFFCURVE",
"246 -2 CURVE SMOOTH"
);
}
);
width = 549;
},
{
anchors = (
{
name = bottom;
position = "{247, 0}";
},
{
name = center;
position = "{286, 350}";
},
{
name = top;
position = "{320, 700}";
}
);
color = -1;
layerId = "DE974D70-A5B4-43AB-B940-69E4F08CB641";
paths = (
{
closed = 1;
nodes = (
"265 -2 LINE SMOOTH",
"304 -2 OFFCURVE",
"326 9 OFFCURVE",
"328 30 CURVE SMOOTH",
"385 569 LINE",
"542 569 LINE SMOOTH",
"563 569 OFFCURVE",
"577 584 OFFCURVE",
"581 629 CURVE SMOOTH",
"582 640 LINE SMOOTH",
"586 685 OFFCURVE",
"577 700 OFFCURVE",
"556 700 CURVE SMOOTH",
"86 700 LINE SMOOTH",
"65 700 OFFCURVE",
"51 685 OFFCURVE",
"47 640 CURVE SMOOTH",
"46 629 LINE SMOOTH",
"42 584 OFFCURVE",
"51 569 OFFCURVE",
"72 569 CURVE SMOOTH",
"230 569 LINE",
"174 35 LINE SMOOTH",
"170 0 OFFCURVE",
"213 -2 OFFCURVE",
"230 -2 CURVE SMOOTH"
);
}
);
width = 549;
}
);
leftKerningGroup = T;
rightKerningGroup = T;
unicode = 0054;
},
{
glyphname = U;
layers = (
{
anchors = (
{
name = bottom;
position = "{330, 0}";
},
{
name = ogonek;
position = "{381, 0}";
},
{
name = top;
position = "{404, 700}";
},
{
name = topright;
position = "{629, 702}";
}
);
color = -1;
layerId = UUID0;
paths = (
{
closed = 1;
nodes = (
"505 -6 OFFCURVE",
"611 80 OFFCURVE",
"626 224 CURVE SMOOTH",
"674 680 LINE SMOOTH",
"675 694 OFFCURVE",
"666 702 OFFCURVE",
"637 702 CURVE SMOOTH",
"629 702 LINE SMOOTH",
"601 702 OFFCURVE",
"587 694 OFFCURVE",
"586 680 CURVE SMOOTH",
"538 221 LINE SMOOTH",
"528 126 OFFCURVE",
"454 70 OFFCURVE",
"337 70 CURVE SMOOTH",
"210 70 OFFCURVE",
"159 125 OFFCURVE",
"167 206 CURVE SMOOTH",
"216 680 LINE SMOOTH",
"217 694 OFFCURVE",
"208 702 OFFCURVE",
"179 702 CURVE SMOOTH",
"171 702 LINE SMOOTH",
"143 702 OFFCURVE",
"129 694 OFFCURVE",
"128 680 CURVE SMOOTH",
"80 213 LINE SMOOTH",
"65 69 OFFCURVE",
"155 -6 OFFCURVE",
"329 -6 CURVE SMOOTH"
);
}
);
width = 712;
},
{
anchors = (
{
name = bottom;
position = "{329, 0}";
},
{
name = ogonek;
position = "{386, 0}";
},
{
name = top;
position = "{401, 700}";
},
{
name = topright;
position = "{600, 702}";
}
);
background = {
paths = (
{
closed = 1;
nodes = (
"600 702 LINE SMOOTH",
"559 702 OFFCURVE",
"538 691 OFFCURVE",
"536 670 CURVE SMOOTH",
"492 244 LINE SMOOTH",
"485 174 OFFCURVE",
"422 123 OFFCURVE",
"342 123 CURVE SMOOTH",
"267 123 OFFCURVE",
"218 167 OFFCURVE",
"218 229 CURVE SMOOTH",
"218 234 OFFCURVE",
"218 239 OFFCURVE",
"263 670 CURVE",
"263 690 OFFCURVE",
"250 702 OFFCURVE",
"207 702 CURVE SMOOTH",
"173 702 LINE SMOOTH",
"132 702 OFFCURVE",
"111 691 OFFCURVE",
"109 670 CURVE SMOOTH",
"64 222 OFFCURVE",
"62 221 OFFCURVE",
"62 201 CURVE SMOOTH",
"62 67 OFFCURVE",
"159 -8 OFFCURVE",
"328 -8 CURVE SMOOTH",
"510 -8 OFFCURVE",
"628 80 OFFCURVE",
"644 234 CURVE SMOOTH",
"689 670 LINE",
"689 690 OFFCURVE",
"676 702 OFFCURVE",
"633 702 CURVE SMOOTH"
);
}
);
};
color = -1;
layerId = "DE974D70-A5B4-43AB-B940-69E4F08CB641";
paths = (
{
closed = 1;
nodes = (
"510 -8 OFFCURVE",
"628 80 OFFCURVE",
"644 234 CURVE SMOOTH",
"689 670 LINE SMOOTH",
"691 690 OFFCURVE",
"676 702 OFFCURVE",
"633 702 CURVE SMOOTH",
"600 702 LINE SMOOTH",
"559 702 OFFCURVE",
"538 691 OFFCURVE",
"536 670 CURVE SMOOTH",
"492 244 LINE SMOOTH",
"484 164 OFFCURVE",
"433 123 OFFCURVE",
"342 123 CURVE SMOOTH",
"252 123 OFFCURVE",
"212 167 OFFCURVE",
"219 239 CURVE SMOOTH",
"263 670 LINE SMOOTH",
"265 690 OFFCURVE",
"250 702 OFFCURVE",
"207 702 CURVE SMOOTH",
"173 702 LINE SMOOTH",
"132 702 OFFCURVE",
"111 691 OFFCURVE",
"109 670 CURVE SMOOTH",
"64 221 LINE SMOOTH",
"49 73 OFFCURVE",
"149 -8 OFFCURVE",
"328 -8 CURVE SMOOTH"
);
}
);
width = 712;
}
);
leftKerningGroup = U;
rightKerningGroup = U;
unicode = 0055;
},
{
glyphname = V;
layers = (
{
background = {
paths = (
{
closed = 1;
nodes = (
"593 702 LINE SMOOTH",
"573 702 OFFCURVE",
"557 698 OFFCURVE",
"552 686 CURVE SMOOTH",
"311 153 LINE",
"295 100 LINE",
"292 100 LINE",
"287 152 LINE",
"158 686 LINE SMOOTH",
"155 698 OFFCURVE",
"139 702 OFFCURVE",
"119 702 CURVE SMOOTH",
"110 702 LINE SMOOTH",
"76 702 OFFCURVE",
"65 693 OFFCURVE",
"65 681 CURVE SMOOTH",
"65 678 OFFCURVE",
"62 674 OFFCURVE",
"227 14 CURVE SMOOTH",
"230 2 OFFCURVE",
"246 -2 OFFCURVE",
"266 -2 CURVE SMOOTH",
"297 -2 LINE SMOOTH",
"317 -2 OFFCURVE",
"333 2 OFFCURVE",
"338 14 CURVE SMOOTH",
"636 671 LINE SMOOTH",
"639 677 OFFCURVE",
"641 682 OFFCURVE",
"641 686 CURVE SMOOTH",
"641 696 OFFCURVE",
"628 702 OFFCURVE",
"599 702 CURVE SMOOTH"
);
}
);
};
color = -1;
layerId = UUID0;
paths = (
{
closed = 1;
nodes = (
"297 -2 LINE SMOOTH",
"317 -2 OFFCURVE",
"333 2 OFFCURVE",
"338 14 CURVE SMOOTH",
"636 671 LINE SMOOTH",
"639 677 OFFCURVE",
"641 682 OFFCURVE",
"641 686 CURVE SMOOTH",
"641 696 OFFCURVE",
"628 702 OFFCURVE",
"599 702 CURVE SMOOTH",
"593 702 LINE SMOOTH",
"573 702 OFFCURVE",
"557 698 OFFCURVE",
"552 686 CURVE SMOOTH",
"325 183 LINE SMOOTH",
"316 163 OFFCURVE",
"303 127 OFFCURVE",
"295 100 CURVE",
"292 100 LINE",
"288 133 OFFCURVE",
"282 171 OFFCURVE",
"278 189 CURVE SMOOTH",
"158 686 LINE SMOOTH",
"155 698 OFFCURVE",
"139 702 OFFCURVE",
"119 702 CURVE SMOOTH",
"108 702 LINE SMOOTH",
"74 702 OFFCURVE",
"60 693 OFFCURVE",
"63 679 CURVE SMOOTH",
"227 16 LINE SMOOTH",
"230 2 OFFCURVE",
"246 -2 OFFCURVE",
"266 -2 CURVE SMOOTH"
);
}
);
width = 617;
},
{
background = {
paths = (
{
closed = 1;
nodes = (
"565 702 LINE SMOOTH",
"537 702 OFFCURVE",
"512 694 OFFCURVE",
"503 673 CURVE SMOOTH",
"320 242 LINE",
"304 205 LINE",
"300 205 LINE",
"293 241 LINE",
"203 673 LINE SMOOTH",
"198 695 OFFCURVE",
"176 702 OFFCURVE",
"147 702 CURVE SMOOTH",
"114 702 LINE SMOOTH",
"86 702 OFFCURVE",
"51 699 OFFCURVE",
"51 673 CURVE",
"202 19 LINE",
"206 3 OFFCURVE",
"226 -2 OFFCURVE",
"256 -2 CURVE SMOOTH",
"308 -2 LINE SMOOTH",
"337 -2 OFFCURVE",
"359 3 OFFCURVE",
"366 19 CURVE SMOOTH",
"649 662 LINE SMOOTH",
"652 668 OFFCURVE",
"653 673 OFFCURVE",
"653 678 CURVE SMOOTH",
"653 701 OFFCURVE",
"619 702 OFFCURVE",
"596 702 CURVE SMOOTH"
);
}
);
};
color = -1;
layerId = "DE974D70-A5B4-43AB-B940-69E4F08CB641";
paths = (
{
closed = 1;
nodes = (
"308 -2 LINE SMOOTH",
"337 -2 OFFCURVE",
"359 3 OFFCURVE",
"366 19 CURVE SMOOTH",
"649 662 LINE SMOOTH",
"652 668 OFFCURVE",
"653 673 OFFCURVE",
"653 678 CURVE SMOOTH",
"653 701 OFFCURVE",
"619 702 OFFCURVE",
"596 702 CURVE SMOOTH",
"566 702 LINE SMOOTH",
"538 702 OFFCURVE",
"513 694 OFFCURVE",
"504 673 CURVE SMOOTH",
"336 276 LINE SMOOTH",
"326 251 OFFCURVE",
"312 210 OFFCURVE",
"304 181 CURVE",
"300 181 LINE",
"299 200 OFFCURVE",
"293 243 OFFCURVE",
"285 280 CURVE SMOOTH",
"204 673 LINE SMOOTH",
"199 695 OFFCURVE",
"177 702 OFFCURVE",
"148 702 CURVE SMOOTH",
"114 702 LINE SMOOTH",
"68 702 OFFCURVE",
"47 690 OFFCURVE",
"52 668 CURVE SMOOTH",
"202 19 LINE SMOOTH",
"206 3 OFFCURVE",
"226 -2 OFFCURVE",
"256 -2 CURVE SMOOTH"
);
}
);
width = 617;
}
);
leftKerningGroup = V;
rightKerningGroup = V;
unicode = 0056;
},
{
glyphname = W;
layers = (
{
anchors = (
{
name = top;
position = "{481, 700}";
}
);
color = -1;
layerId = UUID0;
paths = (
{
closed = 1;
nodes = (
"244 -2 LINE SMOOTH",
"262 -2 OFFCURVE",
"280 2 OFFCURVE",
"285 14 CURVE SMOOTH",
"420 376 LINE SMOOTH",
"446 447 OFFCURVE",
"461 503 OFFCURVE",
"471 551 CURVE",
"475 551 LINE",
"472 505 OFFCURVE",
"479 411 OFFCURVE",
"492 331 CURVE SMOOTH",
"544 14 LINE SMOOTH",
"546 2 OFFCURVE",
"563 -2 OFFCURVE",
"583 -2 CURVE SMOOTH",
"624 -2 LINE SMOOTH",
"644 -2 OFFCURVE",
"661 2 OFFCURVE",
"665 14 CURVE SMOOTH",
"909 679 LINE SMOOTH",
"915 695 OFFCURVE",
"899 702 OFFCURVE",
"870 702 CURVE SMOOTH",
"864 702 LINE SMOOTH",
"844 702 OFFCURVE",
"827 698 OFFCURVE",
"823 686 CURVE SMOOTH",
"651 201 LINE SMOOTH",
"643 178 OFFCURVE",
"629 135 OFFCURVE",
"620 101 CURVE",
"616 101 LINE",
"616 129 OFFCURVE",
"613 168 OFFCURVE",
"602 243 CURVE SMOOTH",
"537 685 LINE SMOOTH",
"535 698 OFFCURVE",
"519 702 OFFCURVE",
"499 702 CURVE SMOOTH",
"483 702 LINE SMOOTH",
"458 702 OFFCURVE",
"448 698 OFFCURVE",
"443 685 CURVE SMOOTH",
"271 199 LINE SMOOTH",
"261 172 OFFCURVE",
"248 130 OFFCURVE",
"240 101 CURVE",
"236 101 LINE",
"235 132 OFFCURVE",
"232 172 OFFCURVE",
"221 244 CURVE SMOOTH",
"152 686 LINE SMOOTH",
"150 698 OFFCURVE",
"133 702 OFFCURVE",
"113 702 CURVE SMOOTH",
"104 702 LINE SMOOTH",
"81 702 OFFCURVE",
"56 700 OFFCURVE",
"59 682 CURVE SMOOTH",
"164 14 LINE SMOOTH",
"166 2 OFFCURVE",
"183 -2 OFFCURVE",
"203 -2 CURVE SMOOTH"
);
}
);
width = 882;
},
{
anchors = (
{
name = top;
position = "{493, 700}";
}
);
color = -1;
layerId = "DE974D70-A5B4-43AB-B940-69E4F08CB641";
paths = (
{
closed = 1;
nodes = (
"256 -2 LINE SMOOTH",
"284 -2 OFFCURVE",
"307 5 OFFCURVE",
"313 19 CURVE SMOOTH",
"426 343 LINE SMOOTH",
"436 374 OFFCURVE",
"450 422 OFFCURVE",
"458 453 CURVE",
"462 453 LINE",
"463 433 OFFCURVE",
"466 387 OFFCURVE",
"470 346 CURVE SMOOTH",
"513 19 LINE SMOOTH",
"515 5 OFFCURVE",
"537 -2 OFFCURVE",
"566 -2 CURVE SMOOTH",
"639 -2 LINE SMOOTH",
"666 -2 OFFCURVE",
"691 5 OFFCURVE",
"696 19 CURVE SMOOTH",
"928 670 LINE SMOOTH",
"935 691 OFFCURVE",
"912 702 OFFCURVE",
"870 702 CURVE SMOOTH",
"859 702 LINE SMOOTH",
"820 702 OFFCURVE",
"796 692 OFFCURVE",
"789 671 CURVE SMOOTH",
"677 349 LINE SMOOTH",
"661 298 OFFCURVE",
"641 225 OFFCURVE",
"629 178 CURVE",
"625 178 LINE",
"622 223 OFFCURVE",
"615 296 OFFCURVE",
"609 349 CURVE SMOOTH",
"565 681 LINE SMOOTH",
"563 697 OFFCURVE",
"544 702 OFFCURVE",
"512 702 CURVE SMOOTH",
"474 702 LINE SMOOTH",
"442 702 OFFCURVE",
"423 697 OFFCURVE",
"417 681 CURVE SMOOTH",
"300 349 LINE SMOOTH",
"283 292 OFFCURVE",
"262 219 OFFCURVE",
"253 178 CURVE",
"249 178 LINE",
"247 210 OFFCURVE",
"241 284 OFFCURVE",
"235 349 CURVE SMOOTH",
"194 671 LINE SMOOTH",
"191 692 OFFCURVE",
"169 702 OFFCURVE",
"130 702 CURVE SMOOTH",
"104 702 LINE SMOOTH",
"58 702 OFFCURVE",
"36 690 OFFCURVE",
"39 667 CURVE SMOOTH",
"131 21 LINE SMOOTH",
"133 5 OFFCURVE",
"152 -2 OFFCURVE",
"184 -2 CURVE SMOOTH"
);
}
);
width = 882;
}
);
leftKerningGroup = V;
rightKerningGroup = V;
unicode = 0057;
},
{
glyphname = X;
layers = (
{
color = -1;
layerId = UUID0;
paths = (
{
closed = 1;
nodes = (
"46 -2 LINE SMOOTH",
"64 -2 OFFCURVE",
"82 1 OFFCURVE",
"100 24 CURVE SMOOTH",
"310 295 LINE",
"460 13 LINE SMOOTH",
"467 1 OFFCURVE",
"481 -2 OFFCURVE",
"502 -2 CURVE SMOOTH",
"513 -2 LINE SMOOTH",
"549 -2 OFFCURVE",
"555 5 OFFCURVE",
"555 17 CURVE SMOOTH",
"555 21 OFFCURVE",
"552 27 OFFCURVE",
"549 33 CURVE",
"366 368 LINE",
"601 667 LINE",
"606 674 OFFCURVE",
"611 681 OFFCURVE",
"611 686 CURVE SMOOTH",
"611 697 OFFCURVE",
"598 702 OFFCURVE",
"566 702 CURVE SMOOTH",
"560 702 LINE SMOOTH",
"542 702 OFFCURVE",
"524 699 OFFCURVE",
"516 688 CURVE SMOOTH",
"324 439 LINE",
"191 687 LINE SMOOTH",
"184 699 OFFCURVE",
"170 702 OFFCURVE",
"149 702 CURVE SMOOTH",
"140 702 LINE SMOOTH",
"104 702 OFFCURVE",
"98 695 OFFCURVE",
"98 683 CURVE SMOOTH",
"98 678 OFFCURVE",
"101 673 OFFCURVE",
"104 667 CURVE SMOOTH",
"267 368 LINE",
"4 33 LINE",
"-2 26 OFFCURVE",
"-6 19 OFFCURVE",
"-6 14 CURVE SMOOTH",
"-6 3 OFFCURVE",
"2 -2 OFFCURVE",
"33 -2 CURVE SMOOTH"
);
}
);
width = 611;
},
{
color = -1;
layerId = "DE974D70-A5B4-43AB-B940-69E4F08CB641";
paths = (
{
closed = 1;
nodes = (
"86 -2 LINE SMOOTH",
"115 -2 OFFCURVE",
"136 -1 OFFCURVE",
"149 17 CURVE SMOOTH",
"305 240 LINE",
"426 17 LINE SMOOTH",
"434 2 OFFCURVE",
"449 -2 OFFCURVE",
"484 -2 CURVE SMOOTH",
"513 -2 LINE SMOOTH",
"542 -2 OFFCURVE",
"576 0 OFFCURVE",
"576 23 CURVE SMOOTH",
"576 28 OFFCURVE",
"575 35 OFFCURVE",
"571 42 CURVE SMOOTH",
"402 360 LINE",
"625 658 LINE SMOOTH",
"632 668 OFFCURVE",
"635 676 OFFCURVE",
"635 682 CURVE SMOOTH",
"635 702 OFFCURVE",
"600 702 OFFCURVE",
"576 702 CURVE SMOOTH",
"532 702 LINE SMOOTH",
"503 702 OFFCURVE",
"481 700 OFFCURVE",
"469 683 CURVE SMOOTH",
"330 488 LINE",
"230 683 LINE SMOOTH",
"222 698 OFFCURVE",
"201 702 OFFCURVE",
"172 702 CURVE SMOOTH",
"141 702 LINE SMOOTH",
"109 702 OFFCURVE",
"77 701 OFFCURVE",
"77 678 CURVE SMOOTH",
"77 673 OFFCURVE",
"79 666 OFFCURVE",
"83 658 CURVE SMOOTH",
"238 368 LINE",
"-4 42 LINE",
"-12 32 OFFCURVE",
"-15 24 OFFCURVE",
"-15 18 CURVE SMOOTH",
"-15 -2 OFFCURVE",
"19 -2 OFFCURVE",
"44 -2 CURVE SMOOTH"
);
}
);
width = 611;
}
);
leftKerningGroup = X;
rightKerningGroup = X;
unicode = 0058;
},
{
glyphname = Y;
layers = (
{
anchors = (
{
name = bottom;
position = "{253, 0}";
},
{
name = top;
position = "{327, 700}";
}
);
color = -1;
layerId = UUID0;
paths = (
{
closed = 1;
nodes = (
"256 -2 LINE SMOOTH",
"282 -2 OFFCURVE",
"297 6 OFFCURVE",
"298 20 CURVE SMOOTH",
"333 356 LINE",
"576 667 LINE SMOOTH",
"581 674 OFFCURVE",
"586 681 OFFCURVE",
"586 686 CURVE SMOOTH",
"586 696 OFFCURVE",
"575 701 OFFCURVE",
"550 702 CURVE",
"539 702 LINE",
"519 702 OFFCURVE",
"501 699 OFFCURVE",
"493 688 CURVE SMOOTH",
"299 441 LINE",
"161 687 LINE SMOOTH",
"154 699 OFFCURVE",
"140 702 OFFCURVE",
"119 702 CURVE SMOOTH",
"110 702 LINE SMOOTH",
"74 702 OFFCURVE",
"63 695 OFFCURVE",
"63 683 CURVE SMOOTH",
"63 678 OFFCURVE",
"65 673 OFFCURVE",
"69 667 CURVE SMOOTH",
"245 359 LINE",
"210 20 LINE",
"210 6 OFFCURVE",
"218 -2 OFFCURVE",
"248 -2 CURVE SMOOTH"
);
}
);
width = 559;
},
{
anchors = (
{
name = bottom;
position = "{253, 0}";
},
{
name = top;
position = "{327, 700}";
}
);
color = -1;
layerId = "DE974D70-A5B4-43AB-B940-69E4F08CB641";
paths = (
{
closed = 1;
nodes = (
"269 -2 LINE SMOOTH",
"311 -2 OFFCURVE",
"330 9 OFFCURVE",
"332 30 CURVE SMOOTH",
"364 333 LINE",
"597 657 LINE SMOOTH",
"604 667 OFFCURVE",
"608 676 OFFCURVE",
"608 682 CURVE SMOOTH",
"608 700 OFFCURVE",
"570 702 OFFCURVE",
"547 702 CURVE SMOOTH",
"511 702 LINE SMOOTH",
"482 702 OFFCURVE",
"459 698 OFFCURVE",
"449 683 CURVE SMOOTH",
"304 469 LINE",
"204 683 LINE SMOOTH",
"197 698 OFFCURVE",
"175 702 OFFCURVE",
"146 702 CURVE SMOOTH",
"103 702 LINE SMOOTH",
"71 702 OFFCURVE",
"39 701 OFFCURVE",
"39 678 CURVE SMOOTH",
"39 672 OFFCURVE",
"41 665 OFFCURVE",
"45 657 CURVE SMOOTH",
"210 336 LINE",
"178 30 LINE",
"178 9 OFFCURVE",
"192 -2 OFFCURVE",
"235 -2 CURVE SMOOTH"
);
}
);
width = 559;
}
);
leftKerningGroup = Y;
rightKerningGroup = Y;
unicode = 0059;
},
{
glyphname = Z;
layers = (
{
anchors = (
{
name = bottom;
position = "{297, 0}";
},
{
name = top;
position = "{356, 700}";
}
);
color = -1;
layerId = UUID0;
paths = (
{
closed = 1;
nodes = (
"523 0 LINE SMOOTH",
"537 0 OFFCURVE",
"546 9 OFFCURVE",
"549 33 CURVE SMOOTH",
"551 48 LINE SMOOTH",
"554 67 OFFCURVE",
"545 76 OFFCURVE",
"531 76 CURVE SMOOTH",
"141 76 LINE",
"609 635 LINE SMOOTH",
"613 640 OFFCURVE",
"614 645 OFFCURVE",
"614 652 CURVE SMOOTH",
"614 673 OFFCURVE",
"608 700 OFFCURVE",
"591 700 CURVE SMOOTH",
"140 700 LINE SMOOTH",
"126 700 OFFCURVE",
"117 695 OFFCURVE",
"114 671 CURVE SMOOTH",
"112 654 LINE SMOOTH",
"110 635 OFFCURVE",
"118 624 OFFCURVE",
"132 624 CURVE SMOOTH",
"491 624 LINE",
"26 69 LINE SMOOTH",
"20 62 OFFCURVE",
"18 53 OFFCURVE",
"18 47 CURVE SMOOTH",
"18 27 OFFCURVE",
"25 0 OFFCURVE",
"41 0 CURVE SMOOTH"
);
}
);
width = 616;
},
{
anchors = (
{
name = bottom;
position = "{297, 0}";
},
{
name = top;
position = "{359, 700}";
}
);
color = -1;
layerId = "DE974D70-A5B4-43AB-B940-69E4F08CB641";
paths = (
{
closed = 1;
nodes = (
"525 0 LINE SMOOTH",
"546 0 OFFCURVE",
"560 15 OFFCURVE",
"564 60 CURVE SMOOTH",
"565 71 LINE SMOOTH",
"569 116 OFFCURVE",
"560 131 OFFCURVE",
"539 131 CURVE SMOOTH",
"234 131 LINE",
"612 593 LINE SMOOTH",
"617 599 OFFCURVE",
"619 605 OFFCURVE",
"619 613 CURVE SMOOTH",
"619 641 OFFCURVE",
"606 700 OFFCURVE",
"587 700 CURVE SMOOTH",
"136 700 LINE SMOOTH",
"115 700 OFFCURVE",
"101 685 OFFCURVE",
"97 640 CURVE SMOOTH",
"96 629 LINE SMOOTH",
"92 584 OFFCURVE",
"101 569 OFFCURVE",
"122 569 CURVE SMOOTH",
"400 569 LINE",
"23 107 LINE SMOOTH",
"19 103 OFFCURVE",
"16 95 OFFCURVE",
"16 87 CURVE SMOOTH",
"16 59 OFFCURVE",
"29 0 OFFCURVE",
"53 0 CURVE SMOOTH"
);
}
);
width = 616;
}
);
leftKerningGroup = Z;
rightKerningGroup = Z;
unicode = 005A;
},
{
glyphname = Y.loclGUA;
layers = (
{
anchors = (
{
name = bottom;
position = "{261, 0}";
},
{
name = top;
position = "{326, 700}";
}
);
background = {
paths = (
{
closed = 1;
nodes = (
"396 -8 OFFCURVE",
"467 64 OFFCURVE",
"493 303 CURVE SMOOTH",
"533 680 LINE SMOOTH",
"534 694 OFFCURVE",
"523 702 OFFCURVE",
"495 702 CURVE SMOOTH",
"492 702 LINE",
"463 702 OFFCURVE",
"450 694 OFFCURVE",
"449 680 CURVE SMOOTH",
"415 354 LINE",
"374 311 OFFCURVE",
"320 284 OFFCURVE",
"271 284 CURVE SMOOTH",
"206 284 OFFCURVE",
"169 314 OFFCURVE",
"169 367 CURVE SMOOTH",
"169 377 OFFCURVE",
"169 383 OFFCURVE",
"201 680 CURVE SMOOTH",
"203 694 OFFCURVE",
"191 702 OFFCURVE",
"163 702 CURVE SMOOTH",
"159 702 LINE SMOOTH",
"131 702 OFFCURVE",
"118 694 OFFCURVE",
"117 680 CURVE",
"84 350 LINE SMOOTH",
"84 263 OFFCURVE",
"142 211 OFFCURVE",
"241 211 CURVE SMOOTH",
"306 211 OFFCURVE",
"375 244 OFFCURVE",
"427 298 CURVE",
"411 325 LINE",
"409 303 LINE SMOOTH",
"392 130 OFFCURVE",
"347 64 OFFCURVE",
"243 64 CURVE SMOOTH",
"152 64 OFFCURVE",
"84 108 OFFCURVE",
"70 108 CURVE SMOOTH",
"58 108 OFFCURVE",
"55 68 OFFCURVE",
"55 53 CURVE SMOOTH",
"56 27 OFFCURVE",
"155 -8 OFFCURVE",
"239 -8 CURVE SMOOTH"
);
}
);
};
color = -1;
layerId = UUID0;
paths = (
{
closed = 1;
nodes = (
"396 -8 OFFCURVE",
"467 64 OFFCURVE",
"493 303 CURVE SMOOTH",
"533 680 LINE SMOOTH",
"534 694 OFFCURVE",
"523 702 OFFCURVE",
"495 702 CURVE SMOOTH",
"492 702 LINE SMOOTH",
"463 702 OFFCURVE",
"450 694 OFFCURVE",
"449 680 CURVE SMOOTH",
"415 354 LINE",
"374 311 OFFCURVE",
"320 284 OFFCURVE",
"271 284 CURVE SMOOTH",
"206 284 OFFCURVE",
"164 314 OFFCURVE",
"170 377 CURVE SMOOTH",
"201 680 LINE SMOOTH",
"202 694 OFFCURVE",
"191 702 OFFCURVE",
"163 702 CURVE SMOOTH",
"159 702 LINE SMOOTH",
"131 702 OFFCURVE",
"118 694 OFFCURVE",
"117 680 CURVE SMOOTH",
"86 370 LINE SMOOTH",
"75 263 OFFCURVE",
"142 211 OFFCURVE",
"241 211 CURVE SMOOTH",
"306 211 OFFCURVE",
"375 244 OFFCURVE",
"427 298 CURVE",
"411 325 LINE",
"409 303 LINE SMOOTH",
"392 130 OFFCURVE",
"347 64 OFFCURVE",
"243 64 CURVE SMOOTH",
"152 64 OFFCURVE",
"84 108 OFFCURVE",
"70 108 CURVE SMOOTH",
"58 108 OFFCURVE",
"55 68 OFFCURVE",
"55 53 CURVE SMOOTH",
"56 27 OFFCURVE",
"155 -8 OFFCURVE",
"239 -8 CURVE SMOOTH"
);
}
);
width = 559;
},
{
anchors = (
{
name = bottom;
position = "{256, 0}";
},
{
name = top;
position = "{326, 700}";
}
);
background = {
paths = (
{
closed = 1;
nodes = (
"412 -9 OFFCURVE",
"489 93 OFFCURVE",
"511 296 CURVE SMOOTH",
"550 669 LINE SMOOTH",
"552 690 OFFCURVE",
"535 701 OFFCURVE",
"493 701 CURVE SMOOTH",
"465 701 LINE SMOOTH",
"423 701 OFFCURVE",
"404 690 OFFCURVE",
"402 669 CURVE SMOOTH",
"372 388 LINE",
"358 365 OFFCURVE",
"329 330 OFFCURVE",
"286 330 CURVE SMOOTH",
"232 330 OFFCURVE",
"212 350 OFFCURVE",
"212 384 CURVE SMOOTH",
"212 395 OFFCURVE",
"213 407 OFFCURVE",
"242 669 CURVE SMOOTH",
"244 690 OFFCURVE",
"227 701 OFFCURVE",
"185 701 CURVE SMOOTH",
"157 701 LINE SMOOTH",
"115 701 OFFCURVE",
"96 690 OFFCURVE",
"94 669 CURVE SMOOTH",
"66 414 OFFCURVE",
"61 352 OFFCURVE",
"61 338 CURVE SMOOTH",
"61 249 OFFCURVE",
"110 208 OFFCURVE",
"212 208 CURVE SMOOTH",
"288 208 OFFCURVE",
"355 260 OFFCURVE",
"383 301 CURVE",
"366 341 LINE",
"357 242 LINE SMOOTH",
"348 154 OFFCURVE",
"304 108 OFFCURVE",
"226 108 CURVE SMOOTH",
"130 108 OFFCURVE",
"80 149 OFFCURVE",
"59 149 CURVE SMOOTH",
"44 149 OFFCURVE",
"41 110 OFFCURVE",
"41 77 CURVE SMOOTH",
"41 27 OFFCURVE",
"138 -9 OFFCURVE",
"256 -9 CURVE SMOOTH"
);
}
);
};
color = -1;
layerId = "DE974D70-A5B4-43AB-B940-69E4F08CB641";
paths = (
{
closed = 1;
nodes = (
"412 -9 OFFCURVE",
"489 93 OFFCURVE",
"511 296 CURVE SMOOTH",
"550 669 LINE SMOOTH",
"552 690 OFFCURVE",
"535 701 OFFCURVE",
"493 701 CURVE SMOOTH",
"465 701 LINE SMOOTH",
"423 701 OFFCURVE",
"404 690 OFFCURVE",
"402 669 CURVE SMOOTH",
"372 388 LINE",
"358 365 OFFCURVE",
"329 330 OFFCURVE",
"286 330 CURVE SMOOTH",
"232 330 OFFCURVE",
"208 350 OFFCURVE",
"213 394 CURVE SMOOTH",
"242 669 LINE SMOOTH",
"244 690 OFFCURVE",
"227 701 OFFCURVE",
"185 701 CURVE SMOOTH",
"157 701 LINE SMOOTH",
"115 701 OFFCURVE",
"96 690 OFFCURVE",
"94 669 CURVE SMOOTH",
"63 358 LINE SMOOTH",
"52 249 OFFCURVE",
"110 208 OFFCURVE",
"212 208 CURVE SMOOTH",
"288 208 OFFCURVE",
"355 260 OFFCURVE",
"383 301 CURVE",
"366 341 LINE",
"357 242 LINE SMOOTH",
"348 154 OFFCURVE",
"304 108 OFFCURVE",
"226 108 CURVE SMOOTH",
"130 108 OFFCURVE",
"80 149 OFFCURVE",
"59 149 CURVE SMOOTH",
"44 149 OFFCURVE",
"41 110 OFFCURVE",
"41 77 CURVE SMOOTH",
"41 27 OFFCURVE",
"138 -9 OFFCURVE",
"256 -9 CURVE SMOOTH"
);
}
);
width = 559;
}
);
leftKerningGroup = Y.loclGUA;
rightKerningGroup = Y.loclGUA;
},
{
glyphname = a;
layers = (
{
anchors = (
{
name = bottom;
position = "{231, 0}";
},
{
name = ogonek;
position = "{501, 0}";
},
{
name = top;
position = "{298, 523}";
}
);
background = {
paths = (
{
closed = 0;
nodes = (
"363 102 LINE",
"363 30 OFFCURVE",
"387 -6 OFFCURVE",
"453 -6 CURVE SMOOTH",
"471 -6 OFFCURVE",
"508 2 OFFCURVE",
"513 27 CURVE SMOOTH",
"517 49 OFFCURVE",
"517 63 OFFCURVE",
"517 64 CURVE SMOOTH",
"517 70 OFFCURVE",
"514 71 OFFCURVE",
"511 71 CURVE SMOOTH",
"505 71 OFFCURVE",
"493 64 OFFCURVE",
"474 64 CURVE SMOOTH",
"454 64 OFFCURVE",
"445 79 OFFCURVE",
"448 107 CURVE SMOOTH"
);
}
);
};
color = -1;
layerId = UUID0;
paths = (
{
closed = 1;
nodes = (
"265 -6 OFFCURVE",
"322 24 OFFCURVE",
"363 102 CURVE",
"361 32 OFFCURVE",
"387 -6 OFFCURVE",
"453 -6 CURVE SMOOTH",
"471 -6 OFFCURVE",
"508 2 OFFCURVE",
"513 27 CURVE SMOOTH",
"517 49 OFFCURVE",
"517 62 OFFCURVE",
"517 63 CURVE SMOOTH",
"517 69 OFFCURVE",
"514 71 OFFCURVE",
"511 71 CURVE SMOOTH",
"505 71 OFFCURVE",
"493 64 OFFCURVE",
"474 64 CURVE SMOOTH",
"454 64 OFFCURVE",
"445 79 OFFCURVE",
"448 107 CURVE SMOOTH",
"487 494 LINE SMOOTH",
"489 517 OFFCURVE",
"483 525 OFFCURVE",
"463 525 CURVE SMOOTH",
"457 525 LINE SMOOTH",
"429 525 OFFCURVE",
"422 504 OFFCURVE",
"412 475 CURVE",
"390 496 OFFCURVE",
"347 529 OFFCURVE",
"285 529 CURVE SMOOTH",
"136 529 OFFCURVE",
"40 396 OFFCURVE",
"40 210 CURVE SMOOTH",
"40 36 OFFCURVE",
"142 -6 OFFCURVE",
"207 -6 CURVE SMOOTH"
);
},
{
closed = 1;
nodes = (
"172 67 OFFCURVE",
"127 102 OFFCURVE",
"127 216 CURVE SMOOTH",
"127 336 OFFCURVE",
"177 456 OFFCURVE",
"281 456 CURVE SMOOTH",
"341 456 OFFCURVE",
"378 432 OFFCURVE",
"397 417 CURVE",
"394 401 OFFCURVE",
"392 385 OFFCURVE",
"390 367 CURVE SMOOTH",
"375 236 LINE",
"334 104 OFFCURVE",
"270 67 OFFCURVE",
"226 67 CURVE SMOOTH"
);
}
);
width = 545;
},
{
anchors = (
{
name = bottom;
position = "{231, 0}";
},
{
name = ogonek;
position = "{497, 0}";
},
{
name = top;
position = "{300, 523}";
}
);
background = {
paths = (
{
closed = 0;
nodes = (
"318 139 LINE SMOOTH",
"307 29 OFFCURVE",
"359 -8 OFFCURVE",
"437 -8 CURVE SMOOTH",
"472 -8 OFFCURVE",
"518 7 OFFCURVE",
"525 44 CURVE SMOOTH",
"532 79 OFFCURVE",
"532 97 OFFCURVE",
"532 103 CURVE SMOOTH",
"532 112 OFFCURVE",
"530 115 OFFCURVE",
"524 115 CURVE SMOOTH",
"520 115 OFFCURVE",
"509 109 OFFCURVE",
"495 109 CURVE SMOOTH",
"474 109 OFFCURVE",
"463 119 OFFCURVE",
"466 147 CURVE SMOOTH"
);
}
);
};
color = -1;
layerId = "DE974D70-A5B4-43AB-B940-69E4F08CB641";
paths = (
{
closed = 1;
nodes = (
"244 -9 OFFCURVE",
"294 24 OFFCURVE",
"322 68 CURVE",
"336 14 OFFCURVE",
"376 -8 OFFCURVE",
"437 -8 CURVE SMOOTH",
"472 -8 OFFCURVE",
"518 7 OFFCURVE",
"525 44 CURVE SMOOTH",
"532 79 OFFCURVE",
"532 97 OFFCURVE",
"532 103 CURVE SMOOTH",
"532 112 OFFCURVE",
"530 115 OFFCURVE",
"524 115 CURVE SMOOTH",
"520 115 OFFCURVE",
"509 109 OFFCURVE",
"495 109 CURVE SMOOTH",
"474 109 OFFCURVE",
"463 119 OFFCURVE",
"466 147 CURVE SMOOTH",
"501 494 LINE SMOOTH",
"503 515 OFFCURVE",
"484 524 OFFCURVE",
"444 524 CURVE SMOOTH",
"432 524 LINE SMOOTH",
"381 523 OFFCURVE",
"378 513 OFFCURVE",
"367 477 CURVE",
"346 497 OFFCURVE",
"303 530 OFFCURVE",
"246 530 CURVE SMOOTH",
"115 530 OFFCURVE",
"24 400 OFFCURVE",
"24 208 CURVE SMOOTH",
"24 67 OFFCURVE",
"89 -9 OFFCURVE",
"186 -9 CURVE SMOOTH"
);
},
{
closed = 1;
nodes = (
"196 112 OFFCURVE",
"174 148 OFFCURVE",
"174 217 CURVE SMOOTH",
"174 345 OFFCURVE",
"213 413 OFFCURVE",
"280 413 CURVE SMOOTH",
"308 413 OFFCURVE",
"329 401 OFFCURVE",
"346 386 CURVE",
"340 364 OFFCURVE",
"338 346 OFFCURVE",
"334 305 CURVE SMOOTH",
"320 170 LINE",
"300 139 OFFCURVE",
"274 112 OFFCURVE",
"242 112 CURVE SMOOTH"
);
}
);
width = 545;
}
);
leftKerningGroup = o;
rightKerningGroup = n;
unicode = 0061;
},
{
glyphname = ae;
layers = (
{
anchors = (
{
name = top;
position = "{442, 523}";
}
);
background = {
paths = (
{
closed = 1;
nodes = (
"29 34 OFFCURVE",
"95 -6 OFFCURVE",
"185 -6 CURVE SMOOTH",
"253 -6 OFFCURVE",
"330 22 OFFCURVE",
"375 58 CURVE",
"421 5 OFFCURVE",
"494 -6 OFFCURVE",
"557 -6 CURVE SMOOTH",
"600 -6 OFFCURVE",
"712 11 OFFCURVE",
"721 58 CURVE SMOOTH",
"725 79 OFFCURVE",
"726 100 OFFCURVE",
"726 103 CURVE SMOOTH",
"726 115 OFFCURVE",
"723 115 OFFCURVE",
"719 115 CURVE SMOOTH",
"705 115 OFFCURVE",
"654 66 OFFCURVE",
"564 66 CURVE SMOOTH",
"476 66 OFFCURVE",
"418 99 OFFCURVE",
"418 210 CURVE SMOOTH",
"418 226 LINE",
"504 226 LINE SMOOTH",
"640 226 OFFCURVE",
"774 265 OFFCURVE",
"774 396 CURVE SMOOTH",
"774 451 OFFCURVE",
"732 529 OFFCURVE",
"606 529 CURVE SMOOTH",
"536 529 OFFCURVE",
"482 510 OFFCURVE",
"440 478 CURVE",
"410 511 OFFCURVE",
"358 529 OFFCURVE",
"290 529 CURVE SMOOTH",
"189 529 OFFCURVE",
"95 490 OFFCURVE",
"95 464 CURVE SMOOTH",
"95 452 OFFCURVE",
"111 415 OFFCURVE",
"125 415 CURVE SMOOTH",
"135 415 OFFCURVE",
"194 457 OFFCURVE",
"285 457 CURVE SMOOTH",
"341 457 OFFCURVE",
"371 439 OFFCURVE",
"383 414 CURVE",
"362 380 OFFCURVE",
"347 340 OFFCURVE",
"339 296 CURVE",
"193 292 OFFCURVE",
"29 271 OFFCURVE",
"29 123 CURVE SMOOTH"
);
},
{
closed = 1;
nodes = (
"120 221 OFFCURVE",
"265 226 OFFCURVE",
"331 226 CURVE",
"328 184 OFFCURVE",
"333 146 OFFCURVE",
"343 117 CURVE",
"302 89 OFFCURVE",
"250 67 OFFCURVE",
"197 67 CURVE SMOOTH",
"144 67 OFFCURVE",
"120 89 OFFCURVE",
"120 132 CURVE SMOOTH"
);
},
{
closed = 1;
nodes = (
"441 385 OFFCURVE",
"487 457 OFFCURVE",
"597 457 CURVE SMOOTH",
"654 457 OFFCURVE",
"687 430 OFFCURVE",
"687 388 CURVE SMOOTH",
"687 302 OFFCURVE",
"523 298 OFFCURVE",
"494 298 CURVE SMOOTH",
"425 298 LINE"
);
}
);
};
color = -1;
layerId = UUID0;
paths = (
{
closed = 1;
nodes = (
"253 -6 OFFCURVE",
"330 22 OFFCURVE",
"375 58 CURVE",
"421 5 OFFCURVE",
"494 -6 OFFCURVE",
"557 -6 CURVE SMOOTH",
"600 -6 OFFCURVE",
"712 11 OFFCURVE",
"721 58 CURVE SMOOTH",
"725 79 OFFCURVE",
"726 100 OFFCURVE",
"726 103 CURVE SMOOTH",
"726 115 OFFCURVE",
"723 115 OFFCURVE",
"719 115 CURVE SMOOTH",
"705 115 OFFCURVE",
"654 66 OFFCURVE",
"564 66 CURVE SMOOTH",
"456 66 OFFCURVE",
"411 116 OFFCURVE",
"418 226 CURVE",
"432 226 OFFCURVE",
"445 226 OFFCURVE",
"458 226 CURVE SMOOTH",
"644 226 OFFCURVE",
"774 255 OFFCURVE",
"774 396 CURVE SMOOTH",
"774 451 OFFCURVE",
"732 529 OFFCURVE",
"606 529 CURVE SMOOTH",
"536 529 OFFCURVE",
"482 510 OFFCURVE",
"440 478 CURVE",
"410 511 OFFCURVE",
"358 529 OFFCURVE",
"290 529 CURVE SMOOTH",
"189 529 OFFCURVE",
"95 490 OFFCURVE",
"95 464 CURVE SMOOTH",
"95 452 OFFCURVE",
"111 415 OFFCURVE",
"125 415 CURVE SMOOTH",
"135 415 OFFCURVE",
"194 457 OFFCURVE",
"285 457 CURVE SMOOTH",
"341 457 OFFCURVE",
"371 439 OFFCURVE",
"383 414 CURVE",
"362 380 OFFCURVE",
"347 340 OFFCURVE",
"339 296 CURVE",
"193 292 OFFCURVE",
"29 271 OFFCURVE",
"29 123 CURVE SMOOTH",
"29 34 OFFCURVE",
"95 -6 OFFCURVE",
"185 -6 CURVE SMOOTH"
);
},
{
closed = 1;
nodes = (
"144 67 OFFCURVE",
"120 89 OFFCURVE",
"120 132 CURVE SMOOTH",
"120 221 OFFCURVE",
"265 226 OFFCURVE",
"331 226 CURVE",
"328 184 OFFCURVE",
"333 146 OFFCURVE",
"343 117 CURVE",
"302 89 OFFCURVE",
"250 67 OFFCURVE",
"197 67 CURVE SMOOTH"
);
},
{
closed = 1;
nodes = (
"441 385 OFFCURVE",
"487 457 OFFCURVE",
"597 457 CURVE SMOOTH",
"654 457 OFFCURVE",
"687 430 OFFCURVE",
"687 388 CURVE SMOOTH",
"687 319 OFFCURVE",
"604 295 OFFCURVE",
"425 298 CURVE"
);
}
);
width = 819;
},
{
anchors = (
{
name = top;
position = "{442, 523}";
}
);
background = {
paths = (
{
closed = 1;
nodes = (
"264 -8 OFFCURVE",
"336 32 OFFCURVE",
"368 58 CURVE",
"406 16 OFFCURVE",
"467 -8 OFFCURVE",
"554 -8 CURVE SMOOTH",
"609 -8 OFFCURVE",
"712 7 OFFCURVE",
"728 62 CURVE SMOOTH",
"733 78 OFFCURVE",
"735 135 OFFCURVE",
"736 139 CURVE",
"736 153 OFFCURVE",
"732 153 OFFCURVE",
"728 153 CURVE SMOOTH",
"717 153 OFFCURVE",
"653 109 OFFCURVE",
"573 109 CURVE SMOOTH",
"514 109 OFFCURVE",
"464 132 OFFCURVE",
"468 210 CURVE",
"496 206 OFFCURVE",
"528 203 OFFCURVE",
"572 203 CURVE SMOOTH",
"671 203 OFFCURVE",
"787 253 OFFCURVE",
"787 386 CURVE SMOOTH",
"787 438 OFFCURVE",
"756 531 OFFCURVE",
"593 531 CURVE SMOOTH",
"540 531 OFFCURVE",
"489 520 OFFCURVE",
"446 494 CURVE",
"412 518 OFFCURVE",
"357 531 OFFCURVE",
"288 531 CURVE SMOOTH",
"187 531 OFFCURVE",
"90 493 OFFCURVE",
"90 458 CURVE SMOOTH",
"90 435 OFFCURVE",
"113 382 OFFCURVE",
"133 382 CURVE SMOOTH",
"145 382 OFFCURVE",
"204 414 OFFCURVE",
"265 414 CURVE SMOOTH",
"306 414 OFFCURVE",
"334 411 OFFCURVE",
"352 389 CURVE",
"342 368 OFFCURVE",
"334 343 OFFCURVE",
"328 316 CURVE",
"64 314 OFFCURVE",
"25 209 OFFCURVE",
"25 122 CURVE SMOOTH",
"25 43 OFFCURVE",
"77 -8 OFFCURVE",
"179 -8 CURVE SMOOTH"
);
},
{
closed = 1;
nodes = (
"190 109 OFFCURVE",
"174 125 OFFCURVE",
"174 147 CURVE SMOOTH",
"174 198 OFFCURVE",
"223 223 OFFCURVE",
"318 224 CURVE",
"318 198 OFFCURVE",
"319 178 OFFCURVE",
"323 152 CURVE",
"299 124 OFFCURVE",
"253 109 OFFCURVE",
"220 109 CURVE SMOOTH"
);
},
{
closed = 1;
nodes = (
"489 364 OFFCURVE",
"521 414 OFFCURVE",
"583 414 CURVE SMOOTH",
"618 414 OFFCURVE",
"643 400 OFFCURVE",
"643 367 CURVE SMOOTH",
"643 316 OFFCURVE",
"588 297 OFFCURVE",
"475 302 CURVE"
);
}
);
};
color = -1;
layerId = "DE974D70-A5B4-43AB-B940-69E4F08CB641";
paths = (
{
closed = 1;
nodes = (
"264 -8 OFFCURVE",
"336 32 OFFCURVE",
"368 58 CURVE",
"406 16 OFFCURVE",
"467 -8 OFFCURVE",
"554 -8 CURVE SMOOTH",
"609 -8 OFFCURVE",
"712 7 OFFCURVE",
"728 62 CURVE SMOOTH",
"733 78 OFFCURVE",
"735 135 OFFCURVE",
"736 139 CURVE",
"736 153 OFFCURVE",
"732 153 OFFCURVE",
"728 153 CURVE SMOOTH",
"717 153 OFFCURVE",
"653 109 OFFCURVE",
"573 109 CURVE SMOOTH",
"514 109 OFFCURVE",
"464 132 OFFCURVE",
"468 210 CURVE",
"496 206 OFFCURVE",
"528 203 OFFCURVE",
"572 203 CURVE SMOOTH",
"671 203 OFFCURVE",
"787 253 OFFCURVE",
"787 386 CURVE SMOOTH",
"787 438 OFFCURVE",
"756 531 OFFCURVE",
"593 531 CURVE SMOOTH",
"540 531 OFFCURVE",
"489 520 OFFCURVE",
"446 494 CURVE",
"412 518 OFFCURVE",
"357 531 OFFCURVE",
"288 531 CURVE SMOOTH",
"187 531 OFFCURVE",
"90 493 OFFCURVE",
"90 458 CURVE SMOOTH",
"90 435 OFFCURVE",
"113 382 OFFCURVE",
"133 382 CURVE SMOOTH",
"145 382 OFFCURVE",
"204 414 OFFCURVE",
"265 414 CURVE SMOOTH",
"306 414 OFFCURVE",
"334 411 OFFCURVE",
"352 389 CURVE",
"342 368 OFFCURVE",
"334 343 OFFCURVE",
"328 316 CURVE",
"64 314 OFFCURVE",
"25 209 OFFCURVE",
"25 122 CURVE SMOOTH",
"25 43 OFFCURVE",
"77 -8 OFFCURVE",
"179 -8 CURVE SMOOTH"
);
},
{
closed = 1;
nodes = (
"190 109 OFFCURVE",
"174 125 OFFCURVE",
"174 147 CURVE SMOOTH",
"174 198 OFFCURVE",
"223 223 OFFCURVE",
"318 224 CURVE",
"318 198 OFFCURVE",
"319 178 OFFCURVE",
"323 152 CURVE",
"299 124 OFFCURVE",
"253 109 OFFCURVE",
"220 109 CURVE SMOOTH"
);
},
{
closed = 1;
nodes = (
"489 364 OFFCURVE",
"521 414 OFFCURVE",
"583 414 CURVE SMOOTH",
"618 414 OFFCURVE",
"643 400 OFFCURVE",
"643 367 CURVE SMOOTH",
"643 316 OFFCURVE",
"588 297 OFFCURVE",
"475 302 CURVE"
);
}
);
width = 819;
}
);
leftKerningGroup = o;
rightKerningGroup = e;
unicode = 00E6;
},
{
glyphname = b;
layers = (
{
color = -1;
layerId = UUID0;
paths = (
{
closed = 1;
nodes = (
"407 -6 OFFCURVE",
"511 130 OFFCURVE",
"511 316 CURVE SMOOTH",
"511 490 OFFCURVE",
"397 529 OFFCURVE",
"324 529 CURVE SMOOTH",
"265 529 OFFCURVE",
"207 499 OFFCURVE",
"165 425 CURVE",
"197 730 LINE",
"197 745 OFFCURVE",
"187 752 OFFCURVE",
"159 752 CURVE SMOOTH",
"155 752 LINE SMOOTH",
"129 752 OFFCURVE",
"115 746 OFFCURVE",
"113 730 CURVE SMOOTH",
"38 20 LINE SMOOTH",
"37 6 OFFCURVE",
"43 -2 OFFCURVE",
"63 -2 CURVE SMOOTH",
"71 -2 LINE SMOOTH",
"93 -2 OFFCURVE",
"106 23 OFFCURVE",
"113 48 CURVE",
"136 26 OFFCURVE",
"182 -6 OFFCURVE",
"246 -6 CURVE SMOOTH"
);
},
{
closed = 1;
nodes = (
"185 67 OFFCURVE",
"148 90 OFFCURVE",
"129 106 CURVE",
"132 121 OFFCURVE",
"135 138 OFFCURVE",
"137 156 CURVE SMOOTH",
"151 290 LINE",
"193 420 OFFCURVE",
"260 456 OFFCURVE",
"305 456 CURVE SMOOTH",
"371 456 OFFCURVE",
"424 424 OFFCURVE",
"424 310 CURVE SMOOTH",
"424 190 OFFCURVE",
"387 67 OFFCURVE",
"238 67 CURVE SMOOTH"
);
}
);
width = 569;
},
{
color = -1;
layerId = "DE974D70-A5B4-43AB-B940-69E4F08CB641";
paths = (
{
closed = 1;
nodes = (
"425 -8 OFFCURVE",
"524 122 OFFCURVE",
"524 314 CURVE SMOOTH",
"524 455 OFFCURVE",
"451 531 OFFCURVE",
"342 531 CURVE SMOOTH",
"292 531 OFFCURVE",
"250 508 OFFCURVE",
"221 474 CURVE",
"248 723 LINE",
"248 739 OFFCURVE",
"231 754 OFFCURVE",
"191 754 CURVE SMOOTH",
"163 754 LINE SMOOTH",
"124 754 OFFCURVE",
"102 743 OFFCURVE",
"100 722 CURVE SMOOTH",
"26 26 LINE SMOOTH",
"24 7 OFFCURVE",
"44 -2 OFFCURVE",
"84 -2 CURVE SMOOTH",
"96 -2 LINE SMOOTH",
"146 -1 OFFCURVE",
"150 9 OFFCURVE",
"161 44 CURVE",
"183 23 OFFCURVE",
"225 -8 OFFCURVE",
"282 -8 CURVE SMOOTH"
);
},
{
closed = 1;
nodes = (
"220 109 OFFCURVE",
"199 121 OFFCURVE",
"183 135 CURVE",
"187 164 OFFCURVE",
"192 194 OFFCURVE",
"195 223 CURVE SMOOTH",
"209 354 LINE",
"229 384 OFFCURVE",
"254 410 OFFCURVE",
"286 410 CURVE SMOOTH",
"347 410 OFFCURVE",
"374 377 OFFCURVE",
"374 305 CURVE SMOOTH",
"374 177 OFFCURVE",
"327 109 OFFCURVE",
"248 109 CURVE SMOOTH"
);
}
);
width = 569;
}
);
leftKerningGroup = h;
rightKerningGroup = p;
unicode = 0062;
},
{
glyphname = c;
layers = (
{
anchors = (
{
name = bottom;
position = "{266, 0}";
},
{
name = top;
position = "{310, 523}";
}
);
background = {
paths = (
{
closed = 1;
nodes = (
"119 529 OFFCURVE",
"47 376 OFFCURVE",
"47 204 CURVE SMOOTH",
"47 55 OFFCURVE",
"122 -6 OFFCURVE",
"263 -6 CURVE SMOOTH",
"294 -6 OFFCURVE",
"397 0 OFFCURVE",
"405 40 CURVE SMOOTH",
"409 60 OFFCURVE",
"410 83 OFFCURVE",
"410 85 CURVE SMOOTH",
"410 96 OFFCURVE",
"408 97 OFFCURVE",
"404 97 CURVE SMOOTH",
"400 97 OFFCURVE",
"392 93 OFFCURVE",
"380 88 CURVE SMOOTH",
"358 79 OFFCURVE",
"322 66 OFFCURVE",
"270 66 CURVE SMOOTH",
"176 66 OFFCURVE",
"134 110 OFFCURVE",
"134 210 CURVE SMOOTH",
"134 391 OFFCURVE",
"208 457 OFFCURVE",
"301 457 CURVE SMOOTH",
"347 457 OFFCURVE",
"374 447 OFFCURVE",
"390 439 CURVE SMOOTH",
"402 432 OFFCURVE",
"409 427 OFFCURVE",
"412 427 CURVE SMOOTH",
"429 427 OFFCURVE",
"451 464 OFFCURVE",
"451 477 CURVE SMOOTH",
"451 498 OFFCURVE",
"402 529 OFFCURVE",
"311 529 CURVE SMOOTH"
);
}
);
};
color = -1;
layerId = UUID0;
paths = (
{
closed = 1;
nodes = (
"344 -6 OFFCURVE",
"420 22 OFFCURVE",
"420 47 CURVE SMOOTH",
"420 62 OFFCURVE",
"405 96 OFFCURVE",
"392 96 CURVE SMOOTH",
"391 96 OFFCURVE",
"386 94 OFFCURVE",
"380 92 CURVE",
"361 83 OFFCURVE",
"320 66 OFFCURVE",
"274 66 CURVE SMOOTH",
"177 66 OFFCURVE",
"137 111 OFFCURVE",
"137 212 CURVE SMOOTH",
"137 371 OFFCURVE",
"197 457 OFFCURVE",
"306 457 CURVE SMOOTH",
"357 457 OFFCURVE",
"391 441 OFFCURVE",
"407 433 CURVE SMOOTH",
"411 431 OFFCURVE",
"416 429 OFFCURVE",
"418 429 CURVE SMOOTH",
"429 429 OFFCURVE",
"455 468 OFFCURVE",
"455 484 CURVE SMOOTH",
"455 508 OFFCURVE",
"386 529 OFFCURVE",
"315 529 CURVE SMOOTH",
"146 529 OFFCURVE",
"47 410 OFFCURVE",
"47 206 CURVE SMOOTH",
"47 56 OFFCURVE",
"123 -6 OFFCURVE",
"268 -6 CURVE SMOOTH"
);
}
);
width = 485;
},
{
anchors = (
{
name = bottom;
position = "{266, 0}";
},
{
name = top;
position = "{301, 523}";
}
);
background = {
paths = (
{
closed = 1;
nodes = (
"102 531 OFFCURVE",
"33 378 OFFCURVE",
"33 204 CURVE SMOOTH",
"33 61 OFFCURVE",
"107 -8 OFFCURVE",
"260 -8 CURVE SMOOTH",
"312 -8 OFFCURVE",
"405 8 OFFCURVE",
"423 58 CURVE",
"428 75 OFFCURVE",
"431 131 OFFCURVE",
"431 135 CURVE SMOOTH",
"431 149 OFFCURVE",
"428 149 OFFCURVE",
"424 149 CURVE SMOOTH",
"420 149 OFFCURVE",
"413 146 OFFCURVE",
"403 141 CURVE SMOOTH",
"379 129 OFFCURVE",
"337 109 OFFCURVE",
"279 109 CURVE SMOOTH",
"214 109 OFFCURVE",
"186 145 OFFCURVE",
"186 219 CURVE SMOOTH",
"186 349 OFFCURVE",
"229 414 OFFCURVE",
"318 414 CURVE SMOOTH",
"362 414 OFFCURVE",
"385 401 OFFCURVE",
"400 393 CURVE SMOOTH",
"407 389 OFFCURVE",
"411 386 OFFCURVE",
"416 386 CURVE SMOOTH",
"437 386 OFFCURVE",
"471 443 OFFCURVE",
"471 462 CURVE SMOOTH",
"470 520 OFFCURVE",
"361 531 OFFCURVE",
"313 531 CURVE SMOOTH"
);
}
);
};
color = -1;
layerId = "DE974D70-A5B4-43AB-B940-69E4F08CB641";
paths = (
{
closed = 1;
nodes = (
"291 -8 OFFCURVE",
"432 7 OFFCURVE",
"432 65 CURVE SMOOTH",
"432 87 OFFCURVE",
"409 138 OFFCURVE",
"388 138 CURVE SMOOTH",
"384 138 OFFCURVE",
"378 135 OFFCURVE",
"370 132 CURVE SMOOTH",
"346 123 OFFCURVE",
"320 109 OFFCURVE",
"279 109 CURVE SMOOTH",
"214 109 OFFCURVE",
"186 146 OFFCURVE",
"186 221 CURVE SMOOTH",
"186 347 OFFCURVE",
"231 414 OFFCURVE",
"317 414 CURVE SMOOTH",
"354 414 OFFCURVE",
"375 401 OFFCURVE",
"390 393 CURVE SMOOTH",
"405 385 OFFCURVE",
"407 385 OFFCURVE",
"409 385 CURVE SMOOTH",
"426 385 OFFCURVE",
"471 444 OFFCURVE",
"471 465 CURVE SMOOTH",
"471 509 OFFCURVE",
"381 531 OFFCURVE",
"322 531 CURVE SMOOTH",
"134 531 OFFCURVE",
"33 417 OFFCURVE",
"33 205 CURVE SMOOTH",
"33 62 OFFCURVE",
"107 -8 OFFCURVE",
"260 -8 CURVE SMOOTH"
);
}
);
width = 485;
}
);
leftKerningGroup = o;
rightKerningGroup = c;
unicode = 0063;
},
{
glyphname = d;
layers = (
{
anchors = (
{
name = bottom;
position = "{261, 0}";
},
{
name = center;
position = "{464, 630}";
},
{
name = topright;
position = "{591, 752}";
}
);
background = {
paths = (
{
closed = 1;
nodes = (
"289 -6 OFFCURVE",
"348 24 OFFCURVE",
"390 102 CURVE",
"390 30 OFFCURVE",
"414 -6 OFFCURVE",
"480 -6 CURVE SMOOTH",
"498 -6 OFFCURVE",
"535 2 OFFCURVE",
"540 27 CURVE SMOOTH",
"544 49 OFFCURVE",
"544 63 OFFCURVE",
"544 64 CURVE SMOOTH",
"544 70 OFFCURVE",
"541 71 OFFCURVE",
"538 71 CURVE SMOOTH",
"532 71 OFFCURVE",
"520 64 OFFCURVE",
"508 64 CURVE SMOOTH",
"492 64 OFFCURVE",
"471 66 OFFCURVE",
"475 107 CURVE SMOOTH",
"539 726 LINE SMOOTH",
"541 745 OFFCURVE",
"531 752 OFFCURVE",
"501 752 CURVE SMOOTH",
"497 752 LINE SMOOTH",
"471 752 OFFCURVE",
"457 746 OFFCURVE",
"455 730 CURVE SMOOTH",
"428 484 LINE",
"403 505 OFFCURVE",
"362 529 OFFCURVE",
"292 529 CURVE SMOOTH",
"140 529 OFFCURVE",
"41 396 OFFCURVE",
"41 210 CURVE SMOOTH",
"41 36 OFFCURVE",
"156 -6 OFFCURVE",
"229 -6 CURVE SMOOTH"
);
},
{
closed = 1;
nodes = (
"173 67 OFFCURVE",
"129 102 OFFCURVE",
"129 216 CURVE SMOOTH",
"129 336 OFFCURVE",
"166 456 OFFCURVE",
"304 456 CURVE SMOOTH",
"365 456 OFFCURVE",
"401 434 OFFCURVE",
"421 418 CURVE",
"402 234 LINE",
"360 103 OFFCURVE",
"293 67 OFFCURVE",
"248 67 CURVE SMOOTH"
);
}
);
};
color = -1;
layerId = UUID0;
paths = (
{
closed = 1;
nodes = (
"289 -6 OFFCURVE",
"348 24 OFFCURVE",
"390 102 CURVE",
"390 30 OFFCURVE",
"414 -6 OFFCURVE",
"480 -6 CURVE SMOOTH",
"498 -6 OFFCURVE",
"535 2 OFFCURVE",
"540 27 CURVE SMOOTH",
"544 49 OFFCURVE",
"544 62 OFFCURVE",
"544 63 CURVE SMOOTH",
"544 69 OFFCURVE",
"541 71 OFFCURVE",
"538 71 CURVE SMOOTH",
"532 71 OFFCURVE",
"520 64 OFFCURVE",
"501 64 CURVE SMOOTH",
"481 64 OFFCURVE",
"472 79 OFFCURVE",
"475 107 CURVE SMOOTH",
"539 726 LINE SMOOTH",
"541 745 OFFCURVE",
"531 752 OFFCURVE",
"501 752 CURVE SMOOTH",
"497 752 LINE SMOOTH",
"471 752 OFFCURVE",
"457 746 OFFCURVE",
"455 730 CURVE SMOOTH",
"428 484 LINE",
"403 505 OFFCURVE",
"362 529 OFFCURVE",
"292 529 CURVE SMOOTH",
"140 529 OFFCURVE",
"41 396 OFFCURVE",
"41 210 CURVE SMOOTH",
"41 36 OFFCURVE",
"156 -6 OFFCURVE",
"229 -6 CURVE SMOOTH"
);
},
{
closed = 1;
nodes = (
"173 67 OFFCURVE",
"129 102 OFFCURVE",
"129 216 CURVE SMOOTH",
"129 336 OFFCURVE",
"166 456 OFFCURVE",
"304 456 CURVE SMOOTH",
"365 456 OFFCURVE",
"401 434 OFFCURVE",
"421 418 CURVE",
"402 234 LINE",
"360 103 OFFCURVE",
"293 67 OFFCURVE",
"248 67 CURVE SMOOTH"
);
}
);
width = 565;
},
{
anchors = (
{
name = bottom;
position = "{251, 0}";
},
{
name = center;
position = "{447, 630}";
},
{
name = topright;
position = "{562, 752}";
}
);
background = {
paths = (
{
closed = 0;
nodes = (
"330 139 LINE SMOOTH",
"319 29 OFFCURVE",
"371 -8 OFFCURVE",
"449 -8 CURVE SMOOTH",
"484 -8 OFFCURVE",
"530 7 OFFCURVE",
"537 44 CURVE SMOOTH",
"544 79 OFFCURVE",
"544 97 OFFCURVE",
"544 103 CURVE SMOOTH",
"544 112 OFFCURVE",
"542 115 OFFCURVE",
"536 115 CURVE SMOOTH",
"532 115 OFFCURVE",
"521 109 OFFCURVE",
"507 109 CURVE SMOOTH",
"486 109 OFFCURVE",
"475 119 OFFCURVE",
"478 147 CURVE SMOOTH"
);
}
);
};
color = -1;
layerId = "DE974D70-A5B4-43AB-B940-69E4F08CB641";
paths = (
{
closed = 1;
nodes = (
"257 -8 OFFCURVE",
"306 24 OFFCURVE",
"334 69 CURVE",
"348 15 OFFCURVE",
"387 -8 OFFCURVE",
"449 -8 CURVE SMOOTH",
"484 -8 OFFCURVE",
"530 7 OFFCURVE",
"537 44 CURVE SMOOTH",
"544 79 OFFCURVE",
"544 97 OFFCURVE",
"544 103 CURVE SMOOTH",
"544 112 OFFCURVE",
"542 115 OFFCURVE",
"536 115 CURVE SMOOTH",
"532 115 OFFCURVE",
"521 109 OFFCURVE",
"507 109 CURVE SMOOTH",
"486 109 OFFCURVE",
"475 119 OFFCURVE",
"478 147 CURVE SMOOTH",
"538 720 LINE SMOOTH",
"540 739 OFFCURVE",
"521 754 OFFCURVE",
"481 754 CURVE SMOOTH",
"453 754 LINE SMOOTH",
"414 754 OFFCURVE",
"392 743 OFFCURVE",
"390 722 CURVE SMOOTH",
"365 490 LINE",
"342 509 OFFCURVE",
"305 531 OFFCURVE",
"258 531 CURVE SMOOTH",
"121 531 OFFCURVE",
"26 401 OFFCURVE",
"26 209 CURVE SMOOTH",
"26 68 OFFCURVE",
"95 -8 OFFCURVE",
"198 -8 CURVE SMOOTH"
);
},
{
closed = 1;
nodes = (
"202 113 OFFCURVE",
"176 149 OFFCURVE",
"176 218 CURVE SMOOTH",
"176 346 OFFCURVE",
"219 414 OFFCURVE",
"292 414 CURVE SMOOTH",
"318 414 OFFCURVE",
"339 403 OFFCURVE",
"355 390 CURVE",
"333 172 LINE",
"313 140 OFFCURVE",
"287 113 OFFCURVE",
"254 113 CURVE SMOOTH"
);
}
);
width = 565;
}
);
leftKerningGroup = o;
rightKerningGroup = d;
unicode = 0064;
},
{
glyphname = eth;
layers = (
{
color = -1;
layerId = UUID0;
paths = (
{
closed = 1;
nodes = (
"431 -6 OFFCURVE",
"509 127 OFFCURVE",
"509 294 CURVE SMOOTH",
"509 423 OFFCURVE",
"464 572 OFFCURVE",
"378 697 CURVE SMOOTH",
"371 707 OFFCURVE",
"366 713 OFFCURVE",
"352 713 CURVE SMOOTH",
"341 713 OFFCURVE",
"318 710 OFFCURVE",
"312 709 CURVE SMOOTH",
"304 708 OFFCURVE",
"300 704 OFFCURVE",
"300 699 CURVE SMOOTH",
"300 696 OFFCURVE",
"301 693 OFFCURVE",
"304 689 CURVE",
"355 610 OFFCURVE",
"401 507 OFFCURVE",
"413 450 CURVE",
"441 449 LINE",
"410 507 OFFCURVE",
"349 529 OFFCURVE",
"287 529 CURVE SMOOTH",
"135 529 OFFCURVE",
"42 409 OFFCURVE",
"42 234 CURVE SMOOTH",
"42 79 OFFCURVE",
"124 -6 OFFCURVE",
"261 -6 CURVE SMOOTH"
);
},
{
closed = 1;
nodes = (
"170 66 OFFCURVE",
"128 132 OFFCURVE",
"128 244 CURVE SMOOTH",
"128 380 OFFCURVE",
"180 457 OFFCURVE",
"286 457 CURVE SMOOTH",
"370 457 OFFCURVE",
"422 409 OFFCURVE",
"422 277 CURVE SMOOTH",
"422 143 OFFCURVE",
"369 66 OFFCURVE",
"261 66 CURVE SMOOTH"
);
},
{
closed = 1;
nodes = (
"488 626 LINE SMOOTH",
"496 627 OFFCURVE",
"504 630 OFFCURVE",
"504 641 CURVE SMOOTH",
"504 650 OFFCURVE",
"500 673 OFFCURVE",
"483 671 CURVE SMOOTH",
"254 640 LINE SMOOTH",
"246 639 OFFCURVE",
"237 636 OFFCURVE",
"237 624 CURVE SMOOTH",
"237 611 OFFCURVE",
"247 593 OFFCURVE",
"260 595 CURVE SMOOTH"
);
}
);
width = 569;
},
{
color = -1;
layerId = "DE974D70-A5B4-43AB-B940-69E4F08CB641";
paths = (
{
closed = 1;
nodes = (
"441 -8 OFFCURVE",
"531 102 OFFCURVE",
"531 307 CURVE SMOOTH",
"531 435 OFFCURVE",
"496 566 OFFCURVE",
"419 680 CURVE SMOOTH",
"400 709 OFFCURVE",
"390 715 OFFCURVE",
"367 715 CURVE SMOOTH",
"351 715 OFFCURVE",
"313 712 OFFCURVE",
"297 708 CURVE SMOOTH",
"289 706 OFFCURVE",
"282 702 OFFCURVE",
"282 695 CURVE SMOOTH",
"282 689 OFFCURVE",
"285 682 OFFCURVE",
"289 675 CURVE SMOOTH",
"315 629 OFFCURVE",
"370 564 OFFCURVE",
"380 477 CURVE",
"395 473 LINE",
"370 521 OFFCURVE",
"328 531 OFFCURVE",
"279 531 CURVE SMOOTH",
"144 531 OFFCURVE",
"40 419 OFFCURVE",
"40 236 CURVE SMOOTH",
"40 73 OFFCURVE",
"123 -8 OFFCURVE",
"270 -8 CURVE SMOOTH"
);
},
{
closed = 1;
nodes = (
"225 109 OFFCURVE",
"190 149 OFFCURVE",
"190 247 CURVE SMOOTH",
"190 354 OFFCURVE",
"232 414 OFFCURVE",
"298 414 CURVE SMOOTH",
"357 414 OFFCURVE",
"380 367 OFFCURVE",
"380 278 CURVE SMOOTH",
"380 174 OFFCURVE",
"348 109 OFFCURVE",
"279 109 CURVE SMOOTH"
);
},
{
closed = 1;
nodes = (
"511 612 LINE SMOOTH",
"518 613 OFFCURVE",
"533 614 OFFCURVE",
"533 633 CURVE SMOOTH",
"533 654 OFFCURVE",
"517 672 OFFCURVE",
"501 670 CURVE SMOOTH",
"266 639 LINE SMOOTH",
"257 638 OFFCURVE",
"243 635 OFFCURVE",
"243 618 CURVE SMOOTH",
"243 601 OFFCURVE",
"258 578 OFFCURVE",
"277 581 CURVE SMOOTH"
);
}
);
width = 569;
}
);
leftKerningGroup = o;
rightKerningGroup = o;
unicode = 00F0;
},
{
glyphname = dcroat;
layers = (
{
color = -1;
components = (
{
name = d;
}
);
layerId = UUID0;
paths = (
{
closed = 1;
nodes = (
"578 595 LINE SMOOTH",
"591 595 OFFCURVE",
"599 604 OFFCURVE",
"601 625 CURVE SMOOTH",
"602 635 LINE SMOOTH",
"604 656 OFFCURVE",
"599 665 OFFCURVE",
"585 665 CURVE SMOOTH",
"262 665 LINE SMOOTH",
"250 665 OFFCURVE",
"241 656 OFFCURVE",
"239 635 CURVE SMOOTH",
"238 625 LINE SMOOTH",
"236 604 OFFCURVE",
"240 595 OFFCURVE",
"255 595 CURVE"
);
}
);
width = 565;
},
{
color = -1;
components = (
{
name = d;
}
);
layerId = "DE974D70-A5B4-43AB-B940-69E4F08CB641";
paths = (
{
closed = 1;
nodes = (
"568 585 LINE SMOOTH",
"591 585 OFFCURVE",
"599 599 OFFCURVE",
"602 625 CURVE SMOOTH",
"604 640 LINE SMOOTH",
"608 668 OFFCURVE",
"597 680 OFFCURVE",
"578 680 CURVE SMOOTH",
"234 680 LINE SMOOTH",
"211 680 OFFCURVE",
"203 663 OFFCURVE",
"200 640 CURVE SMOOTH",
"198 625 LINE SMOOTH",
"194 598 OFFCURVE",
"204 585 OFFCURVE",
"224 585 CURVE"
);
}
);
width = 565;
}
);
leftKerningGroup = o;
rightKerningGroup = d;
unicode = 0111;
},
{
glyphname = e;
layers = (
{
anchors = (
{
name = bottom;
position = "{270, 0}";
},
{
name = ogonek;
position = "{369, 0}";
},
{
name = top;
position = "{310, 523}";
}
);
color = -1;
layerId = UUID0;
paths = (
{
closed = 1;
nodes = (
"125 529 OFFCURVE",
"46 380 OFFCURVE",
"46 201 CURVE SMOOTH",
"46 22 OFFCURVE",
"173 -6 OFFCURVE",
"272 -6 CURVE SMOOTH",
"315 -6 OFFCURVE",
"427 11 OFFCURVE",
"436 58 CURVE SMOOTH",
"440 79 OFFCURVE",
"441 100 OFFCURVE",
"441 103 CURVE SMOOTH",
"441 115 OFFCURVE",
"438 115 OFFCURVE",
"434 115 CURVE SMOOTH",
"420 115 OFFCURVE",
"369 66 OFFCURVE",
"279 66 CURVE SMOOTH",
"191 66 OFFCURVE",
"133 99 OFFCURVE",
"133 210 CURVE SMOOTH",
"133 259 LINE",
"116 224 LINE",
"138 218 OFFCURVE",
"171 213 OFFCURVE",
"219 213 CURVE SMOOTH",
"355 213 OFFCURVE",
"489 257 OFFCURVE",
"489 396 CURVE SMOOTH",
"489 447 OFFCURVE",
"447 529 OFFCURVE",
"315 529 CURVE SMOOTH"
);
},
{
closed = 1;
nodes = (
"366 457 OFFCURVE",
"402 429 OFFCURVE",
"402 388 CURVE SMOOTH",
"402 285 OFFCURVE",
"238 285 OFFCURVE",
"209 285 CURVE SMOOTH",
"138 285 LINE",
"153 393 OFFCURVE",
"217 457 OFFCURVE",
"312 457 CURVE SMOOTH"
);
}
);
width = 539;
},
{
anchors = (
{
name = bottom;
position = "{270, 0}";
},
{
name = ogonek;
position = "{378, 0}";
},
{
name = top;
position = "{304, 523}";
}
);
color = -1;
layerId = "DE974D70-A5B4-43AB-B940-69E4F08CB641";
paths = (
{
closed = 1;
nodes = (
"160 531 OFFCURVE",
"33 443 OFFCURVE",
"33 212 CURVE SMOOTH",
"33 77 OFFCURVE",
"106 -8 OFFCURVE",
"269 -8 CURVE SMOOTH",
"324 -8 OFFCURVE",
"427 7 OFFCURVE",
"443 62 CURVE SMOOTH",
"448 78 OFFCURVE",
"451 115 OFFCURVE",
"451 139 CURVE SMOOTH",
"451 152 OFFCURVE",
"447 153 OFFCURVE",
"443 153 CURVE SMOOTH",
"432 153 OFFCURVE",
"368 109 OFFCURVE",
"288 109 CURVE SMOOTH",
"226 109 OFFCURVE",
"183 130 OFFCURVE",
"183 225 CURVE",
"183 266 LINE",
"148 216 LINE",
"186 209 OFFCURVE",
"224 203 OFFCURVE",
"287 203 CURVE SMOOTH",
"386 203 OFFCURVE",
"502 253 OFFCURVE",
"502 386 CURVE SMOOTH",
"502 438 OFFCURVE",
"471 531 OFFCURVE",
"308 531 CURVE SMOOTH"
);
},
{
closed = 1;
nodes = (
"333 414 OFFCURVE",
"358 400 OFFCURVE",
"358 367 CURVE SMOOTH",
"358 338 OFFCURVE",
"332 302 OFFCURVE",
"238 302 CURVE SMOOTH",
"190 302 LINE",
"204 364 OFFCURVE",
"236 414 OFFCURVE",
"298 414 CURVE SMOOTH"
);
}
);
width = 539;
}
);
leftKerningGroup = o;
rightKerningGroup = e;
unicode = 0065;
},
{
glyphname = f;
layers = (
{
background = {
paths = (
{
closed = 0;
nodes = (
"84 523 LINE",
"70 523 OFFCURVE",
"63 514 OFFCURVE",
"61 493 CURVE SMOOTH",
"60 481 LINE SMOOTH",
"58 460 OFFCURVE",
"63 451 OFFCURVE",
"77 451 CURVE SMOOTH"
);
},
{
closed = 0;
nodes = (
"288 451 LINE SMOOTH",
"302 451 OFFCURVE",
"309 460 OFFCURVE",
"311 481 CURVE SMOOTH",
"312 493 LINE SMOOTH",
"314 514 OFFCURVE",
"309 523 OFFCURVE",
"295 523 CURVE SMOOTH"
);
}
);
};
color = -1;
layerId = UUID0;
paths = (
{
closed = 1;
nodes = (
"114 -2 LINE SMOOTH",
"140 -2 OFFCURVE",
"154 5 OFFCURVE",
"156 20 CURVE SMOOTH",
"201 451 LINE",
"288 451 LINE SMOOTH",
"302 451 OFFCURVE",
"309 460 OFFCURVE",
"311 481 CURVE SMOOTH",
"312 493 LINE SMOOTH",
"314 514 OFFCURVE",
"308 523 OFFCURVE",
"292 523 CURVE SMOOTH",
"209 523 LINE",
"218 614 LINE SMOOTH",
"224 674 OFFCURVE",
"247 684 OFFCURVE",
"278 684 CURVE SMOOTH",
"308 684 OFFCURVE",
"319 677 OFFCURVE",
"323 677 CURVE SMOOTH",
"335 677 OFFCURVE",
"349 714 OFFCURVE",
"349 725 CURVE SMOOTH",
"349 755 OFFCURVE",
"295 756 OFFCURVE",
"278 756 CURVE SMOOTH",
"225 756 OFFCURVE",
"146 740 OFFCURVE",
"135 624 CURVE SMOOTH",
"125 523 LINE",
"85 523 LINE SMOOTH",
"70 523 OFFCURVE",
"63 514 OFFCURVE",
"61 493 CURVE SMOOTH",
"60 478 LINE SMOOTH",
"58 460 OFFCURVE",
"63 451 OFFCURVE",
"77 451 CURVE SMOOTH",
"117 451 LINE",
"72 20 LINE",
"72 5 OFFCURVE",
"82 -2 OFFCURVE",
"110 -2 CURVE SMOOTH"
);
}
);
width = 325;
},
{
background = {
paths = (
{
closed = 0;
nodes = (
"219 406 LINE",
"274 406 LINE SMOOTH",
"295 406 OFFCURVE",
"305 421 OFFCURVE",
"309 456 CURVE SMOOTH",
"311 473 LINE SMOOTH",
"315 508 OFFCURVE",
"307 523 OFFCURVE",
"286 523 CURVE SMOOTH",
"231 523 LINE"
);
},
{
closed = 0;
nodes = (
"83 523 LINE",
"71 523 LINE SMOOTH",
"50 523 OFFCURVE",
"40 508 OFFCURVE",
"36 473 CURVE SMOOTH",
"34 456 LINE SMOOTH",
"30 421 OFFCURVE",
"38 406 OFFCURVE",
"59 406 CURVE SMOOTH",
"71 406 LINE"
);
}
);
};
color = -1;
layerId = "DE974D70-A5B4-43AB-B940-69E4F08CB641";
paths = (
{
closed = 1;
nodes = (
"126 -2 LINE SMOOTH",
"165 -2 OFFCURVE",
"187 9 OFFCURVE",
"189 30 CURVE SMOOTH",
"228 406 LINE",
"274 406 LINE SMOOTH",
"295 406 OFFCURVE",
"305 421 OFFCURVE",
"309 456 CURVE SMOOTH",
"311 473 LINE SMOOTH",
"315 508 OFFCURVE",
"307 523 OFFCURVE",
"286 523 CURVE SMOOTH",
"240 523 LINE",
"249 600 LINE SMOOTH",
"252 629 OFFCURVE",
"263 643 OFFCURVE",
"289 643 CURVE SMOOTH",
"309 643 OFFCURVE",
"314 638 OFFCURVE",
"322 638 CURVE SMOOTH",
"339 638 OFFCURVE",
"359 697 OFFCURVE",
"359 714 CURVE SMOOTH",
"359 752 OFFCURVE",
"311 760 OFFCURVE",
"263 760 CURVE SMOOTH",
"168 760 OFFCURVE",
"109 700 OFFCURVE",
"100 598 CURVE SMOOTH",
"93 523 LINE",
"72 523 LINE SMOOTH",
"50 523 OFFCURVE",
"40 508 OFFCURVE",
"36 473 CURVE SMOOTH",
"34 456 LINE SMOOTH",
"30 421 OFFCURVE",
"38 406 OFFCURVE",
"60 406 CURVE SMOOTH",
"80 406 LINE",
"41 29 LINE",
"41 13 OFFCURVE",
"58 -2 OFFCURVE",
"98 -2 CURVE SMOOTH"
);
}
);
width = 325;
}
);
leftKerningGroup = f;
rightKerningGroup = f;
unicode = 0066;
},
{
glyphname = g;
layers = (
{
anchors = (
{
name = top;
position = "{300, 523}";
}
);
color = -1;
layerId = UUID0;
paths = (
{
closed = 1;
nodes = (
"356 -212 OFFCURVE",
"432 -140 OFFCURVE",
"457 99 CURVE SMOOTH",
"500 504 LINE",
"500 517 OFFCURVE",
"495 525 OFFCURVE",
"475 525 CURVE SMOOTH",
"469 525 LINE SMOOTH",
"441 525 OFFCURVE",
"434 504 OFFCURVE",
"424 475 CURVE",
"401 496 OFFCURVE",
"356 529 OFFCURVE",
"292 529 CURVE SMOOTH",
"140 529 OFFCURVE",
"42 396 OFFCURVE",
"42 210 CURVE SMOOTH",
"42 41 OFFCURVE",
"147 0 OFFCURVE",
"214 0 CURVE SMOOTH",
"282 0 OFFCURVE",
"348 38 OFFCURVE",
"390 140 CURVE",
"378 152 LINE",
"376 120 LINE",
"363 -68 OFFCURVE",
"312 -140 OFFCURVE",
"213 -140 CURVE SMOOTH",
"109 -140 OFFCURVE",
"67 -86 OFFCURVE",
"55 -86 CURVE SMOOTH",
"50 -86 OFFCURVE",
"41 -92 OFFCURVE",
"41 -141 CURVE SMOOTH",
"41 -171 OFFCURVE",
"111 -212 OFFCURVE",
"213 -212 CURVE SMOOTH"
);
},
{
closed = 1;
nodes = (
"176 73 OFFCURVE",
"129 107 OFFCURVE",
"129 216 CURVE SMOOTH",
"129 336 OFFCURVE",
"163 456 OFFCURVE",
"300 456 CURVE SMOOTH",
"352 456 OFFCURVE",
"389 432 OFFCURVE",
"409 417 CURVE",
"406 401 OFFCURVE",
"403 385 OFFCURVE",
"401 367 CURVE",
"388 244 LINE",
"346 110 OFFCURVE",
"278 73 OFFCURVE",
"233 73 CURVE SMOOTH"
);
}
);
width = 546;
},
{
anchors = (
{
name = top;
position = "{323, 523}";
}
);
color = -1;
layerId = "DE974D70-A5B4-43AB-B940-69E4F08CB641";
paths = (
{
closed = 1;
nodes = (
"379 -212 OFFCURVE",
"457 -110 OFFCURVE",
"478 93 CURVE SMOOTH",
"519 500 LINE",
"519 516 OFFCURVE",
"501 525 OFFCURVE",
"461 525 CURVE SMOOTH",
"449 525 LINE SMOOTH",
"399 524 OFFCURVE",
"395 514 OFFCURVE",
"384 479 CURVE",
"363 499 OFFCURVE",
"320 531 OFFCURVE",
"264 531 CURVE SMOOTH",
"127 531 OFFCURVE",
"32 403 OFFCURVE",
"32 213 CURVE SMOOTH",
"32 77 OFFCURVE",
"101 4 OFFCURVE",
"204 4 CURVE SMOOTH",
"270 4 OFFCURVE",
"324 48 OFFCURVE",
"349 98 CURVE",
"333 130 LINE",
"323 33 LINE SMOOTH",
"315 -49 OFFCURVE",
"270 -95 OFFCURVE",
"193 -95 CURVE SMOOTH",
"115 -95 OFFCURVE",
"70 -54 OFFCURVE",
"58 -54 CURVE SMOOTH",
"48 -54 OFFCURVE",
"38 -73 OFFCURVE",
"38 -141 CURVE SMOOTH",
"38 -183 OFFCURVE",
"120 -212 OFFCURVE",
"223 -212 CURVE SMOOTH"
);
},
{
closed = 1;
nodes = (
"208 125 OFFCURVE",
"182 158 OFFCURVE",
"182 222 CURVE SMOOTH",
"182 347 OFFCURVE",
"225 414 OFFCURVE",
"298 414 CURVE SMOOTH",
"325 414 OFFCURVE",
"346 402 OFFCURVE",
"363 388 CURVE",
"357 362 OFFCURVE",
"355 333 OFFCURVE",
"351 300 CURVE SMOOTH",
"338 183 LINE",
"318 152 OFFCURVE",
"292 125 OFFCURVE",
"260 125 CURVE SMOOTH"
);
}
);
width = 546;
}
);
leftKerningGroup = o;
rightKerningGroup = g;
unicode = 0067;
},
{
glyphname = h;
layers = (
{
anchors = (
{
name = bottom;
position = "{271, 0}";
},
{
name = center;
position = "{165, 630}";
},
{
name = top;
position = "{173, 725}";
}
);
background = {
paths = (
{
closed = 0;
nodes = (
"374 102 LINE",
"374 30 OFFCURVE",
"398 -6 OFFCURVE",
"464 -6 CURVE SMOOTH",
"482 -6 OFFCURVE",
"519 2 OFFCURVE",
"524 27 CURVE SMOOTH",
"528 49 OFFCURVE",
"528 63 OFFCURVE",
"528 64 CURVE SMOOTH",
"528 70 OFFCURVE",
"525 71 OFFCURVE",
"522 71 CURVE SMOOTH",
"516 71 OFFCURVE",
"504 64 OFFCURVE",
"485 64 CURVE SMOOTH",
"465 64 OFFCURVE",
"456 79 OFFCURVE",
"459 107 CURVE SMOOTH"
);
}
);
};
color = -1;
layerId = UUID0;
paths = (
{
closed = 1;
nodes = (
"482 -6 OFFCURVE",
"519 2 OFFCURVE",
"524 27 CURVE SMOOTH",
"528 49 OFFCURVE",
"528 62 OFFCURVE",
"528 63 CURVE SMOOTH",
"528 69 OFFCURVE",
"525 71 OFFCURVE",
"522 71 CURVE SMOOTH",
"516 71 OFFCURVE",
"504 64 OFFCURVE",
"485 64 CURVE SMOOTH",
"465 64 OFFCURVE",
"456 79 OFFCURVE",
"459 107 CURVE SMOOTH",
"486 379 LINE SMOOTH",
"495 473 OFFCURVE",
"453 529 OFFCURVE",
"356 529 CURVE SMOOTH",
"296 529 OFFCURVE",
"234 503 OFFCURVE",
"181 432 CURVE",
"213 730 LINE SMOOTH",
"215 745 OFFCURVE",
"203 752 OFFCURVE",
"175 752 CURVE SMOOTH",
"171 752 LINE SMOOTH",
"145 752 OFFCURVE",
"131 746 OFFCURVE",
"129 730 CURVE SMOOTH",
"54 19 LINE SMOOTH",
"53 7 OFFCURVE",
"65 -2 OFFCURVE",
"92 -2 CURVE SMOOTH",
"96 -2 LINE SMOOTH",
"120 -2 OFFCURVE",
"136 6 OFFCURVE",
"138 20 CURVE SMOOTH",
"167 297 LINE",
"211 425 OFFCURVE",
"282 456 OFFCURVE",
"336 456 CURVE SMOOTH",
"382 456 OFFCURVE",
"407 430 OFFCURVE",
"401 369 CURVE SMOOTH",
"376 112 LINE SMOOTH",
"367 24 OFFCURVE",
"407 -6 OFFCURVE",
"464 -6 CURVE SMOOTH"
);
}
);
width = 565;
},
{
anchors = (
{
name = bottom;
position = "{261, 0}";
},
{
name = center;
position = "{184, 630}";
},
{
name = top;
position = "{170, 735}";
}
);
background = {
paths = (
{
closed = 0;
nodes = (
"323 139 LINE SMOOTH",
"312 29 OFFCURVE",
"364 -8 OFFCURVE",
"442 -8 CURVE SMOOTH",
"477 -8 OFFCURVE",
"523 7 OFFCURVE",
"530 44 CURVE SMOOTH",
"537 79 OFFCURVE",
"537 97 OFFCURVE",
"537 103 CURVE SMOOTH",
"537 112 OFFCURVE",
"535 115 OFFCURVE",
"529 115 CURVE SMOOTH",
"525 115 OFFCURVE",
"514 109 OFFCURVE",
"500 109 CURVE SMOOTH",
"479 109 OFFCURVE",
"468 119 OFFCURVE",
"471 147 CURVE SMOOTH"
);
}
);
};
color = -1;
layerId = "DE974D70-A5B4-43AB-B940-69E4F08CB641";
paths = (
{
closed = 1;
nodes = (
"477 -8 OFFCURVE",
"523 7 OFFCURVE",
"530 44 CURVE SMOOTH",
"537 79 OFFCURVE",
"537 97 OFFCURVE",
"537 103 CURVE SMOOTH",
"537 112 OFFCURVE",
"535 115 OFFCURVE",
"529 115 CURVE SMOOTH",
"525 115 OFFCURVE",
"514 109 OFFCURVE",
"500 109 CURVE SMOOTH",
"479 109 OFFCURVE",
"468 119 OFFCURVE",
"471 147 CURVE SMOOTH",
"493 384 LINE SMOOTH",
"503 491 OFFCURVE",
"452 531 OFFCURVE",
"363 531 CURVE SMOOTH",
"307 531 OFFCURVE",
"250 499 OFFCURVE",
"216 463 CURVE",
"243 723 LINE SMOOTH",
"245 739 OFFCURVE",
"226 754 OFFCURVE",
"186 754 CURVE SMOOTH",
"158 754 LINE SMOOTH",
"119 754 OFFCURVE",
"97 743 OFFCURVE",
"95 722 CURVE SMOOTH",
"22 29 LINE SMOOTH",
"20 13 OFFCURVE",
"39 -2 OFFCURVE",
"79 -2 CURVE SMOOTH",
"107 -2 LINE SMOOTH",
"146 -2 OFFCURVE",
"168 9 OFFCURVE",
"170 30 CURVE SMOOTH",
"204 352 LINE",
"223 379 OFFCURVE",
"252 409 OFFCURVE",
"290 409 CURVE SMOOTH",
"329 409 OFFCURVE",
"347 391 OFFCURVE",
"343 349 CURVE SMOOTH",
"322 129 LINE SMOOTH",
"312 29 OFFCURVE",
"364 -8 OFFCURVE",
"442 -8 CURVE SMOOTH"
);
}
);
width = 565;
}
);
leftKerningGroup = h;
rightKerningGroup = n;
unicode = 0068;
},
{
glyphname = hbar;
layers = (
{
color = -1;
components = (
{
name = h;
}
);
layerId = "DE974D70-A5B4-43AB-B940-69E4F08CB641";
paths = (
{
closed = 1;
nodes = (
"359 585 LINE SMOOTH",
"382 585 OFFCURVE",
"390 599 OFFCURVE",
"393 625 CURVE SMOOTH",
"395 640 LINE SMOOTH",
"399 668 OFFCURVE",
"388 680 OFFCURVE",
"369 680 CURVE SMOOTH",
"73 680 LINE SMOOTH",
"50 680 OFFCURVE",
"42 663 OFFCURVE",
"39 640 CURVE SMOOTH",
"37 625 LINE SMOOTH",
"33 598 OFFCURVE",
"43 585 OFFCURVE",
"63 585 CURVE"
);
}
);
width = 565;
},
{
color = -1;
components = (
{
name = h;
}
);
layerId = UUID0;
paths = (
{
closed = 1;
nodes = (
"359 595 LINE SMOOTH",
"372 595 OFFCURVE",
"380 604 OFFCURVE",
"382 625 CURVE SMOOTH",
"383 635 LINE SMOOTH",
"385 656 OFFCURVE",
"380 665 OFFCURVE",
"366 665 CURVE SMOOTH",
"61 665 LINE SMOOTH",
"49 665 OFFCURVE",
"40 656 OFFCURVE",
"38 635 CURVE SMOOTH",
"37 625 LINE SMOOTH",
"35 604 OFFCURVE",
"39 595 OFFCURVE",
"54 595 CURVE SMOOTH"
);
}
);
width = 565;
}
);
leftKerningGroup = h;
rightKerningGroup = n;
unicode = 0127;
},
{
glyphname = idotless;
layers = (
{
anchors = (
{
name = bottom;
position = "{119, 0}";
},
{
name = ogonek;
position = "{199, 0}";
},
{
name = top;
position = "{146, 523}";
}
);
background = {
paths = (
{
closed = 0;
nodes = (
"62 102 LINE",
"62 30 OFFCURVE",
"86 -6 OFFCURVE",
"152 -6 CURVE SMOOTH",
"170 -6 OFFCURVE",
"207 2 OFFCURVE",
"212 27 CURVE SMOOTH",
"216 49 OFFCURVE",
"216 63 OFFCURVE",
"216 64 CURVE SMOOTH",
"216 70 OFFCURVE",
"213 71 OFFCURVE",
"210 71 CURVE SMOOTH",
"204 71 OFFCURVE",
"192 64 OFFCURVE",
"173 64 CURVE SMOOTH",
"153 64 OFFCURVE",
"144 79 OFFCURVE",
"147 107 CURVE SMOOTH"
);
}
);
};
color = -1;
layerId = UUID0;
paths = (
{
closed = 1;
nodes = (
"170 -6 OFFCURVE",
"207 2 OFFCURVE",
"212 27 CURVE SMOOTH",
"216 49 OFFCURVE",
"216 62 OFFCURVE",
"216 63 CURVE SMOOTH",
"216 69 OFFCURVE",
"213 71 OFFCURVE",
"210 71 CURVE SMOOTH",
"204 71 OFFCURVE",
"192 64 OFFCURVE",
"173 64 CURVE SMOOTH",
"153 64 OFFCURVE",
"146 76 OFFCURVE",
"149 107 CURVE SMOOTH",
"188 503 LINE SMOOTH",
"189 518 OFFCURVE",
"178 525 OFFCURVE",
"150 525 CURVE SMOOTH",
"146 525 LINE SMOOTH",
"120 525 OFFCURVE",
"106 519 OFFCURVE",
"104 503 CURVE SMOOTH",
"65 109 LINE SMOOTH",
"56 23 OFFCURVE",
"96 -6 OFFCURVE",
"144 -6 CURVE SMOOTH"
);
}
);
width = 265;
},
{
anchors = (
{
name = bottom;
position = "{110, 0}";
},
{
name = ogonek;
position = "{210, 0}";
},
{
name = top;
position = "{144, 523}";
}
);
background = {
paths = (
{
closed = 0;
nodes = (
"31 139 LINE SMOOTH",
"20 29 OFFCURVE",
"72 -8 OFFCURVE",
"150 -8 CURVE SMOOTH",
"185 -8 OFFCURVE",
"231 7 OFFCURVE",
"238 44 CURVE SMOOTH",
"245 79 OFFCURVE",
"245 97 OFFCURVE",
"245 103 CURVE SMOOTH",
"245 112 OFFCURVE",
"243 115 OFFCURVE",
"237 115 CURVE SMOOTH",
"233 115 OFFCURVE",
"222 109 OFFCURVE",
"208 109 CURVE SMOOTH",
"187 109 OFFCURVE",
"176 119 OFFCURVE",
"179 147 CURVE SMOOTH"
);
}
);
};
color = -1;
layerId = "DE974D70-A5B4-43AB-B940-69E4F08CB641";
paths = (
{
closed = 1;
nodes = (
"185 -8 OFFCURVE",
"231 7 OFFCURVE",
"238 44 CURVE SMOOTH",
"245 79 OFFCURVE",
"245 97 OFFCURVE",
"245 103 CURVE SMOOTH",
"245 112 OFFCURVE",
"243 115 OFFCURVE",
"237 115 CURVE SMOOTH",
"233 115 OFFCURVE",
"222 109 OFFCURVE",
"208 109 CURVE SMOOTH",
"187 109 OFFCURVE",
"176 119 OFFCURVE",
"179 147 CURVE SMOOTH",
"215 494 LINE SMOOTH",
"217 510 OFFCURVE",
"198 525 OFFCURVE",
"158 525 CURVE SMOOTH",
"130 525 LINE SMOOTH",
"91 525 OFFCURVE",
"69 514 OFFCURVE",
"67 493 CURVE SMOOTH",
"31 139 LINE SMOOTH",
"20 29 OFFCURVE",
"72 -8 OFFCURVE",
"150 -8 CURVE SMOOTH"
);
}
);
width = 265;
}
);
leftKerningGroup = i;
rightKerningGroup = i;
unicode = 0131;
},
{
glyphname = j;
layers = (
{
background = {
paths = (
{
closed = 1;
nodes = (
"162 525 LINE SMOOTH",
"136 525 OFFCURVE",
"122 518 OFFCURVE",
"120 503 CURVE SMOOTH",
"60 -66 LINE SMOOTH",
"54 -126 OFFCURVE",
"31 -140 OFFCURVE",
"0 -140 CURVE SMOOTH",
"-35 -140 OFFCURVE",
"-48 -123 OFFCURVE",
"-56 -123 CURVE SMOOTH",
"-61 -123 OFFCURVE",
"-67 -129 OFFCURVE",
"-67 -171 CURVE SMOOTH",
"-67 -195 OFFCURVE",
"-35 -212 OFFCURVE",
"11 -212 CURVE SMOOTH",
"62 -212 OFFCURVE",
"131 -190 OFFCURVE",
"143 -74 CURVE SMOOTH",
"204 503 LINE",
"204 518 OFFCURVE",
"194 525 OFFCURVE",
"166 525 CURVE SMOOTH"
);
},
{
closed = 1;
nodes = (
"182 752 LINE SMOOTH",
"156 752 OFFCURVE",
"142 746 OFFCURVE",
"140 730 CURVE SMOOTH",
"134 671 LINE",
"134 653 OFFCURVE",
"150 649 OFFCURVE",
"176 649 CURVE SMOOTH",
"188 649 LINE SMOOTH",
"216 649 OFFCURVE",
"226 658 OFFCURVE",
"226 671 CURVE",
"232 730 LINE",
"232 746 OFFCURVE",
"222 752 OFFCURVE",
"194 752 CURVE SMOOTH"
);
}
);
};
color = -1;
components = (
{
name = jdotless;
},
{
name = dotaccentcomb;
transform = "{1, 0, 0, 1, 93, 0}";
}
);
layerId = UUID0;
width = 276;
},
{
background = {
paths = (
{
closed = 1;
nodes = (
"144 525 LINE SMOOTH",
"105 525 OFFCURVE",
"83 514 OFFCURVE",
"81 493 CURVE SMOOTH",
"24 -52 LINE SMOOTH",
"21 -82 OFFCURVE",
"9 -95 OFFCURVE",
"-16 -95 CURVE SMOOTH",
"-36 -95 OFFCURVE",
"-46 -90 OFFCURVE",
"-51 -90 CURVE SMOOTH",
"-60 -90 OFFCURVE",
"-69 -110 OFFCURVE",
"-69 -173 CURVE SMOOTH",
"-69 -211 OFFCURVE",
"-21 -212 OFFCURVE",
"9 -212 CURVE SMOOTH",
"105 -212 OFFCURVE",
"161 -152 OFFCURVE",
"172 -50 CURVE SMOOTH",
"229 494 LINE",
"229 510 OFFCURVE",
"212 525 OFFCURVE",
"172 525 CURVE SMOOTH"
);
},
{
closed = 1;
nodes = (
"168 754 LINE SMOOTH",
"129 754 OFFCURVE",
"107 743 OFFCURVE",
"105 722 CURVE SMOOTH",
"96 640 LINE",
"96 624 OFFCURVE",
"113 609 OFFCURVE",
"153 609 CURVE SMOOTH",
"181 609 LINE SMOOTH",
"220 609 OFFCURVE",
"242 620 OFFCURVE",
"244 641 CURVE SMOOTH",
"253 723 LINE",
"253 739 OFFCURVE",
"236 754 OFFCURVE",
"196 754 CURVE SMOOTH"
);
}
);
};
color = -1;
components = (
{
name = jdotless;
},
{
name = dotaccentcomb;
transform = "{1, 0, 0, 1, 57, 0}";
}
);
layerId = "DE974D70-A5B4-43AB-B940-69E4F08CB641";
width = 276;
}
);
leftKerningGroup = j;
rightKerningGroup = j;
unicode = 006A;
},
{
glyphname = jdotless;
layers = (
{
anchors = (
{
name = top;
position = "{158, 523}";
}
);
color = -1;
layerId = "DE974D70-A5B4-43AB-B940-69E4F08CB641";
paths = (
{
closed = 1;
nodes = (
"105 -212 OFFCURVE",
"161 -152 OFFCURVE",
"172 -50 CURVE SMOOTH",
"229 494 LINE",
"229 510 OFFCURVE",
"212 525 OFFCURVE",
"172 525 CURVE SMOOTH",
"144 525 LINE SMOOTH",
"105 525 OFFCURVE",
"83 514 OFFCURVE",
"81 493 CURVE SMOOTH",
"24 -52 LINE SMOOTH",
"21 -82 OFFCURVE",
"9 -95 OFFCURVE",
"-16 -95 CURVE SMOOTH",
"-36 -95 OFFCURVE",
"-46 -90 OFFCURVE",
"-51 -90 CURVE SMOOTH",
"-60 -90 OFFCURVE",
"-69 -110 OFFCURVE",
"-69 -173 CURVE SMOOTH",
"-69 -211 OFFCURVE",
"-21 -212 OFFCURVE",
"9 -212 CURVE SMOOTH"
);
}
);
width = 276;
},
{
anchors = (
{
name = top;
position = "{165, 523}";
}
);
color = -1;
layerId = UUID0;
paths = (
{
closed = 1;
nodes = (
"62 -212 OFFCURVE",
"131 -190 OFFCURVE",
"143 -74 CURVE SMOOTH",
"204 503 LINE",
"204 518 OFFCURVE",
"194 525 OFFCURVE",
"166 525 CURVE SMOOTH",
"162 525 LINE SMOOTH",
"136 525 OFFCURVE",
"122 518 OFFCURVE",
"120 503 CURVE SMOOTH",
"60 -66 LINE SMOOTH",
"54 -126 OFFCURVE",
"31 -140 OFFCURVE",
"0 -140 CURVE SMOOTH",
"-35 -140 OFFCURVE",
"-48 -123 OFFCURVE",
"-56 -123 CURVE SMOOTH",
"-61 -123 OFFCURVE",
"-67 -129 OFFCURVE",
"-67 -171 CURVE SMOOTH",
"-67 -195 OFFCURVE",
"-35 -212 OFFCURVE",
"11 -212 CURVE SMOOTH"
);
}
);
width = 276;
}
);
leftKerningGroup = j;
rightKerningGroup = j;
unicode = 0237;
},
{
glyphname = k;
layers = (
{
anchors = (
{
name = bottom;
position = "{241, 0}";
}
);
color = -1;
layerId = UUID0;
paths = (
{
closed = 1;
nodes = (
"96 -2 LINE SMOOTH",
"124 -2 OFFCURVE",
"136 6 OFFCURVE",
"138 20 CURVE SMOOTH",
"162 248 LINE",
"166 248 LINE",
"362 11 LINE SMOOTH",
"371 -1 OFFCURVE",
"393 -2 OFFCURVE",
"415 -2 CURVE SMOOTH",
"419 -2 LINE SMOOTH",
"452 -2 OFFCURVE",
"464 1 OFFCURVE",
"464 14 CURVE SMOOTH",
"464 17 OFFCURVE",
"462 21 OFFCURVE",
"457 28 CURVE SMOOTH",
"256 272 LINE",
"474 492 LINE SMOOTH",
"482 500 OFFCURVE",
"486 508 OFFCURVE",
"486 513 CURVE SMOOTH",
"486 519 OFFCURVE",
"475 525 OFFCURVE",
"452 525 CURVE SMOOTH",
"448 525 LINE SMOOTH",
"426 525 OFFCURVE",
"404 522 OFFCURVE",
"394 511 CURVE SMOOTH",
"170 283 LINE",
"166 283 LINE",
"213 730 LINE",
"213 744 OFFCURVE",
"204 752 OFFCURVE",
"175 752 CURVE SMOOTH",
"171 752 LINE SMOOTH",
"142 752 OFFCURVE",
"130 744 OFFCURVE",
"129 730 CURVE SMOOTH",
"54 20 LINE",
"54 6 OFFCURVE",
"63 -2 OFFCURVE",
"92 -2 CURVE SMOOTH"
);
}
);
width = 521;
},
{
anchors = (
{
name = bottom;
position = "{232, 0}";
}
);
color = -1;
layerId = "DE974D70-A5B4-43AB-B940-69E4F08CB641";
paths = (
{
closed = 1;
nodes = (
"110 -2 LINE SMOOTH",
"152 -2 OFFCURVE",
"171 9 OFFCURVE",
"173 30 CURVE SMOOTH",
"196 246 LINE",
"200 247 LINE",
"315 17 LINE SMOOTH",
"322 2 OFFCURVE",
"344 -2 OFFCURVE",
"373 -2 CURVE SMOOTH",
"415 -2 LINE SMOOTH",
"460 -2 OFFCURVE",
"473 5 OFFCURVE",
"473 16 CURVE SMOOTH",
"473 21 OFFCURVE",
"472 26 OFFCURVE",
"468 34 CURVE SMOOTH",
"332 292 LINE",
"491 490 LINE SMOOTH",
"498 498 OFFCURVE",
"503 506 OFFCURVE",
"503 511 CURVE SMOOTH",
"503 519 OFFCURVE",
"485 525 OFFCURVE",
"448 525 CURVE SMOOTH",
"411 525 LINE SMOOTH",
"382 525 OFFCURVE",
"361 523 OFFCURVE",
"348 506 CURVE SMOOTH",
"208 325 LINE",
"204 326 LINE",
"246 722 LINE",
"246 743 OFFCURVE",
"232 754 OFFCURVE",
"189 754 CURVE SMOOTH",
"161 754 LINE SMOOTH",
"119 754 OFFCURVE",
"100 743 OFFCURVE",
"98 722 CURVE SMOOTH",
"25 30 LINE",
"25 9 OFFCURVE",
"39 -2 OFFCURVE",
"82 -2 CURVE SMOOTH"
);
}
);
width = 521;
}
);
leftKerningGroup = h;
rightKerningGroup = k;
unicode = 006B;
},
{
glyphname = kgreenlandic;
layers = (
{
color = -1;
layerId = "DE974D70-A5B4-43AB-B940-69E4F08CB641";
paths = (
{
closed = 1;
nodes = (
"110 -2 LINE SMOOTH",
"152 -2 OFFCURVE",
"171 9 OFFCURVE",
"173 30 CURVE SMOOTH",
"196 246 LINE",
"200 247 LINE",
"315 17 LINE SMOOTH",
"322 2 OFFCURVE",
"344 -2 OFFCURVE",
"373 -2 CURVE SMOOTH",
"415 -2 LINE SMOOTH",
"460 -2 OFFCURVE",
"473 5 OFFCURVE",
"473 16 CURVE SMOOTH",
"473 21 OFFCURVE",
"472 26 OFFCURVE",
"468 34 CURVE SMOOTH",
"332 292 LINE",
"491 490 LINE SMOOTH",
"498 498 OFFCURVE",
"503 506 OFFCURVE",
"503 511 CURVE SMOOTH",
"503 519 OFFCURVE",
"485 525 OFFCURVE",
"448 525 CURVE SMOOTH",
"411 525 LINE SMOOTH",
"382 525 OFFCURVE",
"361 523 OFFCURVE",
"348 506 CURVE SMOOTH",
"208 325 LINE",
"204 326 LINE",
"222 493 LINE",
"222 514 OFFCURVE",
"208 525 OFFCURVE",
"165 525 CURVE SMOOTH",
"137 525 LINE SMOOTH",
"95 525 OFFCURVE",
"76 514 OFFCURVE",
"74 493 CURVE SMOOTH",
"25 30 LINE",
"25 9 OFFCURVE",
"39 -2 OFFCURVE",
"82 -2 CURVE SMOOTH"
);
}
);
width = 521;
},
{
color = -1;
layerId = UUID0;
paths = (
{
closed = 1;
nodes = (
"96 -2 LINE SMOOTH",
"124 -2 OFFCURVE",
"136 6 OFFCURVE",
"138 20 CURVE SMOOTH",
"162 248 LINE",
"166 248 LINE",
"362 11 LINE SMOOTH",
"371 -1 OFFCURVE",
"393 -2 OFFCURVE",
"415 -2 CURVE SMOOTH",
"419 -2 LINE SMOOTH",
"452 -2 OFFCURVE",
"464 1 OFFCURVE",
"464 14 CURVE SMOOTH",
"464 17 OFFCURVE",
"462 21 OFFCURVE",
"457 28 CURVE SMOOTH",
"256 272 LINE",
"474 492 LINE SMOOTH",
"482 500 OFFCURVE",
"486 508 OFFCURVE",
"486 513 CURVE SMOOTH",
"486 519 OFFCURVE",
"475 525 OFFCURVE",
"452 525 CURVE SMOOTH",
"448 525 LINE SMOOTH",
"426 525 OFFCURVE",
"404 522 OFFCURVE",
"394 511 CURVE SMOOTH",
"170 283 LINE",
"166 283 LINE",
"189 504 LINE",
"189 518 OFFCURVE",
"180 526 OFFCURVE",
"151 526 CURVE SMOOTH",
"147 526 LINE SMOOTH",
"118 526 OFFCURVE",
"106 518 OFFCURVE",
"105 504 CURVE SMOOTH",
"54 20 LINE",
"54 6 OFFCURVE",
"63 -2 OFFCURVE",
"92 -2 CURVE SMOOTH"
);
}
);
width = 521;
}
);
leftKerningGroup = i;
rightKerningGroup = k;
unicode = 0138;
},
{
glyphname = l;
layers = (
{
anchors = (
{
name = bottom;
position = "{149, 0}";
},
{
name = center;
position = "{299, 365}";
},
{
name = top;
position = "{184, 720}";
},
{
name = topright;
position = "{300, 750}";
}
);
background = {
paths = (
{
closed = 0;
nodes = (
"76 102 LINE",
"76 30 OFFCURVE",
"100 -6 OFFCURVE",
"166 -6 CURVE SMOOTH",
"184 -6 OFFCURVE",
"221 2 OFFCURVE",
"226 27 CURVE SMOOTH",
"230 49 OFFCURVE",
"230 62 OFFCURVE",
"230 63 CURVE SMOOTH",
"230 69 OFFCURVE",
"227 71 OFFCURVE",
"224 71 CURVE SMOOTH",
"218 71 OFFCURVE",
"206 64 OFFCURVE",
"187 64 CURVE SMOOTH",
"167 64 OFFCURVE",
"158 79 OFFCURVE",
"161 107 CURVE SMOOTH"
);
}
);
};
color = -1;
layerId = UUID0;
paths = (
{
closed = 1;
nodes = (
"184 -6 OFFCURVE",
"221 2 OFFCURVE",
"226 27 CURVE SMOOTH",
"230 49 OFFCURVE",
"230 62 OFFCURVE",
"230 63 CURVE SMOOTH",
"230 69 OFFCURVE",
"227 71 OFFCURVE",
"224 71 CURVE SMOOTH",
"218 71 OFFCURVE",
"206 64 OFFCURVE",
"187 64 CURVE SMOOTH",
"167 64 OFFCURVE",
"158 79 OFFCURVE",
"161 107 CURVE SMOOTH",
"225 730 LINE SMOOTH",
"227 745 OFFCURVE",
"215 752 OFFCURVE",
"187 752 CURVE SMOOTH",
"183 752 LINE SMOOTH",
"157 752 OFFCURVE",
"143 746 OFFCURVE",
"141 730 CURVE SMOOTH",
"79 125 LINE SMOOTH",
"71 34 OFFCURVE",
"97 -6 OFFCURVE",
"166 -6 CURVE SMOOTH"
);
}
);
width = 297;
},
{
anchors = (
{
name = bottom;
position = "{140, 0}";
},
{
name = center;
position = "{283, 375}";
},
{
name = top;
position = "{176, 720}";
},
{
name = topright;
position = "{276, 752}";
}
);
background = {
paths = (
{
closed = 0;
nodes = (
"35 139 LINE SMOOTH",
"24 29 OFFCURVE",
"76 -8 OFFCURVE",
"154 -8 CURVE SMOOTH",
"189 -8 OFFCURVE",
"235 7 OFFCURVE",
"242 44 CURVE SMOOTH",
"249 79 OFFCURVE",
"249 97 OFFCURVE",
"249 103 CURVE SMOOTH",
"249 112 OFFCURVE",
"247 115 OFFCURVE",
"241 115 CURVE SMOOTH",
"237 115 OFFCURVE",
"226 109 OFFCURVE",
"212 109 CURVE SMOOTH",
"191 109 OFFCURVE",
"180 119 OFFCURVE",
"183 147 CURVE SMOOTH"
);
}
);
};
color = -1;
layerId = "DE974D70-A5B4-43AB-B940-69E4F08CB641";
paths = (
{
closed = 1;
nodes = (
"189 -8 OFFCURVE",
"235 7 OFFCURVE",
"242 44 CURVE SMOOTH",
"249 79 OFFCURVE",
"249 97 OFFCURVE",
"249 103 CURVE SMOOTH",
"249 112 OFFCURVE",
"247 115 OFFCURVE",
"241 115 CURVE SMOOTH",
"237 115 OFFCURVE",
"226 109 OFFCURVE",
"212 109 CURVE SMOOTH",
"191 109 OFFCURVE",
"180 119 OFFCURVE",
"183 147 CURVE SMOOTH",
"243 728 LINE",
"243 744 OFFCURVE",
"232 755 OFFCURVE",
"196 755 CURVE SMOOTH",
"148 755 LINE SMOOTH",
"111 755 OFFCURVE",
"99 745 OFFCURVE",
"96 725 CURVE",
"35 139 LINE SMOOTH",
"24 29 OFFCURVE",
"76 -8 OFFCURVE",
"154 -8 CURVE SMOOTH"
);
}
);
width = 297;
}
);
leftKerningGroup = l;
rightKerningGroup = l;
unicode = 006C;
},
{
glyphname = lslash;
layers = (
{
background = {
paths = (
{
closed = 1;
nodes = (
"203 429 LINE SMOOTH",
"219 582 OFFCURVE",
"235 730 OFFCURVE",
"235 730 CURVE",
"235 745 OFFCURVE",
"225 752 OFFCURVE",
"197 752 CURVE SMOOTH",
"193 752 LINE SMOOTH",
"167 752 OFFCURVE",
"153 746 OFFCURVE",
"151 730 CURVE SMOOTH",
"151 728 OFFCURVE",
"131 549 OFFCURVE",
"113 380 CURVE SMOOTH",
"112 368 LINE SMOOTH",
"98 235 OFFCURVE",
"86 112 OFFCURVE",
"86 92 CURVE SMOOTH",
"86 24 OFFCURVE",
"119 -6 OFFCURVE",
"176 -6 CURVE SMOOTH",
"194 -6 OFFCURVE",
"231 2 OFFCURVE",
"236 27 CURVE SMOOTH",
"240 49 OFFCURVE",
"240 63 OFFCURVE",
"240 64 CURVE SMOOTH",
"240 70 OFFCURVE",
"237 71 OFFCURVE",
"234 71 CURVE SMOOTH",
"228 71 OFFCURVE",
"219 66 OFFCURVE",
"207 66 CURVE SMOOTH",
"191 66 OFFCURVE",
"171 66 OFFCURVE",
"171 107 CURVE SMOOTH",
"171 122 OFFCURVE",
"186 270 OFFCURVE",
"202 418 CURVE SMOOTH"
);
},
{
closed = 1;
nodes = (
"48 328 OFFCURVE",
"50 323 OFFCURVE",
"55 323 CURVE SMOOTH",
"57 323 OFFCURVE",
"62 325 OFFCURVE",
"66 327 CURVE",
"244 426 LINE SMOOTH",
"257 433 OFFCURVE",
"267 442 OFFCURVE",
"267 462 CURVE SMOOTH",
"267 471 OFFCURVE",
"265 476 OFFCURVE",
"260 476 CURVE SMOOTH",
"257 476 OFFCURVE",
"253 474 OFFCURVE",
"249 472 CURVE",
"71 373 LINE SMOOTH",
"58 366 OFFCURVE",
"48 357 OFFCURVE",
"48 337 CURVE SMOOTH"
);
}
);
};
color = -1;
components = (
{
name = l;
}
);
layerId = UUID0;
paths = (
{
closed = 1;
nodes = (
"57 323 OFFCURVE",
"62 325 OFFCURVE",
"66 327 CURVE",
"244 426 LINE SMOOTH",
"260 434 OFFCURVE",
"265 439 OFFCURVE",
"266 449 CURVE SMOOTH",
"267 462 LINE SMOOTH",
"268 472 OFFCURVE",
"266 476 OFFCURVE",
"260 476 CURVE SMOOTH",
"257 476 OFFCURVE",
"253 474 OFFCURVE",
"249 472 CURVE",
"71 373 LINE SMOOTH",
"55 365 OFFCURVE",
"50 360 OFFCURVE",
"49 349 CURVE SMOOTH",
"48 337 LINE SMOOTH",
"47 328 OFFCURVE",
"50 323 OFFCURVE",
"55 323 CURVE SMOOTH"
);
}
);
width = 293;
},
{
background = {
paths = (
{
closed = 1;
nodes = (
"225 471 LINE",
"239 605 OFFCURVE",
"253 728 OFFCURVE",
"253 728 CURVE",
"253 744 OFFCURVE",
"242 755 OFFCURVE",
"206 755 CURVE SMOOTH",
"158 755 LINE SMOOTH",
"121 755 OFFCURVE",
"109 745 OFFCURVE",
"106 725 CURVE",
"106 725 OFFCURVE",
"86 548 OFFCURVE",
"68 385 CURVE",
"66 352 LINE",
"53 234 OFFCURVE",
"43 131 OFFCURVE",
"43 119 CURVE SMOOTH",
"43 29 OFFCURVE",
"86 -8 OFFCURVE",
"164 -8 CURVE SMOOTH",
"199 -8 OFFCURVE",
"246 7 OFFCURVE",
"252 44 CURVE SMOOTH",
"258 79 OFFCURVE",
"259 102 OFFCURVE",
"259 104 CURVE SMOOTH",
"259 113 OFFCURVE",
"257 115 OFFCURVE",
"251 115 CURVE SMOOTH",
"247 115 OFFCURVE",
"236 109 OFFCURVE",
"222 109 CURVE SMOOTH",
"201 109 OFFCURVE",
"192 119 OFFCURVE",
"192 142 CURVE SMOOTH",
"192 144 OFFCURVE",
"207 293 OFFCURVE",
"223 440 CURVE"
);
},
{
closed = 1;
nodes = (
"19 319 OFFCURVE",
"21 311 OFFCURVE",
"28 311 CURVE SMOOTH",
"32 311 OFFCURVE",
"37 313 OFFCURVE",
"44 317 CURVE",
"77 334 LINE",
"247 432 LINE SMOOTH",
"265 443 OFFCURVE",
"280 456 OFFCURVE",
"280 498 CURVE SMOOTH",
"280 510 OFFCURVE",
"278 518 OFFCURVE",
"271 518 CURVE SMOOTH",
"267 518 OFFCURVE",
"262 516 OFFCURVE",
"255 512 CURVE SMOOTH",
"85 418 LINE",
"52 397 LINE SMOOTH",
"34 386 OFFCURVE",
"19 372 OFFCURVE",
"19 331 CURVE SMOOTH"
);
}
);
};
color = -1;
components = (
{
name = l;
}
);
layerId = "DE974D70-A5B4-43AB-B940-69E4F08CB641";
paths = (
{
closed = 1;
nodes = (
"32 311 OFFCURVE",
"37 313 OFFCURVE",
"44 317 CURVE SMOOTH",
"247 432 LINE SMOOTH",
"268 444 OFFCURVE",
"275 454 OFFCURVE",
"278 477 CURVE SMOOTH",
"280 498 LINE SMOOTH",
"281 513 OFFCURVE",
"279 518 OFFCURVE",
"271 518 CURVE SMOOTH",
"267 518 OFFCURVE",
"262 516 OFFCURVE",
"255 512 CURVE",
"52 397 LINE SMOOTH",
"33 385 OFFCURVE",
"26 377 OFFCURVE",
"22 358 CURVE SMOOTH",
"19 331 LINE SMOOTH",
"18 315 OFFCURVE",
"20 311 OFFCURVE",
"28 311 CURVE SMOOTH"
);
}
);
width = 293;
}
);
leftKerningGroup = l;
rightKerningGroup = l;
unicode = 0142;
},
{
glyphname = m;
layers = (
{
background = {
paths = (
{
closed = 1;
nodes = (
"757 -6 OFFCURVE",
"794 2 OFFCURVE",
"799 27 CURVE SMOOTH",
"803 49 OFFCURVE",
"803 62 OFFCURVE",
"803 63 CURVE SMOOTH",
"803 69 OFFCURVE",
"800 71 OFFCURVE",
"797 71 CURVE SMOOTH",
"791 71 OFFCURVE",
"779 64 OFFCURVE",
"760 64 CURVE SMOOTH",
"740 64 OFFCURVE",
"731 79 OFFCURVE",
"734 107 CURVE SMOOTH",
"761 379 LINE SMOOTH",
"770 473 OFFCURVE",
"728 529 OFFCURVE",
"631 529 CURVE SMOOTH",
"569 529 OFFCURVE",
"505 496 OFFCURVE",
"460 421 CURVE",
"453 484 OFFCURVE",
"416 529 OFFCURVE",
"329 529 CURVE SMOOTH",
"261 529 OFFCURVE",
"190 490 OFFCURVE",
"145 398 CURVE",
"158 377 LINE",
"161 400 OFFCURVE",
"162 429 OFFCURVE",
"162 447 CURVE SMOOTH",
"162 475 OFFCURVE",
"156 514 OFFCURVE",
"136 514 CURVE SMOOTH",
"129 514 OFFCURVE",
"80 513 OFFCURVE",
"80 491 CURVE SMOOTH",
"80 485 OFFCURVE",
"81 481 OFFCURVE",
"81 457 CURVE SMOOTH",
"81 410 OFFCURVE",
"37 19 OFFCURVE",
"37 19 CURVE",
"37 7 OFFCURVE",
"48 -2 OFFCURVE",
"75 -2 CURVE SMOOTH",
"79 -2 LINE SMOOTH",
"105 -2 OFFCURVE",
"119 6 OFFCURVE",
"121 20 CURVE",
"151 307 LINE",
"195 426 OFFCURVE",
"258 456 OFFCURVE",
"299 456 CURVE SMOOTH",
"350 456 OFFCURVE",
"375 430 OFFCURVE",
"375 379 CURVE SMOOTH",
"375 363 OFFCURVE",
"338 19 OFFCURVE",
"338 19 CURVE",
"338 7 OFFCURVE",
"349 -2 OFFCURVE",
"376 -2 CURVE SMOOTH",
"380 -2 LINE SMOOTH",
"406 -2 OFFCURVE",
"421 6 OFFCURVE",
"422 20 CURVE",
"452 305 LINE",
"496 425 OFFCURVE",
"560 456 OFFCURVE",
"601 456 CURVE SMOOTH",
"652 456 OFFCURVE",
"683 427 OFFCURVE",
"676 359 CURVE SMOOTH",
"650 112 LINE SMOOTH",
"641 30 OFFCURVE",
"673 -6 OFFCURVE",
"739 -6 CURVE SMOOTH"
);
}
);
};
color = -1;
layerId = UUID0;
paths = (
{
closed = 1;
nodes = (
"757 -6 OFFCURVE",
"794 2 OFFCURVE",
"799 27 CURVE SMOOTH",
"803 49 OFFCURVE",
"803 62 OFFCURVE",
"803 63 CURVE SMOOTH",
"803 69 OFFCURVE",
"800 71 OFFCURVE",
"797 71 CURVE SMOOTH",
"791 71 OFFCURVE",
"779 64 OFFCURVE",
"760 64 CURVE SMOOTH",
"740 64 OFFCURVE",
"731 79 OFFCURVE",
"734 107 CURVE SMOOTH",
"761 379 LINE SMOOTH",
"770 473 OFFCURVE",
"728 529 OFFCURVE",
"631 529 CURVE SMOOTH",
"569 529 OFFCURVE",
"505 496 OFFCURVE",
"460 421 CURVE",
"453 484 OFFCURVE",
"416 529 OFFCURVE",
"329 529 CURVE SMOOTH",
"261 529 OFFCURVE",
"190 490 OFFCURVE",
"145 398 CURVE",
"158 377 LINE",
"161 400 OFFCURVE",
"162 429 OFFCURVE",
"162 447 CURVE SMOOTH",
"162 475 OFFCURVE",
"156 514 OFFCURVE",
"136 514 CURVE SMOOTH",
"129 514 OFFCURVE",
"80 513 OFFCURVE",
"80 491 CURVE SMOOTH",
"80 485 OFFCURVE",
"81 481 OFFCURVE",
"81 457 CURVE SMOOTH",
"81 409 OFFCURVE",
"53 166 OFFCURVE",
"37 21 CURVE SMOOTH",
"35 7 OFFCURVE",
"48 -2 OFFCURVE",
"75 -2 CURVE SMOOTH",
"79 -2 LINE SMOOTH",
"105 -2 OFFCURVE",
"119 6 OFFCURVE",
"121 20 CURVE",
"151 307 LINE",
"195 426 OFFCURVE",
"258 456 OFFCURVE",
"299 456 CURVE SMOOTH",
"350 456 OFFCURVE",
"380 430 OFFCURVE",
"374 369 CURVE SMOOTH",
"338 21 LINE SMOOTH",
"337 7 OFFCURVE",
"349 -2 OFFCURVE",
"376 -2 CURVE SMOOTH",
"380 -2 LINE SMOOTH",
"406 -2 OFFCURVE",
"421 6 OFFCURVE",
"422 20 CURVE",
"456 343 LINE",
"438 260 LINE",
"481 417 OFFCURVE",
"555 456 OFFCURVE",
"601 456 CURVE SMOOTH",
"652 456 OFFCURVE",
"683 427 OFFCURVE",
"676 359 CURVE SMOOTH",
"650 112 LINE SMOOTH",
"641 30 OFFCURVE",
"673 -6 OFFCURVE",
"739 -6 CURVE SMOOTH"
);
}
);
width = 848;
},
{
background = {
paths = (
{
closed = 1;
nodes = (
"767 -8 OFFCURVE",
"813 7 OFFCURVE",
"820 44 CURVE SMOOTH",
"827 79 OFFCURVE",
"827 97 OFFCURVE",
"827 103 CURVE SMOOTH",
"827 112 OFFCURVE",
"825 115 OFFCURVE",
"819 115 CURVE SMOOTH",
"815 115 OFFCURVE",
"804 109 OFFCURVE",
"790 109 CURVE SMOOTH",
"769 109 OFFCURVE",
"758 119 OFFCURVE",
"761 147 CURVE SMOOTH",
"783 384 LINE SMOOTH",
"793 491 OFFCURVE",
"742 531 OFFCURVE",
"653 531 CURVE SMOOTH",
"589 531 OFFCURVE",
"524 492 OFFCURVE",
"493 454 CURVE",
"478 506 OFFCURVE",
"436 531 OFFCURVE",
"367 531 CURVE SMOOTH",
"292 531 OFFCURVE",
"214 473 OFFCURVE",
"193 424 CURVE",
"210 397 LINE",
"211 404 OFFCURVE",
"213 420 OFFCURVE",
"213 439 CURVE SMOOTH",
"213 475 OFFCURVE",
"207 520 OFFCURVE",
"180 520 CURVE SMOOTH",
"115 520 OFFCURVE",
"64 506 OFFCURVE",
"64 484 CURVE SMOOTH",
"64 469 OFFCURVE",
"66 452 OFFCURVE",
"66 428 CURVE SMOOTH",
"66 391 OFFCURVE",
"66 400 OFFCURVE",
"28 29 CURVE",
"28 13 OFFCURVE",
"45 -2 OFFCURVE",
"85 -2 CURVE SMOOTH",
"113 -2 LINE SMOOTH",
"152 -2 OFFCURVE",
"174 9 OFFCURVE",
"176 30 CURVE SMOOTH",
"208 351 LINE",
"227 379 OFFCURVE",
"256 409 OFFCURVE",
"294 409 CURVE SMOOTH",
"333 409 OFFCURVE",
"348 391 OFFCURVE",
"348 359 CURVE SMOOTH",
"348 349 OFFCURVE",
"315 29 OFFCURVE",
"315 29 CURVE",
"315 13 OFFCURVE",
"332 -2 OFFCURVE",
"372 -2 CURVE SMOOTH",
"400 -2 LINE SMOOTH",
"439 -2 OFFCURVE",
"461 9 OFFCURVE",
"463 30 CURVE SMOOTH",
"494 352 LINE",
"513 380 OFFCURVE",
"543 409 OFFCURVE",
"580 409 CURVE SMOOTH",
"619 409 OFFCURVE",
"637 391 OFFCURVE",
"633 349 CURVE SMOOTH",
"613 139 LINE SMOOTH",
"602 29 OFFCURVE",
"654 -8 OFFCURVE",
"732 -8 CURVE SMOOTH"
);
}
);
};
color = -1;
layerId = "DE974D70-A5B4-43AB-B940-69E4F08CB641";
paths = (
{
closed = 1;
nodes = (
"767 -8 OFFCURVE",
"813 7 OFFCURVE",
"820 44 CURVE SMOOTH",
"827 79 OFFCURVE",
"827 97 OFFCURVE",
"827 103 CURVE SMOOTH",
"827 112 OFFCURVE",
"825 115 OFFCURVE",
"819 115 CURVE SMOOTH",
"815 115 OFFCURVE",
"804 109 OFFCURVE",
"790 109 CURVE SMOOTH",
"769 109 OFFCURVE",
"758 119 OFFCURVE",
"761 147 CURVE SMOOTH",
"783 384 LINE SMOOTH",
"793 491 OFFCURVE",
"742 531 OFFCURVE",
"653 531 CURVE SMOOTH",
"589 531 OFFCURVE",
"524 492 OFFCURVE",
"493 454 CURVE",
"478 506 OFFCURVE",
"436 531 OFFCURVE",
"367 531 CURVE SMOOTH",
"292 531 OFFCURVE",
"214 473 OFFCURVE",
"193 424 CURVE",
"210 397 LINE",
"211 404 OFFCURVE",
"213 420 OFFCURVE",
"213 439 CURVE SMOOTH",
"213 475 OFFCURVE",
"207 520 OFFCURVE",
"180 520 CURVE SMOOTH",
"115 520 OFFCURVE",
"64 506 OFFCURVE",
"64 484 CURVE SMOOTH",
"64 469 OFFCURVE",
"66 452 OFFCURVE",
"66 428 CURVE SMOOTH",
"66 374 OFFCURVE",
"42 163 OFFCURVE",
"28 31 CURVE SMOOTH",
"26 13 OFFCURVE",
"45 -2 OFFCURVE",
"85 -2 CURVE SMOOTH",
"113 -2 LINE SMOOTH",
"152 -2 OFFCURVE",
"174 9 OFFCURVE",
"176 30 CURVE SMOOTH",
"208 351 LINE",
"227 379 OFFCURVE",
"256 409 OFFCURVE",
"294 409 CURVE SMOOTH",
"333 409 OFFCURVE",
"351 391 OFFCURVE",
"347 349 CURVE SMOOTH",
"315 31 LINE SMOOTH",
"313 13 OFFCURVE",
"332 -2 OFFCURVE",
"372 -2 CURVE SMOOTH",
"400 -2 LINE SMOOTH",
"439 -2 OFFCURVE",
"461 9 OFFCURVE",
"463 30 CURVE SMOOTH",
"500 419 LINE",
"476 320 LINE",
"489 351 OFFCURVE",
"527 409 OFFCURVE",
"580 409 CURVE SMOOTH",
"619 409 OFFCURVE",
"637 391 OFFCURVE",
"633 349 CURVE SMOOTH",
"613 139 LINE SMOOTH",
"602 29 OFFCURVE",
"654 -8 OFFCURVE",
"732 -8 CURVE SMOOTH"
);
}
);
width = 848;
}
);
leftKerningGroup = n;
rightKerningGroup = n;
unicode = 006D;
},
{
glyphname = n;
layers = (
{
anchors = (
{
name = bottom;
position = "{262, 0}";
},
{
name = top;
position = "{305, 523}";
}
);
background = {
paths = (
{
closed = 1;
nodes = (
"271 529 OFFCURVE",
"200 495 OFFCURVE",
"142 399 CURVE",
"155 377 LINE",
"159 392 OFFCURVE",
"162 420 OFFCURVE",
"162 447 CURVE SMOOTH",
"162 482 OFFCURVE",
"156 514 OFFCURVE",
"136 514 CURVE SMOOTH",
"129 514 OFFCURVE",
"80 513 OFFCURVE",
"80 491 CURVE SMOOTH",
"80 485 OFFCURVE",
"81 481 OFFCURVE",
"81 457 CURVE SMOOTH",
"81 410 OFFCURVE",
"37 19 OFFCURVE",
"37 19 CURVE",
"37 7 OFFCURVE",
"48 -2 OFFCURVE",
"75 -2 CURVE SMOOTH",
"79 -2 LINE SMOOTH",
"105 -2 OFFCURVE",
"119 6 OFFCURVE",
"121 20 CURVE",
"121 20 OFFCURVE",
"137 166 OFFCURVE",
"150 295 CURVE",
"193 424 OFFCURVE",
"265 456 OFFCURVE",
"309 456 CURVE SMOOTH",
"360 456 OFFCURVE",
"385 430 OFFCURVE",
"385 379 CURVE SMOOTH",
"385 350 OFFCURVE",
"357 135 OFFCURVE",
"357 92 CURVE SMOOTH",
"357 24 OFFCURVE",
"390 -6 OFFCURVE",
"447 -6 CURVE SMOOTH",
"465 -6 OFFCURVE",
"502 2 OFFCURVE",
"507 27 CURVE SMOOTH",
"511 49 OFFCURVE",
"511 62 OFFCURVE",
"511 63 CURVE SMOOTH",
"511 69 OFFCURVE",
"508 71 OFFCURVE",
"505 71 CURVE SMOOTH",
"499 71 OFFCURVE",
"487 64 OFFCURVE",
"468 64 CURVE SMOOTH",
"448 64 OFFCURVE",
"439 79 OFFCURVE",
"442 107 CURVE SMOOTH",
"445 138 OFFCURVE",
"471 372 OFFCURVE",
"471 399 CURVE SMOOTH",
"471 473 OFFCURVE",
"436 529 OFFCURVE",
"339 529 CURVE SMOOTH"
);
}
);
};
color = -1;
layerId = UUID0;
paths = (
{
closed = 1;
nodes = (
"478 -6 OFFCURVE",
"515 2 OFFCURVE",
"520 27 CURVE SMOOTH",
"524 49 OFFCURVE",
"524 62 OFFCURVE",
"524 63 CURVE SMOOTH",
"524 69 OFFCURVE",
"521 71 OFFCURVE",
"518 71 CURVE SMOOTH",
"512 71 OFFCURVE",
"500 64 OFFCURVE",
"481 64 CURVE SMOOTH",
"461 64 OFFCURVE",
"452 79 OFFCURVE",
"455 107 CURVE SMOOTH",
"482 379 LINE SMOOTH",
"491 473 OFFCURVE",
"449 529 OFFCURVE",
"352 529 CURVE SMOOTH",
"284 529 OFFCURVE",
"213 495 OFFCURVE",
"155 399 CURVE",
"168 377 LINE",
"172 392 OFFCURVE",
"175 420 OFFCURVE",
"175 447 CURVE SMOOTH",
"175 482 OFFCURVE",
"169 514 OFFCURVE",
"149 514 CURVE SMOOTH",
"142 514 OFFCURVE",
"93 513 OFFCURVE",
"93 491 CURVE SMOOTH",
"93 485 OFFCURVE",
"94 481 OFFCURVE",
"94 457 CURVE SMOOTH",
"94 436 OFFCURVE",
"89 377 OFFCURVE",
"83 321 CURVE SMOOTH",
"51 21 LINE SMOOTH",
"50 7 OFFCURVE",
"61 -2 OFFCURVE",
"88 -2 CURVE SMOOTH",
"92 -2 LINE SMOOTH",
"118 -2 OFFCURVE",
"133 6 OFFCURVE",
"134 20 CURVE SMOOTH",
"163 295 LINE",
"206 424 OFFCURVE",
"278 456 OFFCURVE",
"322 456 CURVE SMOOTH",
"373 456 OFFCURVE",
"403 430 OFFCURVE",
"397 369 CURVE SMOOTH",
"372 112 LINE SMOOTH",
"363 24 OFFCURVE",
"403 -6 OFFCURVE",
"460 -6 CURVE SMOOTH"
);
}
);
width = 557;
},
{
anchors = (
{
name = bottom;
position = "{262, 0}";
},
{
name = top;
position = "{294, 523}";
}
);
background = {
paths = (
{
closed = 1;
nodes = (
"477 -8 OFFCURVE",
"523 7 OFFCURVE",
"530 44 CURVE SMOOTH",
"537 79 OFFCURVE",
"537 97 OFFCURVE",
"537 103 CURVE SMOOTH",
"537 112 OFFCURVE",
"535 115 OFFCURVE",
"529 115 CURVE SMOOTH",
"525 115 OFFCURVE",
"514 109 OFFCURVE",
"500 109 CURVE SMOOTH",
"479 109 OFFCURVE",
"468 119 OFFCURVE",
"471 147 CURVE SMOOTH",
"473 164 OFFCURVE",
"495 382 OFFCURVE",
"495 404 CURVE SMOOTH",
"495 491 OFFCURVE",
"452 531 OFFCURVE",
"363 531 CURVE SMOOTH",
"286 531 OFFCURVE",
"207 470 OFFCURVE",
"188 423 CURVE",
"204 395 LINE",
"205 406 OFFCURVE",
"207 424 OFFCURVE",
"207 443 CURVE SMOOTH",
"207 480 OFFCURVE",
"201 520 OFFCURVE",
"174 520 CURVE SMOOTH",
"109 520 OFFCURVE",
"58 506 OFFCURVE",
"58 484 CURVE SMOOTH",
"58 469 OFFCURVE",
"60 452 OFFCURVE",
"60 428 CURVE SMOOTH",
"60 391 OFFCURVE",
"60 400 OFFCURVE",
"22 29 CURVE",
"22 13 OFFCURVE",
"39 -2 OFFCURVE",
"79 -2 CURVE SMOOTH",
"107 -2 LINE SMOOTH",
"146 -2 OFFCURVE",
"168 9 OFFCURVE",
"170 30 CURVE",
"170 30 OFFCURVE",
"191 216 OFFCURVE",
"202 348 CURVE",
"220 376 OFFCURVE",
"251 409 OFFCURVE",
"290 409 CURVE SMOOTH",
"329 409 OFFCURVE",
"344 391 OFFCURVE",
"344 359 CURVE SMOOTH",
"344 345 OFFCURVE",
"321 143 OFFCURVE",
"321 119 CURVE SMOOTH",
"321 29 OFFCURVE",
"364 -8 OFFCURVE",
"442 -8 CURVE SMOOTH"
);
}
);
};
color = -1;
layerId = "DE974D70-A5B4-43AB-B940-69E4F08CB641";
paths = (
{
closed = 1;
nodes = (
"479 -8 OFFCURVE",
"525 7 OFFCURVE",
"532 44 CURVE SMOOTH",
"539 79 OFFCURVE",
"539 97 OFFCURVE",
"539 103 CURVE SMOOTH",
"539 112 OFFCURVE",
"537 115 OFFCURVE",
"531 115 CURVE SMOOTH",
"527 115 OFFCURVE",
"516 109 OFFCURVE",
"502 109 CURVE SMOOTH",
"481 109 OFFCURVE",
"470 119 OFFCURVE",
"473 147 CURVE SMOOTH",
"495 384 LINE SMOOTH",
"505 491 OFFCURVE",
"454 531 OFFCURVE",
"365 531 CURVE SMOOTH",
"288 531 OFFCURVE",
"209 470 OFFCURVE",
"190 423 CURVE",
"206 395 LINE",
"207 406 OFFCURVE",
"209 424 OFFCURVE",
"209 443 CURVE SMOOTH",
"209 480 OFFCURVE",
"203 520 OFFCURVE",
"176 520 CURVE SMOOTH",
"111 520 OFFCURVE",
"60 506 OFFCURVE",
"60 484 CURVE SMOOTH",
"60 469 OFFCURVE",
"62 452 OFFCURVE",
"62 428 CURVE SMOOTH",
"62 414 OFFCURVE",
"60 385 OFFCURVE",
"58 362 CURVE SMOOTH",
"24 29 LINE SMOOTH",
"22 13 OFFCURVE",
"41 -2 OFFCURVE",
"81 -2 CURVE SMOOTH",
"109 -2 LINE SMOOTH",
"148 -2 OFFCURVE",
"170 9 OFFCURVE",
"172 30 CURVE SMOOTH",
"204 348 LINE",
"222 376 OFFCURVE",
"253 409 OFFCURVE",
"292 409 CURVE SMOOTH",
"331 409 OFFCURVE",
"349 391 OFFCURVE",
"345 349 CURVE SMOOTH",
"325 139 LINE SMOOTH",
"315 29 OFFCURVE",
"366 -8 OFFCURVE",
"444 -8 CURVE SMOOTH"
);
}
);
width = 557;
}
);
leftKerningGroup = n;
rightKerningGroup = n;
unicode = 006E;
},
{
glyphname = eng;
layers = (
{
color = -1;
layerId = UUID0;
paths = (
{
closed = 1;
nodes = (
"356 -212 OFFCURVE",
"425 -190 OFFCURVE",
"437 -74 CURVE SMOOTH",
"484 379 LINE SMOOTH",
"494 473 OFFCURVE",
"451 529 OFFCURVE",
"354 529 CURVE SMOOTH",
"293 529 OFFCURVE",
"231 502 OFFCURVE",
"177 428 CURVE",
"177 485 OFFCURVE",
"172 514 OFFCURVE",
"151 514 CURVE SMOOTH",
"144 514 OFFCURVE",
"95 513 OFFCURVE",
"95 491 CURVE SMOOTH",
"95 485 OFFCURVE",
"96 481 OFFCURVE",
"96 457 CURVE SMOOTH",
"96 436 OFFCURVE",
"91 377 OFFCURVE",
"85 321 CURVE SMOOTH",
"53 21 LINE",
"51 7 OFFCURVE",
"63 -2 OFFCURVE",
"90 -2 CURVE SMOOTH",
"94 -2 LINE SMOOTH",
"120 -2 OFFCURVE",
"135 6 OFFCURVE",
"136 20 CURVE SMOOTH",
"165 295 LINE",
"208 424 OFFCURVE",
"280 456 OFFCURVE",
"324 456 CURVE SMOOTH",
"375 456 OFFCURVE",
"405 430 OFFCURVE",
"399 369 CURVE SMOOTH",
"354 -66 LINE SMOOTH",
"348 -126 OFFCURVE",
"325 -140 OFFCURVE",
"294 -140 CURVE SMOOTH",
"259 -140 OFFCURVE",
"246 -123 OFFCURVE",
"238 -123 CURVE SMOOTH",
"233 -123 OFFCURVE",
"227 -129 OFFCURVE",
"227 -171 CURVE SMOOTH",
"227 -195 OFFCURVE",
"259 -212 OFFCURVE",
"305 -212 CURVE SMOOTH"
);
}
);
width = 557;
},
{
color = -1;
layerId = "DE974D70-A5B4-43AB-B940-69E4F08CB641";
paths = (
{
closed = 1;
nodes = (
"398 -212 OFFCURVE",
"454 -152 OFFCURVE",
"465 -50 CURVE SMOOTH",
"512 404 LINE",
"512 491 OFFCURVE",
"469 531 OFFCURVE",
"380 531 CURVE SMOOTH",
"319 531 OFFCURVE",
"256 493 OFFCURVE",
"224 453 CURVE",
"223 487 OFFCURVE",
"216 520 OFFCURVE",
"191 520 CURVE SMOOTH",
"126 520 OFFCURVE",
"75 506 OFFCURVE",
"75 484 CURVE SMOOTH",
"75 469 OFFCURVE",
"77 452 OFFCURVE",
"77 428 CURVE SMOOTH",
"77 399 OFFCURVE",
"76 371 OFFCURVE",
"75 362 CURVE SMOOTH",
"39 29 LINE SMOOTH",
"37 13 OFFCURVE",
"56 -2 OFFCURVE",
"96 -2 CURVE SMOOTH",
"124 -2 LINE SMOOTH",
"163 -2 OFFCURVE",
"185 9 OFFCURVE",
"187 30 CURVE SMOOTH",
"219 348 LINE",
"237 376 OFFCURVE",
"268 409 OFFCURVE",
"307 409 CURVE SMOOTH",
"342 409 OFFCURVE",
"358 395 OFFCURVE",
"360 369 CURVE",
"317 -52 LINE SMOOTH",
"314 -82 OFFCURVE",
"302 -95 OFFCURVE",
"277 -95 CURVE SMOOTH",
"257 -95 OFFCURVE",
"247 -90 OFFCURVE",
"242 -90 CURVE SMOOTH",
"233 -90 OFFCURVE",
"224 -110 OFFCURVE",
"224 -173 CURVE SMOOTH",
"224 -211 OFFCURVE",
"272 -212 OFFCURVE",
"302 -212 CURVE SMOOTH"
);
}
);
width = 557;
}
);
leftKerningGroup = n;
rightKerningGroup = n;
unicode = 014B;
},
{
glyphname = nhookleft;
layers = (
{
layerId = "DE974D70-A5B4-43AB-B940-69E4F08CB641";
paths = (
{
closed = 1;
nodes = (
"95 -212 OFFCURVE",
"151 -154 OFFCURVE",
"162 -50 CURVE SMOOTH",
"204 348 LINE",
"222 376 OFFCURVE",
"253 409 OFFCURVE",
"292 409 CURVE SMOOTH",
"331 409 OFFCURVE",
"349 391 OFFCURVE",
"345 349 CURVE SMOOTH",
"325 139 LINE SMOOTH",
"315 29 OFFCURVE",
"366 -8 OFFCURVE",
"444 -8 CURVE SMOOTH",
"479 -8 OFFCURVE",
"525 7 OFFCURVE",
"532 44 CURVE SMOOTH",
"539 79 OFFCURVE",
"539 97 OFFCURVE",
"539 103 CURVE SMOOTH",
"539 112 OFFCURVE",
"537 115 OFFCURVE",
"531 115 CURVE SMOOTH",
"527 115 OFFCURVE",
"516 109 OFFCURVE",
"502 109 CURVE SMOOTH",
"481 109 OFFCURVE",
"470 119 OFFCURVE",
"473 147 CURVE SMOOTH",
"495 384 LINE SMOOTH",
"505 491 OFFCURVE",
"454 531 OFFCURVE",
"365 531 CURVE SMOOTH",
"304 531 OFFCURVE",
"241 493 OFFCURVE",
"209 453 CURVE",
"208 487 OFFCURVE",
"201 520 OFFCURVE",
"176 520 CURVE SMOOTH",
"111 520 OFFCURVE",
"60 506 OFFCURVE",
"60 484 CURVE SMOOTH",
"60 469 OFFCURVE",
"62 452 OFFCURVE",
"62 428 CURVE SMOOTH",
"62 414 OFFCURVE",
"60 385 OFFCURVE",
"58 362 CURVE SMOOTH",
"14 -52 LINE SMOOTH",
"10 -82 OFFCURVE",
"1 -95 OFFCURVE",
"-21 -95 CURVE SMOOTH",
"-36 -95 OFFCURVE",
"-46 -90 OFFCURVE",
"-51 -90 CURVE SMOOTH",
"-60 -90 OFFCURVE",
"-69 -110 OFFCURVE",
"-69 -173 CURVE SMOOTH",
"-69 -211 OFFCURVE",
"-24 -212 OFFCURVE",
"-1 -212 CURVE SMOOTH"
);
}
);
width = 557;
},
{
layerId = UUID0;
paths = (
{
closed = 1;
nodes = (
"46 -212 OFFCURVE",
"113 -190 OFFCURVE",
"125 -74 CURVE SMOOTH",
"163 295 LINE",
"206 424 OFFCURVE",
"278 456 OFFCURVE",
"322 456 CURVE SMOOTH",
"373 456 OFFCURVE",
"403 430 OFFCURVE",
"397 369 CURVE SMOOTH",
"372 112 LINE SMOOTH",
"363 24 OFFCURVE",
"403 -6 OFFCURVE",
"460 -6 CURVE SMOOTH",
"478 -6 OFFCURVE",
"515 2 OFFCURVE",
"520 27 CURVE SMOOTH",
"524 49 OFFCURVE",
"524 62 OFFCURVE",
"524 63 CURVE SMOOTH",
"524 69 OFFCURVE",
"521 71 OFFCURVE",
"518 71 CURVE SMOOTH",
"512 71 OFFCURVE",
"500 64 OFFCURVE",
"481 64 CURVE SMOOTH",
"461 64 OFFCURVE",
"452 79 OFFCURVE",
"455 107 CURVE SMOOTH",
"482 379 LINE SMOOTH",
"491 473 OFFCURVE",
"449 529 OFFCURVE",
"352 529 CURVE SMOOTH",
"291 529 OFFCURVE",
"229 502 OFFCURVE",
"175 428 CURVE",
"175 485 OFFCURVE",
"170 514 OFFCURVE",
"149 514 CURVE SMOOTH",
"142 514 OFFCURVE",
"93 513 OFFCURVE",
"93 491 CURVE SMOOTH",
"93 485 OFFCURVE",
"94 481 OFFCURVE",
"94 457 CURVE SMOOTH",
"94 436 OFFCURVE",
"89 377 OFFCURVE",
"83 321 CURVE SMOOTH",
"42 -66 LINE SMOOTH",
"36 -126 OFFCURVE",
"14 -140 OFFCURVE",
"-15 -140 CURVE SMOOTH",
"-47 -140 OFFCURVE",
"-60 -123 OFFCURVE",
"-68 -123 CURVE SMOOTH",
"-73 -123 OFFCURVE",
"-79 -129 OFFCURVE",
"-79 -171 CURVE SMOOTH",
"-79 -195 OFFCURVE",
"-47 -212 OFFCURVE",
"-4 -212 CURVE SMOOTH"
);
}
);
width = 600;
}
);
leftKerningGroup = n;
rightKerningGroup = n;
unicode = 0272;
},
{
glyphname = o;
layers = (
{
anchors = (
{
name = bottom;
position = "{258, 0}";
},
{
name = ogonek;
position = "{312, 0}";
},
{
name = top;
position = "{289, 523}";
},
{
name = topright;
position = "{374, 523}";
}
);
color = -1;
layerId = UUID0;
paths = (
{
closed = 1;
nodes = (
"426 -6 OFFCURVE",
"517 98 OFFCURVE",
"517 302 CURVE SMOOTH",
"517 446 OFFCURVE",
"440 529 OFFCURVE",
"306 529 CURVE SMOOTH",
"122 529 OFFCURVE",
"52 382 OFFCURVE",
"52 219 CURVE SMOOTH",
"52 76 OFFCURVE",
"130 -6 OFFCURVE",
"269 -6 CURVE SMOOTH"
);
},
{
closed = 1;
nodes = (
"186 66 OFFCURVE",
"138 120 OFFCURVE",
"138 222 CURVE SMOOTH",
"138 369 OFFCURVE",
"188 457 OFFCURVE",
"295 457 CURVE SMOOTH",
"383 457 OFFCURVE",
"430 403 OFFCURVE",
"430 300 CURVE SMOOTH",
"430 144 OFFCURVE",
"378 66 OFFCURVE",
"274 66 CURVE SMOOTH"
);
}
);
width = 569;
},
{
anchors = (
{
name = bottom;
position = "{258, 0}";
},
{
name = ogonek;
position = "{316, 0}";
},
{
name = top;
position = "{294, 523}";
},
{
name = topright;
position = "{367, 523}";
}
);
color = -1;
layerId = "DE974D70-A5B4-43AB-B940-69E4F08CB641";
paths = (
{
closed = 1;
nodes = (
"430 -8 OFFCURVE",
"530 101 OFFCURVE",
"530 306 CURVE SMOOTH",
"530 449 OFFCURVE",
"451 531 OFFCURVE",
"308 531 CURVE SMOOTH",
"99 531 OFFCURVE",
"39 379 OFFCURVE",
"39 216 CURVE SMOOTH",
"39 74 OFFCURVE",
"118 -8 OFFCURVE",
"261 -8 CURVE SMOOTH"
);
},
{
closed = 1;
nodes = (
"219 109 OFFCURVE",
"189 151 OFFCURVE",
"189 223 CURVE SMOOTH",
"189 351 OFFCURVE",
"226 414 OFFCURVE",
"296 414 CURVE SMOOTH",
"350 414 OFFCURVE",
"379 372 OFFCURVE",
"379 299 CURVE SMOOTH",
"379 172 OFFCURVE",
"342 109 OFFCURVE",
"273 109 CURVE SMOOTH"
);
}
);
width = 569;
}
);
leftKerningGroup = o;
rightKerningGroup = o;
unicode = 006F;
},
{
glyphname = ohorn;
layers = (
{
anchors = (
{
name = bottom;
position = "{258, 0}";
},
{
name = ogonek;
position = "{310, 0}";
},
{
name = top;
position = "{319, 523}";
},
{
name = topright;
position = "{374, 523}";
}
);
background = {
paths = (
{
closed = 1;
nodes = (
"426 -6 OFFCURVE",
"517 98 OFFCURVE",
"517 302 CURVE SMOOTH",
"517 446 OFFCURVE",
"440 529 OFFCURVE",
"306 529 CURVE SMOOTH",
"122 529 OFFCURVE",
"52 382 OFFCURVE",
"52 219 CURVE SMOOTH",
"52 76 OFFCURVE",
"130 -6 OFFCURVE",
"269 -6 CURVE SMOOTH"
);
},
{
closed = 1;
nodes = (
"186 66 OFFCURVE",
"138 120 OFFCURVE",
"138 222 CURVE SMOOTH",
"138 369 OFFCURVE",
"188 457 OFFCURVE",
"295 457 CURVE SMOOTH",
"383 457 OFFCURVE",
"430 403 OFFCURVE",
"430 300 CURVE SMOOTH",
"430 144 OFFCURVE",
"378 66 OFFCURVE",
"274 66 CURVE SMOOTH"
);
}
);
};
color = -1;
layerId = UUID0;
paths = (
{
closed = 1;
nodes = (
"426 -6 OFFCURVE",
"517 98 OFFCURVE",
"517 302 CURVE SMOOTH",
"517 368 OFFCURVE",
"499 433 OFFCURVE",
"458 473 CURVE",
"516 473 OFFCURVE",
"559 516 OFFCURVE",
"559 570 CURVE SMOOTH",
"559 599 OFFCURVE",
"544 636 OFFCURVE",
"523 636 CURVE SMOOTH",
"519 636 OFFCURVE",
"515 635 OFFCURVE",
"511 632 CURVE",
"485 616 LINE SMOOTH",
"479 612 OFFCURVE",
"475 605 OFFCURVE",
"475 599 CURVE SMOOTH",
"475 588 OFFCURVE",
"495 570 OFFCURVE",
"495 543 CURVE SMOOTH",
"495 520 OFFCURVE",
"477 505 OFFCURVE",
"449 505 CURVE SMOOTH",
"426 505 OFFCURVE",
"416 510 OFFCURVE",
"394 515 CURVE SMOOTH",
"371 524 OFFCURVE",
"335 529 OFFCURVE",
"306 529 CURVE SMOOTH",
"122 529 OFFCURVE",
"52 382 OFFCURVE",
"52 219 CURVE SMOOTH",
"52 76 OFFCURVE",
"130 -6 OFFCURVE",
"269 -6 CURVE SMOOTH"
);
},
{
closed = 1;
nodes = (
"186 66 OFFCURVE",
"138 120 OFFCURVE",
"138 222 CURVE SMOOTH",
"138 370 OFFCURVE",
"187 457 OFFCURVE",
"295 457 CURVE SMOOTH",
"383 457 OFFCURVE",
"430 403 OFFCURVE",
"430 300 CURVE SMOOTH",
"430 144 OFFCURVE",
"378 66 OFFCURVE",
"274 66 CURVE SMOOTH"
);
}
);
width = 569;
},
{
anchors = (
{
name = bottom;
position = "{258, 0}";
},
{
name = ogonek;
position = "{320, 0}";
},
{
name = top;
position = "{311, 523}";
},
{
name = topright;
position = "{367, 523}";
}
);
background = {
paths = (
{
closed = 1;
nodes = (
"430 -8 OFFCURVE",
"530 101 OFFCURVE",
"530 306 CURVE SMOOTH",
"530 449 OFFCURVE",
"451 531 OFFCURVE",
"308 531 CURVE SMOOTH",
"99 531 OFFCURVE",
"39 379 OFFCURVE",
"39 216 CURVE SMOOTH",
"39 74 OFFCURVE",
"118 -8 OFFCURVE",
"261 -8 CURVE SMOOTH"
);
},
{
closed = 1;
nodes = (
"219 109 OFFCURVE",
"189 151 OFFCURVE",
"189 223 CURVE SMOOTH",
"189 351 OFFCURVE",
"226 414 OFFCURVE",
"296 414 CURVE SMOOTH",
"350 414 OFFCURVE",
"379 372 OFFCURVE",
"379 299 CURVE SMOOTH",
"379 172 OFFCURVE",
"342 109 OFFCURVE",
"273 109 CURVE SMOOTH"
);
}
);
};
color = -1;
layerId = "DE974D70-A5B4-43AB-B940-69E4F08CB641";
paths = (
{
closed = 1;
nodes = (
"430 -8 OFFCURVE",
"530 101 OFFCURVE",
"530 306 CURVE SMOOTH",
"530 369 OFFCURVE",
"514 426 OFFCURVE",
"481 463 CURVE",
"559 463 OFFCURVE",
"604 507 OFFCURVE",
"604 564 CURVE SMOOTH",
"604 594 OFFCURVE",
"589 639 OFFCURVE",
"565 639 CURVE SMOOTH",
"559 639 OFFCURVE",
"554 638 OFFCURVE",
"549 634 CURVE",
"515 612 LINE",
"506 607 OFFCURVE",
"501 599 OFFCURVE",
"501 592 CURVE SMOOTH",
"501 580 OFFCURVE",
"522 564 OFFCURVE",
"522 544 CURVE SMOOTH",
"522 519 OFFCURVE",
"504 505 OFFCURVE",
"471 505 CURVE SMOOTH",
"453 505 OFFCURVE",
"434 507 OFFCURVE",
"407 515 CURVE SMOOTH",
"378 524 OFFCURVE",
"344 531 OFFCURVE",
"308 531 CURVE SMOOTH",
"99 531 OFFCURVE",
"39 379 OFFCURVE",
"39 216 CURVE SMOOTH",
"39 75 OFFCURVE",
"114 -8 OFFCURVE",
"257 -8 CURVE SMOOTH"
);
},
{
closed = 1;
nodes = (
"219 109 OFFCURVE",
"189 150 OFFCURVE",
"189 223 CURVE SMOOTH",
"189 351 OFFCURVE",
"226 414 OFFCURVE",
"296 414 CURVE SMOOTH",
"349 414 OFFCURVE",
"379 372 OFFCURVE",
"379 299 CURVE SMOOTH",
"379 172 OFFCURVE",
"342 109 OFFCURVE",
"273 109 CURVE SMOOTH"
);
}
);
width = 569;
}
);
leftKerningGroup = o;
rightKerningGroup = ohorn;
unicode = 01A1;
},
{
glyphname = oslash;
layers = (
{
anchors = (
{
name = top;
position = "{312, 523}";
}
);
background = {
paths = (
{
closed = 1;
nodes = (
"127 529 OFFCURVE",
"51 375 OFFCURVE",
"51 209 CURVE SMOOTH",
"51 154 OFFCURVE",
"61 109 OFFCURVE",
"83 75 CURVE",
"42 33 LINE SMOOTH",
"38 29 OFFCURVE",
"37 26 OFFCURVE",
"37 22 CURVE SMOOTH",
"37 19 OFFCURVE",
"39 15 OFFCURVE",
"43 11 CURVE SMOOTH",
"48 6 LINE SMOOTH",
"52 2 OFFCURVE",
"55 0 OFFCURVE",
"59 0 CURVE SMOOTH",
"62 0 OFFCURVE",
"65 2 OFFCURVE",
"69 6 CURVE SMOOTH",
"107 45 LINE",
"142 11 OFFCURVE",
"192 -6 OFFCURVE",
"258 -6 CURVE SMOOTH",
"418 -6 OFFCURVE",
"516 105 OFFCURVE",
"516 312 CURVE SMOOTH",
"516 363 OFFCURVE",
"507 406 OFFCURVE",
"488 440 CURVE",
"537 490 LINE SMOOTH",
"540 494 OFFCURVE",
"542 497 OFFCURVE",
"542 501 CURVE SMOOTH",
"542 504 OFFCURVE",
"540 508 OFFCURVE",
"536 512 CURVE SMOOTH",
"531 517 LINE SMOOTH",
"527 521 OFFCURVE",
"523 523 OFFCURVE",
"520 523 CURVE SMOOTH",
"516 523 OFFCURVE",
"513 521 OFFCURVE",
"510 517 CURVE SMOOTH",
"466 472 LINE",
"432 509 OFFCURVE",
"381 529 OFFCURVE",
"315 529 CURVE SMOOTH"
);
},
{
closed = 1;
nodes = (
"425 371 OFFCURVE",
"429 343 OFFCURVE",
"429 310 CURVE SMOOTH",
"429 151 OFFCURVE",
"370 66 OFFCURVE",
"263 66 CURVE SMOOTH",
"218 66 OFFCURVE",
"186 79 OFFCURVE",
"165 105 CURVE",
"431 380 LINE",
"414 390 LINE"
);
},
{
closed = 1;
nodes = (
"352 457 OFFCURVE",
"386 441 OFFCURVE",
"406 410 CURVE",
"138 133 LINE",
"154 123 LINE",
"143 143 OFFCURVE",
"137 174 OFFCURVE",
"137 212 CURVE SMOOTH",
"137 362 OFFCURVE",
"194 457 OFFCURVE",
"304 457 CURVE SMOOTH"
);
}
);
};
color = -1;
components = (
{
name = o;
}
);
layerId = UUID0;
paths = (
{
closed = 1;
nodes = (
"63 0 OFFCURVE",
"68 3 OFFCURVE",
"72 7 CURVE SMOOTH",
"535 487 LINE SMOOTH",
"540 492 OFFCURVE",
"542 496 OFFCURVE",
"542 501 CURVE SMOOTH",
"542 509 OFFCURVE",
"529 523 OFFCURVE",
"521 523 CURVE SMOOTH",
"516 523 OFFCURVE",
"512 520 OFFCURVE",
"507 515 CURVE SMOOTH",
"44 36 LINE SMOOTH",
"39 31 OFFCURVE",
"36 27 OFFCURVE",
"36 22 CURVE SMOOTH",
"36 14 OFFCURVE",
"49 0 OFFCURVE",
"58 0 CURVE SMOOTH"
);
}
);
width = 569;
},
{
anchors = (
{
name = top;
position = "{312, 523}";
}
);
background = {
paths = (
{
closed = 1;
nodes = (
"104 531 OFFCURVE",
"39 374 OFFCURVE",
"39 211 CURVE SMOOTH",
"39 157 OFFCURVE",
"49 114 OFFCURVE",
"70 79 CURVE",
"48 54 LINE SMOOTH",
"41 46 OFFCURVE",
"38 40 OFFCURVE",
"38 33 CURVE SMOOTH",
"38 26 OFFCURVE",
"42 18 OFFCURVE",
"51 11 CURVE SMOOTH",
"65 -1 LINE SMOOTH",
"72 -8 OFFCURVE",
"79 -11 OFFCURVE",
"86 -11 CURVE SMOOTH",
"93 -11 OFFCURVE",
"100 -7 OFFCURVE",
"108 2 CURVE SMOOTH",
"126 23 LINE",
"159 2 OFFCURVE",
"203 -8 OFFCURVE",
"256 -8 CURVE SMOOTH",
"425 -8 OFFCURVE",
"530 106 OFFCURVE",
"530 311 CURVE SMOOTH",
"530 368 OFFCURVE",
"518 415 OFFCURVE",
"494 451 CURVE",
"519 480 LINE SMOOTH",
"525 487 OFFCURVE",
"529 494 OFFCURVE",
"529 501 CURVE SMOOTH",
"529 508 OFFCURVE",
"524 515 OFFCURVE",
"516 523 CURVE SMOOTH",
"502 535 LINE SMOOTH",
"494 541 OFFCURVE",
"488 545 OFFCURVE",
"481 545 CURVE SMOOTH",
"474 545 OFFCURVE",
"466 540 OFFCURVE",
"459 532 CURVE SMOOTH",
"435 504 LINE",
"403 521 OFFCURVE",
"362 531 OFFCURVE",
"313 531 CURVE SMOOTH"
);
},
{
closed = 1;
nodes = (
"378 346 OFFCURVE",
"379 325 OFFCURVE",
"379 304 CURVE SMOOTH",
"379 177 OFFCURVE",
"337 109 OFFCURVE",
"268 109 CURVE SMOOTH",
"246 109 OFFCURVE",
"228 115 OFFCURVE",
"216 127 CURVE",
"423 368 LINE",
"372 372 LINE"
);
},
{
closed = 1;
nodes = (
"319 414 OFFCURVE",
"335 409 OFFCURVE",
"346 401 CURVE",
"145 167 LINE",
"193 144 LINE",
"190 171 OFFCURVE",
"189 195 OFFCURVE",
"189 218 CURVE SMOOTH",
"189 346 OFFCURVE",
"231 414 OFFCURVE",
"301 414 CURVE SMOOTH"
);
}
);
};
color = -1;
components = (
{
name = o;
}
);
layerId = "DE974D70-A5B4-43AB-B940-69E4F08CB641";
paths = (
{
closed = 1;
nodes = (
"78 -5 OFFCURVE",
"85 -2 OFFCURVE",
"93 7 CURVE SMOOTH",
"521 471 LINE SMOOTH",
"527 477 OFFCURVE",
"531 484 OFFCURVE",
"532 491 CURVE SMOOTH",
"534 508 OFFCURVE",
"501 537 OFFCURVE",
"485 537 CURVE SMOOTH",
"478 537 OFFCURVE",
"470 532 OFFCURVE",
"463 525 CURVE SMOOTH",
"35 61 LINE SMOOTH",
"28 54 OFFCURVE",
"25 48 OFFCURVE",
"25 41 CURVE SMOOTH",
"25 22 OFFCURVE",
"55 -5 OFFCURVE",
"71 -5 CURVE SMOOTH"
);
}
);
width = 569;
}
);
leftKerningGroup = o;
rightKerningGroup = o;
unicode = 00F8;
},
{
glyphname = oe;
layers = (
{
anchors = (
{
name = top;
position = "{445, 523}";
}
);
background = {
paths = (
{
closed = 1;
nodes = (
"426 -6 OFFCURVE",
"517 98 OFFCURVE",
"517 302 CURVE SMOOTH",
"517 446 OFFCURVE",
"440 529 OFFCURVE",
"306 529 CURVE SMOOTH",
"122 529 OFFCURVE",
"52 382 OFFCURVE",
"52 219 CURVE SMOOTH",
"52 76 OFFCURVE",
"130 -6 OFFCURVE",
"269 -6 CURVE SMOOTH"
);
},
{
closed = 1;
nodes = (
"186 66 OFFCURVE",
"138 120 OFFCURVE",
"138 222 CURVE SMOOTH",
"138 369 OFFCURVE",
"188 457 OFFCURVE",
"295 457 CURVE SMOOTH",
"383 457 OFFCURVE",
"430 403 OFFCURVE",
"430 300 CURVE SMOOTH",
"430 144 OFFCURVE",
"378 66 OFFCURVE",
"274 66 CURVE SMOOTH"
);
}
);
};
color = -1;
components = (
{
name = e;
transform = "{1, 0, 0, 1, 337, 0}";
}
);
layerId = UUID0;
paths = (
{
closed = 1;
nodes = (
"343 -6 OFFCURVE",
"392 9 OFFCURVE",
"435 45 CURVE",
"483 458 LINE",
"440 507 OFFCURVE",
"389 529 OFFCURVE",
"316 529 CURVE SMOOTH",
"132 529 OFFCURVE",
"62 382 OFFCURVE",
"62 219 CURVE SMOOTH",
"62 76 OFFCURVE",
"140 -6 OFFCURVE",
"279 -6 CURVE SMOOTH"
);
},
{
closed = 1;
nodes = (
"196 66 OFFCURVE",
"148 120 OFFCURVE",
"148 222 CURVE SMOOTH",
"148 369 OFFCURVE",
"198 457 OFFCURVE",
"305 457 CURVE SMOOTH",
"393 457 OFFCURVE",
"440 403 OFFCURVE",
"440 300 CURVE SMOOTH",
"440 144 OFFCURVE",
"391 66 OFFCURVE",
"284 66 CURVE SMOOTH"
);
}
);
width = 875;
},
{
anchors = (
{
name = top;
position = "{444, 523}";
}
);
background = {
paths = (
{
closed = 1;
nodes = (
"430 -8 OFFCURVE",
"530 101 OFFCURVE",
"530 306 CURVE SMOOTH",
"530 449 OFFCURVE",
"451 531 OFFCURVE",
"308 531 CURVE SMOOTH",
"99 531 OFFCURVE",
"39 379 OFFCURVE",
"39 216 CURVE SMOOTH",
"39 74 OFFCURVE",
"118 -8 OFFCURVE",
"261 -8 CURVE SMOOTH"
);
},
{
closed = 1;
nodes = (
"219 109 OFFCURVE",
"189 151 OFFCURVE",
"189 223 CURVE SMOOTH",
"189 351 OFFCURVE",
"226 414 OFFCURVE",
"296 414 CURVE SMOOTH",
"350 414 OFFCURVE",
"379 372 OFFCURVE",
"379 299 CURVE SMOOTH",
"379 172 OFFCURVE",
"342 109 OFFCURVE",
"273 109 CURVE SMOOTH"
);
}
);
};
color = -1;
components = (
{
name = e;
transform = "{1, 0, 0, 1, 349, 0}";
}
);
layerId = "DE974D70-A5B4-43AB-B940-69E4F08CB641";
paths = (
{
closed = 1;
nodes = (
"342 -8 OFFCURVE",
"399 13 OFFCURVE",
"448 54 CURVE",
"480 471 LINE",
"444 508 OFFCURVE",
"385 531 OFFCURVE",
"314 531 CURVE SMOOTH",
"105 531 OFFCURVE",
"45 379 OFFCURVE",
"45 216 CURVE SMOOTH",
"45 74 OFFCURVE",
"124 -8 OFFCURVE",
"267 -8 CURVE SMOOTH"
);
},
{
closed = 1;
nodes = (
"225 109 OFFCURVE",
"195 151 OFFCURVE",
"195 223 CURVE SMOOTH",
"195 351 OFFCURVE",
"232 414 OFFCURVE",
"302 414 CURVE SMOOTH",
"356 414 OFFCURVE",
"385 372 OFFCURVE",
"385 299 CURVE SMOOTH",
"385 172 OFFCURVE",
"348 109 OFFCURVE",
"279 109 CURVE SMOOTH"
);
}
);
width = 875;
}
);
leftKerningGroup = o;
rightKerningGroup = e;
unicode = 0153;
},
{
glyphname = p;
layers = (
{
anchors = (
{
name = bottom;
position = "{260, 0}";
},
{
name = top;
position = "{314, 523}";
}
);
color = -1;
layerId = UUID0;
paths = (
{
closed = 1;
nodes = (
"64 -208 LINE SMOOTH",
"89 -208 OFFCURVE",
"104 -200 OFFCURVE",
"106 -186 CURVE SMOOTH",
"130 47 LINE",
"152 27 OFFCURVE",
"198 -6 OFFCURVE",
"265 -6 CURVE SMOOTH",
"418 -6 OFFCURVE",
"516 129 OFFCURVE",
"516 318 CURVE SMOOTH",
"516 488 OFFCURVE",
"402 529 OFFCURVE",
"329 529 CURVE SMOOTH",
"260 529 OFFCURVE",
"194 492 OFFCURVE",
"152 395 CURVE",
"163 378 LINE",
"166 393 OFFCURVE",
"168 419 OFFCURVE",
"168 439 CURVE SMOOTH",
"168 511 OFFCURVE",
"149 514 OFFCURVE",
"142 514 CURVE SMOOTH",
"135 514 OFFCURVE",
"86 513 OFFCURVE",
"86 491 CURVE SMOOTH",
"86 485 OFFCURVE",
"87 481 OFFCURVE",
"87 457 CURVE SMOOTH",
"87 448 OFFCURVE",
"85 421 OFFCURVE",
"81 383 CURVE SMOOTH",
"22 -187 LINE SMOOTH",
"21 -199 OFFCURVE",
"33 -208 OFFCURVE",
"60 -208 CURVE SMOOTH"
);
},
{
closed = 1;
nodes = (
"194 66 OFFCURVE",
"153 97 OFFCURVE",
"137 111 CURVE",
"155 290 LINE",
"197 419 OFFCURVE",
"265 456 OFFCURVE",
"310 456 CURVE SMOOTH",
"376 456 OFFCURVE",
"429 422 OFFCURVE",
"429 312 CURVE SMOOTH",
"429 190 OFFCURVE",
"394 66 OFFCURVE",
"253 66 CURVE SMOOTH"
);
}
);
width = 573;
},
{
anchors = (
{
name = bottom;
position = "{260, 0}";
},
{
name = top;
position = "{314, 523}";
}
);
color = -1;
layerId = "DE974D70-A5B4-43AB-B940-69E4F08CB641";
paths = (
{
closed = 1;
nodes = (
"96 -206 LINE SMOOTH",
"135 -206 OFFCURVE",
"157 -195 OFFCURVE",
"159 -174 CURVE",
"181 32 LINE",
"205 13 OFFCURVE",
"241 -8 OFFCURVE",
"288 -8 CURVE SMOOTH",
"428 -8 OFFCURVE",
"525 122 OFFCURVE",
"525 314 CURVE SMOOTH",
"525 455 OFFCURVE",
"454 531 OFFCURVE",
"348 531 CURVE SMOOTH",
"276 531 OFFCURVE",
"218 479 OFFCURVE",
"198 423 CURVE",
"212 404 LINE",
"215 420 OFFCURVE",
"217 440 OFFCURVE",
"217 458 CURVE SMOOTH",
"217 488 OFFCURVE",
"211 520 OFFCURVE",
"185 520 CURVE SMOOTH",
"120 520 OFFCURVE",
"69 506 OFFCURVE",
"69 484 CURVE SMOOTH",
"69 469 OFFCURVE",
"71 452 OFFCURVE",
"71 428 CURVE SMOOTH",
"71 411 OFFCURVE",
"70 386 OFFCURVE",
"67 357 CURVE SMOOTH",
"11 -175 LINE",
"11 -191 OFFCURVE",
"28 -206 OFFCURVE",
"68 -206 CURVE SMOOTH"
);
},
{
closed = 1;
nodes = (
"228 109 OFFCURVE",
"207 119 OFFCURVE",
"191 132 CURVE",
"212 349 LINE",
"232 382 OFFCURVE",
"258 410 OFFCURVE",
"292 410 CURVE SMOOTH",
"347 410 OFFCURVE",
"375 374 OFFCURVE",
"375 305 CURVE SMOOTH",
"375 177 OFFCURVE",
"330 109 OFFCURVE",
"254 109 CURVE SMOOTH"
);
}
);
width = 573;
}
);
leftKerningGroup = n;
rightKerningGroup = o;
unicode = 0070;
},
